<?xml version="1.0" encoding="UTF-8" standalone="no"?>
<!DOCTYPE svg PUBLIC "-//W3C//DTD SVG 1.1//EN"
 "http://www.w3.org/Graphics/SVG/1.1/DTD/svg11.dtd">
<!-- Generated by graphviz version 11.0.0 (20240428.1522)
 -->
<!-- Title: G Pages: 1 -->
<svg width="1505pt" height="613pt"
 viewBox="0.00 0.00 1505.45 612.70" xmlns="http://www.w3.org/2000/svg" xmlns:xlink="http://www.w3.org/1999/xlink">
<g id="graph0" class="graph" transform="scale(1 1) rotate(0) translate(21.6 591.1)">
<title>G</title>
<polygon fill="#111111" stroke="none" points="-21.6,21.6 -21.6,-591.1 1483.85,-591.1 1483.85,21.6 -21.6,21.6"/>
<!-- App.js -->
<g id="node1" class="node">
<title>App.js</title>
<path fill="none" stroke="#c6c5fe" d="M488.08,-174.5C488.08,-174.5 447.92,-174.5 447.92,-174.5 443.83,-174.5 439.75,-170.42 439.75,-166.33 439.75,-166.33 439.75,-158.17 439.75,-158.17 439.75,-154.08 443.83,-150 447.92,-150 447.92,-150 488.08,-150 488.08,-150 492.17,-150 496.25,-154.08 496.25,-158.17 496.25,-158.17 496.25,-166.33 496.25,-166.33 496.25,-170.42 492.17,-174.5 488.08,-174.5"/>
<text text-anchor="middle" x="468" y="-157.2" font-family="Arial" font-size="14.00" fill="#c6c5fe">App.js</text>
</g>
<!-- components/AnswerSection/index.js -->
<g id="node2" class="node">
<title>components/AnswerSection/index.js</title>
<path fill="none" stroke="#c6c5fe" d="M789.46,-440.5C789.46,-440.5 560.29,-440.5 560.29,-440.5 556.21,-440.5 552.12,-436.42 552.12,-432.33 552.12,-432.33 552.12,-424.17 552.12,-424.17 552.12,-420.08 556.21,-416 560.29,-416 560.29,-416 789.46,-416 789.46,-416 793.54,-416 797.62,-420.08 797.62,-424.17 797.62,-424.17 797.62,-432.33 797.62,-432.33 797.62,-436.42 793.54,-440.5 789.46,-440.5"/>
<text text-anchor="middle" x="674.88" y="-423.2" font-family="Arial" font-size="14.00" fill="#c6c5fe">components/AnswerSection/index.js</text>
</g>
<!-- App.js&#45;&gt;components/AnswerSection/index.js -->
<g id="edge1" class="edge">
<title>App.js&#45;&gt;components/AnswerSection/index.js</title>
<path fill="none" stroke="#757575" d="M475.25,-174.66C486.98,-197.47 513.66,-247.22 542,-285.25 576.95,-332.17 625,-381.08 652.4,-407.79"/>
<polygon fill="#757575" stroke="#757575" points="649.82,-410.17 659.44,-414.6 654.69,-405.14 649.82,-410.17"/>
</g>
<!-- components/Layout/ResizablePanel.js -->
<g id="node3" class="node">
<title>components/Layout/ResizablePanel.js</title>
<path fill="none" stroke="#cfffac" d="M795.46,-110.5C795.46,-110.5 554.29,-110.5 554.29,-110.5 550.21,-110.5 546.12,-106.42 546.12,-102.33 546.12,-102.33 546.12,-94.17 546.12,-94.17 546.12,-90.08 550.21,-86 554.29,-86 554.29,-86 795.46,-86 795.46,-86 799.54,-86 803.62,-90.08 803.62,-94.17 803.62,-94.17 803.62,-102.33 803.62,-102.33 803.62,-106.42 799.54,-110.5 795.46,-110.5"/>
<text text-anchor="middle" x="674.88" y="-93.2" font-family="Arial" font-size="14.00" fill="#cfffac">components/Layout/ResizablePanel.js</text>
</g>
<!-- App.js&#45;&gt;components/Layout/ResizablePanel.js -->
<g id="edge2" class="edge">
<title>App.js&#45;&gt;components/Layout/ResizablePanel.js</title>
<path fill="none" stroke="#757575" d="M490.55,-149.6C511.07,-137.6 539.23,-121.24 542,-120.25 548.82,-117.81 555.94,-115.64 563.18,-113.7"/>
<polygon fill="#757575" stroke="#757575" points="563.91,-117.13 572.77,-111.31 562.22,-110.33 563.91,-117.13"/>
</g>
<!-- components/Layout/Sidebar.js -->
<g id="node4" class="node">
<title>components/Layout/Sidebar.js</title>
<path fill="none" stroke="#c6c5fe" d="M770.71,-276.5C770.71,-276.5 579.04,-276.5 579.04,-276.5 574.96,-276.5 570.88,-272.42 570.88,-268.33 570.88,-268.33 570.88,-260.17 570.88,-260.17 570.88,-256.08 574.96,-252 579.04,-252 579.04,-252 770.71,-252 770.71,-252 774.79,-252 778.88,-256.08 778.88,-260.17 778.88,-260.17 778.88,-268.33 778.88,-268.33 778.88,-272.42 774.79,-276.5 770.71,-276.5"/>
<text text-anchor="middle" x="674.88" y="-259.2" font-family="Arial" font-size="14.00" fill="#c6c5fe">components/Layout/Sidebar.js</text>
</g>
<!-- App.js&#45;&gt;components/Layout/Sidebar.js -->
<g id="edge3" class="edge">
<title>App.js&#45;&gt;components/Layout/Sidebar.js</title>
<path fill="none" stroke="#757575" d="M477.24,-174.77C489.29,-191.99 513.42,-222.63 542,-238.25 548.89,-242.01 556.25,-245.24 563.83,-248"/>
<polygon fill="#757575" stroke="#757575" points="562.64,-251.29 573.24,-251.13 564.85,-244.65 562.64,-251.29"/>
</g>
<!-- components/QuestionSection/index.js -->
<g id="node5" class="node">
<title>components/QuestionSection/index.js</title>
<path fill="none" stroke="#c6c5fe" d="M794.33,-67.5C794.33,-67.5 555.42,-67.5 555.42,-67.5 551.33,-67.5 547.25,-63.42 547.25,-59.33 547.25,-59.33 547.25,-51.17 547.25,-51.17 547.25,-47.08 551.33,-43 555.42,-43 555.42,-43 794.33,-43 794.33,-43 798.42,-43 802.5,-47.08 802.5,-51.17 802.5,-51.17 802.5,-59.33 802.5,-59.33 802.5,-63.42 798.42,-67.5 794.33,-67.5"/>
<text text-anchor="middle" x="674.88" y="-50.2" font-family="Arial" font-size="14.00" fill="#c6c5fe">components/QuestionSection/index.js</text>
</g>
<!-- App.js&#45;&gt;components/QuestionSection/index.js -->
<g id="edge4" class="edge">
<title>App.js&#45;&gt;components/QuestionSection/index.js</title>
<path fill="none" stroke="#757575" d="M494.18,-149.7C498.41,-146.93 502.54,-143.77 506,-140.25 528.61,-117.25 515.54,-95.68 542,-77.25 544.09,-75.79 546.24,-74.42 548.45,-73.13"/>
<polygon fill="#757575" stroke="#757575" points="549.82,-76.36 557.09,-68.66 546.6,-70.15 549.82,-76.36"/>
</g>
<!-- components/ReferenceSection/index.js -->
<g id="node6" class="node">
<title>components/ReferenceSection/index.js</title>
<path fill="none" stroke="#cfffac" d="M799.58,-24.5C799.58,-24.5 550.17,-24.5 550.17,-24.5 546.08,-24.5 542,-20.42 542,-16.33 542,-16.33 542,-8.17 542,-8.17 542,-4.08 546.08,0 550.17,0 550.17,0 799.58,0 799.58,0 803.67,0 807.75,-4.08 807.75,-8.17 807.75,-8.17 807.75,-16.33 807.75,-16.33 807.75,-20.42 803.67,-24.5 799.58,-24.5"/>
<text text-anchor="middle" x="674.88" y="-7.2" font-family="Arial" font-size="14.00" fill="#cfffac">components/ReferenceSection/index.js</text>
</g>
<!-- App.js&#45;&gt;components/ReferenceSection/index.js -->
<g id="edge5" class="edge">
<title>App.js&#45;&gt;components/ReferenceSection/index.js</title>
<path fill="none" stroke="#757575" d="M495.52,-149.7C499.41,-147 503.08,-143.85 506,-140.25 537.32,-101.59 504.09,-66.47 542,-34.25 543.3,-33.15 544.63,-32.09 546,-31.07"/>
<polygon fill="#757575" stroke="#757575" points="547.64,-34.18 554.14,-25.81 543.85,-28.3 547.64,-34.18"/>
</g>
<!-- components/auth/LoginPage.js -->
<g id="node7" class="node">
<title>components/auth/LoginPage.js</title>
<path fill="none" stroke="#c6c5fe" d="M772.58,-196.5C772.58,-196.5 577.17,-196.5 577.17,-196.5 573.08,-196.5 569,-192.42 569,-188.33 569,-188.33 569,-180.17 569,-180.17 569,-176.08 573.08,-172 577.17,-172 577.17,-172 772.58,-172 772.58,-172 776.67,-172 780.75,-176.08 780.75,-180.17 780.75,-180.17 780.75,-188.33 780.75,-188.33 780.75,-192.42 776.67,-196.5 772.58,-196.5"/>
<text text-anchor="middle" x="674.88" y="-179.2" font-family="Arial" font-size="14.00" fill="#c6c5fe">components/auth/LoginPage.js</text>
</g>
<!-- App.js&#45;&gt;components/auth/LoginPage.js -->
<g id="edge6" class="edge">
<title>App.js&#45;&gt;components/auth/LoginPage.js</title>
<path fill="none" stroke="#757575" d="M496.63,-165.22C512.87,-166.96 534.62,-169.3 557.32,-171.73"/>
<polygon fill="#757575" stroke="#757575" points="556.69,-175.19 567.01,-172.77 557.44,-168.23 556.69,-175.19"/>
</g>
<!-- components/auth/SignupPage.js -->
<g id="node8" class="node">
<title>components/auth/SignupPage.js</title>
<path fill="none" stroke="#c6c5fe" d="M777.08,-153.5C777.08,-153.5 572.67,-153.5 572.67,-153.5 568.58,-153.5 564.5,-149.42 564.5,-145.33 564.5,-145.33 564.5,-137.17 564.5,-137.17 564.5,-133.08 568.58,-129 572.67,-129 572.67,-129 777.08,-129 777.08,-129 781.17,-129 785.25,-133.08 785.25,-137.17 785.25,-137.17 785.25,-145.33 785.25,-145.33 785.25,-149.42 781.17,-153.5 777.08,-153.5"/>
<text text-anchor="middle" x="674.88" y="-136.2" font-family="Arial" font-size="14.00" fill="#c6c5fe">components/auth/SignupPage.js</text>
</g>
<!-- App.js&#45;&gt;components/auth/SignupPage.js -->
<g id="edge7" class="edge">
<title>App.js&#45;&gt;components/auth/SignupPage.js</title>
<path fill="none" stroke="#757575" d="M496.63,-159.42C511.88,-157.85 532,-155.79 553.2,-153.62"/>
<polygon fill="#757575" stroke="#757575" points="553.27,-157.13 562.86,-152.63 552.55,-150.17 553.27,-157.13"/>
</g>
<!-- lib/hooks/useAuth.js -->
<g id="node9" class="node">
<title>lib/hooks/useAuth.js</title>
<path fill="none" stroke="#c6c5fe" d="M1116.71,-221.5C1116.71,-221.5 991.04,-221.5 991.04,-221.5 986.96,-221.5 982.88,-217.42 982.88,-213.33 982.88,-213.33 982.88,-205.17 982.88,-205.17 982.88,-201.08 986.96,-197 991.04,-197 991.04,-197 1116.71,-197 1116.71,-197 1120.79,-197 1124.88,-201.08 1124.88,-205.17 1124.88,-205.17 1124.88,-213.33 1124.88,-213.33 1124.88,-217.42 1120.79,-221.5 1116.71,-221.5"/>
<text text-anchor="middle" x="1053.88" y="-204.2" font-family="Arial" font-size="14.00" fill="#c6c5fe">lib/hooks/useAuth.js</text>
</g>
<!-- App.js&#45;&gt;lib/hooks/useAuth.js -->
<g id="edge8" class="edge">
<title>App.js&#45;&gt;lib/hooks/useAuth.js</title>
<path fill="none" stroke="#757575" d="M484.69,-174.82C498.76,-185.24 520.45,-199.28 542,-205.25 689.07,-245.96 869.21,-233.76 971.54,-221.38"/>
<polygon fill="#757575" stroke="#757575" points="971.72,-224.88 981.21,-220.17 970.86,-217.93 971.72,-224.88"/>
</g>
<!-- components/AnswerSection/components/ActionBar.js -->
<g id="node11" class="node">
<title>components/AnswerSection/components/ActionBar.js</title>
<path fill="none" stroke="#cfffac" d="M1223.58,-569.5C1223.58,-569.5 884.17,-569.5 884.17,-569.5 880.08,-569.5 876,-565.42 876,-561.33 876,-561.33 876,-553.17 876,-553.17 876,-549.08 880.08,-545 884.17,-545 884.17,-545 1223.58,-545 1223.58,-545 1227.67,-545 1231.75,-549.08 1231.75,-553.17 1231.75,-553.17 1231.75,-561.33 1231.75,-561.33 1231.75,-565.42 1227.67,-569.5 1223.58,-569.5"/>
<text text-anchor="middle" x="1053.88" y="-552.2" font-family="Arial" font-size="14.00" fill="#cfffac">components/AnswerSection/components/ActionBar.js</text>
</g>
<!-- components/AnswerSection/index.js&#45;&gt;components/AnswerSection/components/ActionBar.js -->
<g id="edge11" class="edge">
<title>components/AnswerSection/index.js&#45;&gt;components/AnswerSection/components/ActionBar.js</title>
<path fill="none" stroke="#757575" d="M690.36,-440.86C718,-464.12 781.11,-513.36 843.75,-535.25 850.62,-537.65 857.68,-539.81 864.87,-541.75"/>
<polygon fill="#757575" stroke="#757575" points="863.85,-545.1 874.4,-544.16 865.56,-538.31 863.85,-545.1"/>
</g>
<!-- components/AnswerSection/components/Editor.js -->
<g id="node12" class="node">
<title>components/AnswerSection/components/Editor.js</title>
<path fill="none" stroke="#cfffac" d="M1211.58,-526.5C1211.58,-526.5 896.17,-526.5 896.17,-526.5 892.08,-526.5 888,-522.42 888,-518.33 888,-518.33 888,-510.17 888,-510.17 888,-506.08 892.08,-502 896.17,-502 896.17,-502 1211.58,-502 1211.58,-502 1215.67,-502 1219.75,-506.08 1219.75,-510.17 1219.75,-510.17 1219.75,-518.33 1219.75,-518.33 1219.75,-522.42 1215.67,-526.5 1211.58,-526.5"/>
<text text-anchor="middle" x="1053.88" y="-509.2" font-family="Arial" font-size="14.00" fill="#cfffac">components/AnswerSection/components/Editor.js</text>
</g>
<!-- components/AnswerSection/index.js&#45;&gt;components/AnswerSection/components/Editor.js -->
<g id="edge12" class="edge">
<title>components/AnswerSection/index.js&#45;&gt;components/AnswerSection/components/Editor.js</title>
<path fill="none" stroke="#757575" d="M702.52,-440.89C735.07,-455.75 792.18,-479.93 843.75,-492.25 855.63,-495.09 867.97,-497.56 880.46,-499.71"/>
<polygon fill="#757575" stroke="#757575" points="879.53,-503.11 889.97,-501.28 880.67,-496.2 879.53,-503.11"/>
</g>
<!-- components/AnswerSection/components/VersionComparison.js -->
<g id="node14" class="node">
<title>components/AnswerSection/components/VersionComparison.js</title>
<path fill="none" stroke="#cfffac" d="M1255.83,-483.5C1255.83,-483.5 851.92,-483.5 851.92,-483.5 847.83,-483.5 843.75,-479.42 843.75,-475.33 843.75,-475.33 843.75,-467.17 843.75,-467.17 843.75,-463.08 847.83,-459 851.92,-459 851.92,-459 1255.83,-459 1255.83,-459 1259.92,-459 1264,-463.08 1264,-467.17 1264,-467.17 1264,-475.33 1264,-475.33 1264,-479.42 1259.92,-483.5 1255.83,-483.5"/>
<text text-anchor="middle" x="1053.88" y="-466.2" font-family="Arial" font-size="14.00" fill="#cfffac">components/AnswerSection/components/VersionComparison.js</text>
</g>
<!-- components/AnswerSection/index.js&#45;&gt;components/AnswerSection/components/VersionComparison.js -->
<g id="edge13" class="edge">
<title>components/AnswerSection/index.js&#45;&gt;components/AnswerSection/components/VersionComparison.js</title>
<path fill="none" stroke="#757575" d="M774.81,-440.95C797.46,-443.77 821.43,-446.68 843.75,-449.25 867.23,-451.95 892.21,-454.7 916.43,-457.29"/>
<polygon fill="#757575" stroke="#757575" points="916.05,-460.77 926.37,-458.34 916.79,-453.81 916.05,-460.77"/>
</g>
<!-- components/AnswerSection/components/VersionControl.js -->
<g id="node15" class="node">
<title>components/AnswerSection/components/VersionControl.js</title>
<path fill="none" stroke="#cfffac" d="M1240.08,-440.5C1240.08,-440.5 867.67,-440.5 867.67,-440.5 863.58,-440.5 859.5,-436.42 859.5,-432.33 859.5,-432.33 859.5,-424.17 859.5,-424.17 859.5,-420.08 863.58,-416 867.67,-416 867.67,-416 1240.08,-416 1240.08,-416 1244.17,-416 1248.25,-420.08 1248.25,-424.17 1248.25,-424.17 1248.25,-432.33 1248.25,-432.33 1248.25,-436.42 1244.17,-440.5 1240.08,-440.5"/>
<text text-anchor="middle" x="1053.88" y="-423.2" font-family="Arial" font-size="14.00" fill="#cfffac">components/AnswerSection/components/VersionControl.js</text>
</g>
<!-- components/AnswerSection/index.js&#45;&gt;components/AnswerSection/components/VersionControl.js -->
<g id="edge14" class="edge">
<title>components/AnswerSection/index.js&#45;&gt;components/AnswerSection/components/VersionControl.js</title>
<path fill="none" stroke="#757575" d="M798.02,-428.25C814.07,-428.25 830.86,-428.25 847.83,-428.25"/>
<polygon fill="#757575" stroke="#757575" points="847.49,-431.75 857.49,-428.25 847.49,-424.75 847.49,-431.75"/>
</g>
<!-- components/AnswerSection/hooks/useAnswerGeneration.js -->
<g id="node16" class="node">
<title>components/AnswerSection/hooks/useAnswerGeneration.js</title>
<path fill="none" stroke="#c6c5fe" d="M1242.71,-397.5C1242.71,-397.5 865.04,-397.5 865.04,-397.5 860.96,-397.5 856.88,-393.42 856.88,-389.33 856.88,-389.33 856.88,-381.17 856.88,-381.17 856.88,-377.08 860.96,-373 865.04,-373 865.04,-373 1242.71,-373 1242.71,-373 1246.79,-373 1250.88,-377.08 1250.88,-381.17 1250.88,-381.17 1250.88,-389.33 1250.88,-389.33 1250.88,-393.42 1246.79,-397.5 1242.71,-397.5"/>
<text text-anchor="middle" x="1053.88" y="-380.2" font-family="Arial" font-size="14.00" fill="#c6c5fe">components/AnswerSection/hooks/useAnswerGeneration.js</text>
</g>
<!-- components/AnswerSection/index.js&#45;&gt;components/AnswerSection/hooks/useAnswerGeneration.js -->
<g id="edge15" class="edge">
<title>components/AnswerSection/index.js&#45;&gt;components/AnswerSection/hooks/useAnswerGeneration.js</title>
<path fill="none" stroke="#757575" d="M774.81,-415.55C797.46,-412.73 821.43,-409.82 843.75,-407.25 867.23,-404.55 892.21,-401.8 916.43,-399.21"/>
<polygon fill="#757575" stroke="#757575" points="916.79,-402.69 926.37,-398.16 916.05,-395.73 916.79,-402.69"/>
</g>
<!-- components/AnswerSection/hooks/useVersionHistory.js -->
<g id="node18" class="node">
<title>components/AnswerSection/hooks/useVersionHistory.js</title>
<path fill="none" stroke="#cfffac" d="M1230.33,-354.5C1230.33,-354.5 877.42,-354.5 877.42,-354.5 873.33,-354.5 869.25,-350.42 869.25,-346.33 869.25,-346.33 869.25,-338.17 869.25,-338.17 869.25,-334.08 873.33,-330 877.42,-330 877.42,-330 1230.33,-330 1230.33,-330 1234.42,-330 1238.5,-334.08 1238.5,-338.17 1238.5,-338.17 1238.5,-346.33 1238.5,-346.33 1238.5,-350.42 1234.42,-354.5 1230.33,-354.5"/>
<text text-anchor="middle" x="1053.88" y="-337.2" font-family="Arial" font-size="14.00" fill="#cfffac">components/AnswerSection/hooks/useVersionHistory.js</text>
</g>
<!-- components/AnswerSection/index.js&#45;&gt;components/AnswerSection/hooks/useVersionHistory.js -->
<g id="edge16" class="edge">
<title>components/AnswerSection/index.js&#45;&gt;components/AnswerSection/hooks/useVersionHistory.js</title>
<path fill="none" stroke="#757575" d="M702.52,-415.61C735.07,-400.75 792.18,-376.57 843.75,-364.25 855.63,-361.41 867.97,-358.94 880.46,-356.79"/>
<polygon fill="#757575" stroke="#757575" points="880.67,-360.3 889.97,-355.22 879.53,-353.39 880.67,-360.3"/>
</g>
<!-- components/Layout/Sidebar.js&#45;&gt;lib/hooks/useAuth.js -->
<g id="edge18" class="edge">
<title>components/Layout/Sidebar.js&#45;&gt;lib/hooks/useAuth.js</title>
<path fill="none" stroke="#757575" d="M762.84,-251.56C825.58,-242.41 909.72,-230.13 971.21,-221.16"/>
<polygon fill="#757575" stroke="#757575" points="971.53,-224.65 980.92,-219.75 970.52,-217.73 971.53,-224.65"/>
</g>
<!-- services/questionApi.js -->
<g id="node17" class="node">
<title>services/questionApi.js</title>
<path fill="none" stroke="#cfffac" d="M1454.08,-311.5C1454.08,-311.5 1308.17,-311.5 1308.17,-311.5 1304.08,-311.5 1300,-307.42 1300,-303.33 1300,-303.33 1300,-295.17 1300,-295.17 1300,-291.08 1304.08,-287 1308.17,-287 1308.17,-287 1454.08,-287 1454.08,-287 1458.17,-287 1462.25,-291.08 1462.25,-295.17 1462.25,-295.17 1462.25,-303.33 1462.25,-303.33 1462.25,-307.42 1458.17,-311.5 1454.08,-311.5"/>
<text text-anchor="middle" x="1381.12" y="-294.2" font-family="Arial" font-size="14.00" fill="#cfffac">services/questionApi.js</text>
</g>
<!-- components/Layout/Sidebar.js&#45;&gt;services/questionApi.js -->
<g id="edge19" class="edge">
<title>components/Layout/Sidebar.js&#45;&gt;services/questionApi.js</title>
<path fill="none" stroke="#757575" d="M779.23,-261.88C896.92,-260.3 1094.82,-261.04 1264,-278.25 1278.54,-279.73 1293.99,-282.01 1308.71,-284.54"/>
<polygon fill="#757575" stroke="#757575" points="1307.86,-287.94 1318.32,-286.25 1309.08,-281.05 1307.86,-287.94"/>
</g>
<!-- components/QuestionSection/DropdownMenu.js -->
<g id="node20" class="node">
<title>components/QuestionSection/DropdownMenu.js</title>
<path fill="none" stroke="#cfffac" d="M1206.33,-89.5C1206.33,-89.5 901.42,-89.5 901.42,-89.5 897.33,-89.5 893.25,-85.42 893.25,-81.33 893.25,-81.33 893.25,-73.17 893.25,-73.17 893.25,-69.08 897.33,-65 901.42,-65 901.42,-65 1206.33,-65 1206.33,-65 1210.42,-65 1214.5,-69.08 1214.5,-73.17 1214.5,-73.17 1214.5,-81.33 1214.5,-81.33 1214.5,-85.42 1210.42,-89.5 1206.33,-89.5"/>
<text text-anchor="middle" x="1053.88" y="-72.2" font-family="Arial" font-size="14.00" fill="#cfffac">components/QuestionSection/DropdownMenu.js</text>
</g>
<!-- components/QuestionSection/index.js&#45;&gt;components/QuestionSection/DropdownMenu.js -->
<g id="edge20" class="edge">
<title>components/QuestionSection/index.js&#45;&gt;components/QuestionSection/DropdownMenu.js</title>
<path fill="none" stroke="#757575" d="M802.98,-62.67C828.24,-64.14 855.14,-65.71 881.58,-67.25"/>
<polygon fill="#757575" stroke="#757575" points="881.18,-70.74 891.37,-67.83 881.59,-63.75 881.18,-70.74"/>
</g>
<!-- components/QuestionSection/QuestionInput.js -->
<g id="node21" class="node">
<title>components/QuestionSection/QuestionInput.js</title>
<path fill="none" stroke="#cfffac" d="M1200.71,-46.5C1200.71,-46.5 907.04,-46.5 907.04,-46.5 902.96,-46.5 898.88,-42.42 898.88,-38.33 898.88,-38.33 898.88,-30.17 898.88,-30.17 898.88,-26.08 902.96,-22 907.04,-22 907.04,-22 1200.71,-22 1200.71,-22 1204.79,-22 1208.88,-26.08 1208.88,-30.17 1208.88,-30.17 1208.88,-38.33 1208.88,-38.33 1208.88,-42.42 1204.79,-46.5 1200.71,-46.5"/>
<text text-anchor="middle" x="1053.88" y="-29.2" font-family="Arial" font-size="14.00" fill="#cfffac">components/QuestionSection/QuestionInput.js</text>
</g>
<!-- components/QuestionSection/index.js&#45;&gt;components/QuestionSection/QuestionInput.js -->
<g id="edge21" class="edge">
<title>components/QuestionSection/index.js&#45;&gt;components/QuestionSection/QuestionInput.js</title>
<path fill="none" stroke="#757575" d="M802.98,-48.17C830.06,-46.66 859.04,-45.05 887.32,-43.47"/>
<polygon fill="#757575" stroke="#757575" points="887.24,-46.98 897.03,-42.93 886.85,-39.99 887.24,-46.98"/>
</g>
<!-- components/auth/LoginPage.js&#45;&gt;lib/hooks/useAuth.js -->
<g id="edge23" class="edge">
<title>components/auth/LoginPage.js&#45;&gt;lib/hooks/useAuth.js</title>
<path fill="none" stroke="#757575" d="M781.14,-191.23C841.27,-195.22 915.53,-200.14 971.21,-203.83"/>
<polygon fill="#757575" stroke="#757575" points="970.73,-207.31 980.94,-204.48 971.19,-200.33 970.73,-207.31"/>
</g>
<!-- components/auth/AuthLayout.js -->
<g id="node22" class="node">
<title>components/auth/AuthLayout.js</title>
<path fill="none" stroke="#cfffac" d="M1152.33,-158.5C1152.33,-158.5 955.42,-158.5 955.42,-158.5 951.33,-158.5 947.25,-154.42 947.25,-150.33 947.25,-150.33 947.25,-142.17 947.25,-142.17 947.25,-138.08 951.33,-134 955.42,-134 955.42,-134 1152.33,-134 1152.33,-134 1156.42,-134 1160.5,-138.08 1160.5,-142.17 1160.5,-142.17 1160.5,-150.33 1160.5,-150.33 1160.5,-154.42 1156.42,-158.5 1152.33,-158.5"/>
<text text-anchor="middle" x="1053.88" y="-141.2" font-family="Arial" font-size="14.00" fill="#cfffac">components/auth/AuthLayout.js</text>
</g>
<!-- components/auth/LoginPage.js&#45;&gt;components/auth/AuthLayout.js -->
<g id="edge22" class="edge">
<title>components/auth/LoginPage.js&#45;&gt;components/auth/AuthLayout.js</title>
<path fill="none" stroke="#757575" d="M781.14,-173.64C829.14,-168.8 886.15,-163.05 935.53,-158.08"/>
<polygon fill="#757575" stroke="#757575" points="935.82,-161.57 945.42,-157.08 935.12,-154.6 935.82,-161.57"/>
</g>
<!-- components/auth/SignupPage.js&#45;&gt;lib/hooks/useAuth.js -->
<g id="edge25" class="edge">
<title>components/auth/SignupPage.js&#45;&gt;lib/hooks/useAuth.js</title>
<path fill="none" stroke="#757575" d="M753.67,-153.96C771.45,-156.94 790.27,-160.15 807.75,-163.25 864.09,-173.24 927.59,-185.17 975.84,-194.38"/>
<polygon fill="#757575" stroke="#757575" points="975.17,-197.82 985.65,-196.26 976.48,-190.94 975.17,-197.82"/>
</g>
<!-- components/auth/SignupPage.js&#45;&gt;components/auth/AuthLayout.js -->
<g id="edge24" class="edge">
<title>components/auth/SignupPage.js&#45;&gt;components/auth/AuthLayout.js</title>
<path fill="none" stroke="#757575" d="M785.68,-142.71C832.67,-143.33 887.61,-144.06 935.41,-144.69"/>
<polygon fill="#757575" stroke="#757575" points="935.2,-148.19 945.25,-144.82 935.3,-141.19 935.2,-148.19"/>
</g>
<!-- services/auth.js -->
<g id="node25" class="node">
<title>services/auth.js</title>
<path fill="none" stroke="#cfffac" d="M1429.71,-221.5C1429.71,-221.5 1332.54,-221.5 1332.54,-221.5 1328.46,-221.5 1324.38,-217.42 1324.38,-213.33 1324.38,-213.33 1324.38,-205.17 1324.38,-205.17 1324.38,-201.08 1328.46,-197 1332.54,-197 1332.54,-197 1429.71,-197 1429.71,-197 1433.79,-197 1437.88,-201.08 1437.88,-205.17 1437.88,-205.17 1437.88,-213.33 1437.88,-213.33 1437.88,-217.42 1433.79,-221.5 1429.71,-221.5"/>
<text text-anchor="middle" x="1381.12" y="-204.2" font-family="Arial" font-size="14.00" fill="#cfffac">services/auth.js</text>
</g>
<!-- lib/hooks/useAuth.js&#45;&gt;services/auth.js -->
<g id="edge28" class="edge">
<title>lib/hooks/useAuth.js&#45;&gt;services/auth.js</title>
<path fill="none" stroke="#757575" d="M1125.05,-209.25C1180.67,-209.25 1257.88,-209.25 1312.76,-209.25"/>
<polygon fill="#757575" stroke="#757575" points="1312.6,-212.75 1322.6,-209.25 1312.6,-205.75 1312.6,-212.75"/>
</g>
<!-- App.test.js -->
<g id="node10" class="node">
<title>App.test.js</title>
<path fill="none" stroke="#c6c5fe" d="M230.58,-174.5C230.58,-174.5 163.42,-174.5 163.42,-174.5 159.33,-174.5 155.25,-170.42 155.25,-166.33 155.25,-166.33 155.25,-158.17 155.25,-158.17 155.25,-154.08 159.33,-150 163.42,-150 163.42,-150 230.58,-150 230.58,-150 234.67,-150 238.75,-154.08 238.75,-158.17 238.75,-158.17 238.75,-166.33 238.75,-166.33 238.75,-170.42 234.67,-174.5 230.58,-174.5"/>
<text text-anchor="middle" x="197" y="-157.2" font-family="Arial" font-size="14.00" fill="#c6c5fe">App.test.js</text>
</g>
<!-- App.test.js&#45;&gt;App.js -->
<g id="edge9" class="edge">
<title>App.test.js&#45;&gt;App.js</title>
<path fill="none" stroke="#757575" d="M239.15,-162.25C290.52,-162.25 377.73,-162.25 428.05,-162.25"/>
<polygon fill="#757575" stroke="#757575" points="427.89,-165.75 437.89,-162.25 427.89,-158.75 427.89,-165.75"/>
</g>
<!-- components/AnswerSection/components/SourcesDisplay.js -->
<g id="node13" class="node">
<title>components/AnswerSection/components/SourcesDisplay.js</title>
<path fill="none" stroke="#cfffac" d="M385.83,-217.5C385.83,-217.5 8.17,-217.5 8.17,-217.5 4.08,-217.5 0,-213.42 0,-209.33 0,-209.33 0,-201.17 0,-201.17 0,-197.08 4.08,-193 8.17,-193 8.17,-193 385.83,-193 385.83,-193 389.92,-193 394,-197.08 394,-201.17 394,-201.17 394,-209.33 394,-209.33 394,-213.42 389.92,-217.5 385.83,-217.5"/>
<text text-anchor="middle" x="197" y="-200.2" font-family="Arial" font-size="14.00" fill="#cfffac">components/AnswerSection/components/SourcesDisplay.js</text>
</g>
<!-- components/AnswerSection/hooks/useAnswerGeneration.js&#45;&gt;services/questionApi.js -->
<g id="edge10" class="edge">
<title>components/AnswerSection/hooks/useAnswerGeneration.js&#45;&gt;services/questionApi.js</title>
<path fill="none" stroke="#757575" d="M1228.03,-372.53C1240.32,-369.95 1252.42,-366.89 1264,-363.25 1296.71,-352.98 1330.67,-332.99 1353.35,-318.07"/>
<polygon fill="#757575" stroke="#757575" points="1355.04,-321.16 1361.38,-312.68 1351.13,-315.35 1355.04,-321.16"/>
</g>
<!-- components/Layout/QuestionHistory.js -->
<g id="node19" class="node">
<title>components/Layout/QuestionHistory.js</title>
<path fill="none" stroke="#c6c5fe" d="M1175.21,-311.5C1175.21,-311.5 932.54,-311.5 932.54,-311.5 928.46,-311.5 924.38,-307.42 924.38,-303.33 924.38,-303.33 924.38,-295.17 924.38,-295.17 924.38,-291.08 928.46,-287 932.54,-287 932.54,-287 1175.21,-287 1175.21,-287 1179.29,-287 1183.38,-291.08 1183.38,-295.17 1183.38,-295.17 1183.38,-303.33 1183.38,-303.33 1183.38,-307.42 1179.29,-311.5 1175.21,-311.5"/>
<text text-anchor="middle" x="1053.88" y="-294.2" font-family="Arial" font-size="14.00" fill="#c6c5fe">components/Layout/QuestionHistory.js</text>
</g>
<!-- components/Layout/QuestionHistory.js&#45;&gt;services/questionApi.js -->
<g id="edge17" class="edge">
<title>components/Layout/QuestionHistory.js&#45;&gt;services/questionApi.js</title>
<path fill="none" stroke="#757575" d="M1183.42,-299.25C1218.53,-299.25 1255.85,-299.25 1288.44,-299.25"/>
<polygon fill="#757575" stroke="#757575" points="1288.25,-302.75 1298.25,-299.25 1288.25,-295.75 1288.25,-302.75"/>
</g>
<!-- index.css -->
<g id="node23" class="node">
<title>index.css</title>
<path fill="none" stroke="#cfffac" d="M497.83,-131.5C497.83,-131.5 438.17,-131.5 438.17,-131.5 434.08,-131.5 430,-127.42 430,-123.33 430,-123.33 430,-115.17 430,-115.17 430,-111.08 434.08,-107 438.17,-107 438.17,-107 497.83,-107 497.83,-107 501.92,-107 506,-111.08 506,-115.17 506,-115.17 506,-123.33 506,-123.33 506,-127.42 501.92,-131.5 497.83,-131.5"/>
<text text-anchor="middle" x="468" y="-114.2" font-family="Arial" font-size="14.00" fill="#cfffac">index.css</text>
</g>
<!-- index.js -->
<g id="node24" class="node">
<title>index.js</title>
<path fill="none" stroke="#c6c5fe" d="M220.83,-131.5C220.83,-131.5 173.17,-131.5 173.17,-131.5 169.08,-131.5 165,-127.42 165,-123.33 165,-123.33 165,-115.17 165,-115.17 165,-111.08 169.08,-107 173.17,-107 173.17,-107 220.83,-107 220.83,-107 224.92,-107 229,-111.08 229,-115.17 229,-115.17 229,-123.33 229,-123.33 229,-127.42 224.92,-131.5 220.83,-131.5"/>
<text text-anchor="middle" x="197" y="-114.2" font-family="Arial" font-size="14.00" fill="#c6c5fe">index.js</text>
</g>
<!-- index.js&#45;&gt;App.js -->
<g id="edge26" class="edge">
<title>index.js&#45;&gt;App.js</title>
<path fill="none" stroke="#757575" d="M229.48,-121.15C268.41,-123.86 336.57,-129.85 394,-141.25 405.45,-143.52 417.7,-146.73 428.84,-149.96"/>
<polygon fill="#757575" stroke="#757575" points="427.5,-153.21 438.09,-152.73 429.51,-146.51 427.5,-153.21"/>
</g>
<!-- index.js&#45;&gt;index.css -->
<g id="edge27" class="edge">
<title>index.js&#45;&gt;index.css</title>
<path fill="none" stroke="#757575" d="M229.38,-119.25C275.96,-119.25 363.78,-119.25 418.62,-119.25"/>
<polygon fill="#757575" stroke="#757575" points="418.29,-122.75 428.29,-119.25 418.29,-115.75 418.29,-122.75"/>
</g>
<!-- lib/utils.js -->
<g id="node26" class="node">
<title>lib/utils.js</title>
<path fill="none" stroke="#cfffac" d="M225.33,-260.5C225.33,-260.5 168.67,-260.5 168.67,-260.5 164.58,-260.5 160.5,-256.42 160.5,-252.33 160.5,-252.33 160.5,-244.17 160.5,-244.17 160.5,-240.08 164.58,-236 168.67,-236 168.67,-236 225.33,-236 225.33,-236 229.42,-236 233.5,-240.08 233.5,-244.17 233.5,-244.17 233.5,-252.33 233.5,-252.33 233.5,-256.42 229.42,-260.5 225.33,-260.5"/>
<text text-anchor="middle" x="197" y="-243.2" font-family="Arial" font-size="14.00" fill="#cfffac">lib/utils.js</text>
</g>
<!-- reportWebVitals.js -->
<g id="node27" class="node">
<title>reportWebVitals.js</title>
<path fill="none" stroke="#cfffac" d="M255.33,-303.5C255.33,-303.5 138.67,-303.5 138.67,-303.5 134.58,-303.5 130.5,-299.42 130.5,-295.33 130.5,-295.33 130.5,-287.17 130.5,-287.17 130.5,-283.08 134.58,-279 138.67,-279 138.67,-279 255.33,-279 255.33,-279 259.42,-279 263.5,-283.08 263.5,-287.17 263.5,-287.17 263.5,-295.33 263.5,-295.33 263.5,-299.42 259.42,-303.5 255.33,-303.5"/>
<text text-anchor="middle" x="197" y="-286.2" font-family="Arial" font-size="14.00" fill="#cfffac">reportWebVitals.js</text>
</g>
<!-- services/answerApi.js -->
<g id="node28" class="node">
<title>services/answerApi.js</title>
<path fill="none" stroke="#cfffac" d="M265.46,-346.5C265.46,-346.5 128.54,-346.5 128.54,-346.5 124.46,-346.5 120.38,-342.42 120.38,-338.33 120.38,-338.33 120.38,-330.17 120.38,-330.17 120.38,-326.08 124.46,-322 128.54,-322 128.54,-322 265.46,-322 265.46,-322 269.54,-322 273.62,-326.08 273.62,-330.17 273.62,-330.17 273.62,-338.33 273.62,-338.33 273.62,-342.42 269.54,-346.5 265.46,-346.5"/>
<text text-anchor="middle" x="197" y="-329.2" font-family="Arial" font-size="14.00" fill="#cfffac">services/answerApi.js</text>
</g>
<!-- services/referenceApi.js -->
<g id="node29" class="node">
<title>services/referenceApi.js</title>
<path fill="none" stroke="#cfffac" d="M273.71,-389.5C273.71,-389.5 120.29,-389.5 120.29,-389.5 116.21,-389.5 112.12,-385.42 112.12,-381.33 112.12,-381.33 112.12,-373.17 112.12,-373.17 112.12,-369.08 116.21,-365 120.29,-365 120.29,-365 273.71,-365 273.71,-365 277.79,-365 281.88,-369.08 281.88,-373.17 281.88,-373.17 281.88,-381.33 281.88,-381.33 281.88,-385.42 277.79,-389.5 273.71,-389.5"/>
<text text-anchor="middle" x="197" y="-372.2" font-family="Arial" font-size="14.00" fill="#cfffac">services/referenceApi.js</text>
</g>
<!-- services/versionHistoryApi.js -->
<g id="node30" class="node">
<title>services/versionHistoryApi.js</title>
<path fill="none" stroke="#cfffac" d="M287.58,-432.5C287.58,-432.5 106.42,-432.5 106.42,-432.5 102.33,-432.5 98.25,-428.42 98.25,-424.33 98.25,-424.33 98.25,-416.17 98.25,-416.17 98.25,-412.08 102.33,-408 106.42,-408 106.42,-408 287.58,-408 287.58,-408 291.67,-408 295.75,-412.08 295.75,-416.17 295.75,-416.17 295.75,-424.33 295.75,-424.33 295.75,-428.42 291.67,-432.5 287.58,-432.5"/>
<text text-anchor="middle" x="197" y="-415.2" font-family="Arial" font-size="14.00" fill="#cfffac">services/versionHistoryApi.js</text>
</g>
<!-- setupTests.js -->
<g id="node31" class="node">
<title>setupTests.js</title>
<path fill="none" stroke="#cfffac" d="M239.58,-475.5C239.58,-475.5 154.42,-475.5 154.42,-475.5 150.33,-475.5 146.25,-471.42 146.25,-467.33 146.25,-467.33 146.25,-459.17 146.25,-459.17 146.25,-455.08 150.33,-451 154.42,-451 154.42,-451 239.58,-451 239.58,-451 243.67,-451 247.75,-455.08 247.75,-459.17 247.75,-459.17 247.75,-467.33 247.75,-467.33 247.75,-471.42 243.67,-475.5 239.58,-475.5"/>
<text text-anchor="middle" x="197" y="-458.2" font-family="Arial" font-size="14.00" fill="#cfffac">setupTests.js</text>
</g>
</g>
</svg>
