<?xml version="1.0" encoding="UTF-8" standalone="no"?>
<!DOCTYPE svg PUBLIC "-//W3C//DTD SVG 1.1//EN"
 "http://www.w3.org/Graphics/SVG/1.1/DTD/svg11.dtd">
<!-- Generated by graphviz version 11.0.0 (20240428.1522)
 -->
<!-- Title: G Pages: 1 -->
<svg width="1505pt" height="597pt"
 viewBox="0.00 0.00 1505.45 596.70" xmlns="http://www.w3.org/2000/svg" xmlns:xlink="http://www.w3.org/1999/xlink">
<g id="graph0" class="graph" transform="scale(1 1) rotate(0) translate(21.6 575.1)">
<title>G</title>
<polygon fill="#111111" stroke="none" points="-21.6,21.6 -21.6,-575.1 1483.85,-575.1 1483.85,21.6 -21.6,21.6"/>
<!-- App.js -->
<g id="node1" class="node">
<title>App.js</title>
<path fill="none" stroke="#c6c5fe" d="M488.08,-203.5C488.08,-203.5 447.92,-203.5 447.92,-203.5 443.83,-203.5 439.75,-199.42 439.75,-195.33 439.75,-195.33 439.75,-187.17 439.75,-187.17 439.75,-183.08 443.83,-179 447.92,-179 447.92,-179 488.08,-179 488.08,-179 492.17,-179 496.25,-183.08 496.25,-187.17 496.25,-187.17 496.25,-195.33 496.25,-195.33 496.25,-199.42 492.17,-203.5 488.08,-203.5"/>
<text text-anchor="middle" x="468" y="-186.2" font-family="Arial" font-size="14.00" fill="#c6c5fe">App.js</text>
</g>
<!-- components/AnswerSection/index.js -->
<g id="node2" class="node">
<title>components/AnswerSection/index.js</title>
<path fill="none" stroke="#c6c5fe" d="M789.46,-424.5C789.46,-424.5 560.29,-424.5 560.29,-424.5 556.21,-424.5 552.12,-420.42 552.12,-416.33 552.12,-416.33 552.12,-408.17 552.12,-408.17 552.12,-404.08 556.21,-400 560.29,-400 560.29,-400 789.46,-400 789.46,-400 793.54,-400 797.62,-404.08 797.62,-408.17 797.62,-408.17 797.62,-416.33 797.62,-416.33 797.62,-420.42 793.54,-424.5 789.46,-424.5"/>
<text text-anchor="middle" x="674.88" y="-407.2" font-family="Arial" font-size="14.00" fill="#c6c5fe">components/AnswerSection/index.js</text>
</g>
<!-- App.js&#45;&gt;components/AnswerSection/index.js -->
<g id="edge1" class="edge">
<title>App.js&#45;&gt;components/AnswerSection/index.js</title>
<path fill="none" stroke="#757575" d="M474.1,-203.93C484.28,-228.17 509.03,-281.89 542,-318.25 570.6,-349.78 611.5,-376.9 640.14,-393.79"/>
<polygon fill="#757575" stroke="#757575" points="638.38,-396.81 648.79,-398.78 641.88,-390.75 638.38,-396.81"/>
</g>
<!-- components/Layout/ResizablePanel.js -->
<g id="node3" class="node">
<title>components/Layout/ResizablePanel.js</title>
<path fill="none" stroke="#cfffac" d="M795.46,-309.5C795.46,-309.5 554.29,-309.5 554.29,-309.5 550.21,-309.5 546.12,-305.42 546.12,-301.33 546.12,-301.33 546.12,-293.17 546.12,-293.17 546.12,-289.08 550.21,-285 554.29,-285 554.29,-285 795.46,-285 795.46,-285 799.54,-285 803.62,-289.08 803.62,-293.17 803.62,-293.17 803.62,-301.33 803.62,-301.33 803.62,-305.42 799.54,-309.5 795.46,-309.5"/>
<text text-anchor="middle" x="674.88" y="-292.2" font-family="Arial" font-size="14.00" fill="#cfffac">components/Layout/ResizablePanel.js</text>
</g>
<!-- App.js&#45;&gt;components/Layout/ResizablePanel.js -->
<g id="edge2" class="edge">
<title>App.js&#45;&gt;components/Layout/ResizablePanel.js</title>
<path fill="none" stroke="#757575" d="M476.08,-203.94C487.36,-222.86 511.32,-258.07 542,-275.25 545.24,-277.06 548.59,-278.74 552.03,-280.28"/>
<polygon fill="#757575" stroke="#757575" points="550.57,-283.47 561.15,-283.96 553.19,-276.97 550.57,-283.47"/>
</g>
<!-- components/Layout/Sidebar.js -->
<g id="node4" class="node">
<title>components/Layout/Sidebar.js</title>
<path fill="none" stroke="#c6c5fe" d="M770.71,-266.5C770.71,-266.5 579.04,-266.5 579.04,-266.5 574.96,-266.5 570.88,-262.42 570.88,-258.33 570.88,-258.33 570.88,-250.17 570.88,-250.17 570.88,-246.08 574.96,-242 579.04,-242 579.04,-242 770.71,-242 770.71,-242 774.79,-242 778.88,-246.08 778.88,-250.17 778.88,-250.17 778.88,-258.33 778.88,-258.33 778.88,-262.42 774.79,-266.5 770.71,-266.5"/>
<text text-anchor="middle" x="674.88" y="-249.2" font-family="Arial" font-size="14.00" fill="#c6c5fe">components/Layout/Sidebar.js</text>
</g>
<!-- App.js&#45;&gt;components/Layout/Sidebar.js -->
<g id="edge3" class="edge">
<title>App.js&#45;&gt;components/Layout/Sidebar.js</title>
<path fill="none" stroke="#757575" d="M487.35,-203.93C501.63,-213.2 522.26,-225.3 542,-232.25 548.99,-234.71 556.28,-236.9 563.7,-238.85"/>
<polygon fill="#757575" stroke="#757575" points="562.62,-242.18 573.16,-241.17 564.28,-235.38 562.62,-242.18"/>
</g>
<!-- components/QuestionSection/index.js -->
<g id="node5" class="node">
<title>components/QuestionSection/index.js</title>
<path fill="none" stroke="#c6c5fe" d="M794.33,-100.5C794.33,-100.5 555.42,-100.5 555.42,-100.5 551.33,-100.5 547.25,-96.42 547.25,-92.33 547.25,-92.33 547.25,-84.17 547.25,-84.17 547.25,-80.08 551.33,-76 555.42,-76 555.42,-76 794.33,-76 794.33,-76 798.42,-76 802.5,-80.08 802.5,-84.17 802.5,-84.17 802.5,-92.33 802.5,-92.33 802.5,-96.42 798.42,-100.5 794.33,-100.5"/>
<text text-anchor="middle" x="674.88" y="-83.2" font-family="Arial" font-size="14.00" fill="#c6c5fe">components/QuestionSection/index.js</text>
</g>
<!-- App.js&#45;&gt;components/QuestionSection/index.js -->
<g id="edge4" class="edge">
<title>App.js&#45;&gt;components/QuestionSection/index.js</title>
<path fill="none" stroke="#757575" d="M494.09,-178.61C498.33,-175.86 502.49,-172.72 506,-169.25 527.84,-147.65 516.55,-127.45 542,-110.25 544.27,-108.72 546.62,-107.28 549.02,-105.92"/>
<polygon fill="#757575" stroke="#757575" points="550.45,-109.12 557.85,-101.53 547.34,-102.85 550.45,-109.12"/>
</g>
<!-- components/ReferenceSection/index.js -->
<g id="node6" class="node">
<title>components/ReferenceSection/index.js</title>
<path fill="none" stroke="#c6c5fe" d="M799.58,-54.5C799.58,-54.5 550.17,-54.5 550.17,-54.5 546.08,-54.5 542,-50.42 542,-46.33 542,-46.33 542,-38.17 542,-38.17 542,-34.08 546.08,-30 550.17,-30 550.17,-30 799.58,-30 799.58,-30 803.67,-30 807.75,-34.08 807.75,-38.17 807.75,-38.17 807.75,-46.33 807.75,-46.33 807.75,-50.42 803.67,-54.5 799.58,-54.5"/>
<text text-anchor="middle" x="674.88" y="-37.2" font-family="Arial" font-size="14.00" fill="#c6c5fe">components/ReferenceSection/index.js</text>
</g>
<!-- App.js&#45;&gt;components/ReferenceSection/index.js -->
<g id="edge5" class="edge">
<title>App.js&#45;&gt;components/ReferenceSection/index.js</title>
<path fill="none" stroke="#757575" d="M495.48,-178.67C499.38,-175.97 503.06,-172.83 506,-169.25 536.48,-132.08 505.52,-98.57 542,-67.25 544.87,-64.78 547.91,-62.53 551.09,-60.47"/>
<polygon fill="#757575" stroke="#757575" points="552.69,-63.59 559.66,-55.61 549.23,-57.5 552.69,-63.59"/>
</g>
<!-- components/auth/LoginPage.js -->
<g id="node7" class="node">
<title>components/auth/LoginPage.js</title>
<path fill="none" stroke="#c6c5fe" d="M772.58,-223.5C772.58,-223.5 577.17,-223.5 577.17,-223.5 573.08,-223.5 569,-219.42 569,-215.33 569,-215.33 569,-207.17 569,-207.17 569,-203.08 573.08,-199 577.17,-199 577.17,-199 772.58,-199 772.58,-199 776.67,-199 780.75,-203.08 780.75,-207.17 780.75,-207.17 780.75,-215.33 780.75,-215.33 780.75,-219.42 776.67,-223.5 772.58,-223.5"/>
<text text-anchor="middle" x="674.88" y="-206.2" font-family="Arial" font-size="14.00" fill="#c6c5fe">components/auth/LoginPage.js</text>
</g>
<!-- App.js&#45;&gt;components/auth/LoginPage.js -->
<g id="edge6" class="edge">
<title>App.js&#45;&gt;components/auth/LoginPage.js</title>
<path fill="none" stroke="#757575" d="M496.63,-193.95C512.87,-195.53 534.62,-197.66 557.32,-199.87"/>
<polygon fill="#757575" stroke="#757575" points="556.71,-203.33 567.01,-200.82 557.4,-196.36 556.71,-203.33"/>
</g>
<!-- components/auth/SignupPage.js -->
<g id="node8" class="node">
<title>components/auth/SignupPage.js</title>
<path fill="none" stroke="#c6c5fe" d="M777.08,-143.5C777.08,-143.5 572.67,-143.5 572.67,-143.5 568.58,-143.5 564.5,-139.42 564.5,-135.33 564.5,-135.33 564.5,-127.17 564.5,-127.17 564.5,-123.08 568.58,-119 572.67,-119 572.67,-119 777.08,-119 777.08,-119 781.17,-119 785.25,-123.08 785.25,-127.17 785.25,-127.17 785.25,-135.33 785.25,-135.33 785.25,-139.42 781.17,-143.5 777.08,-143.5"/>
<text text-anchor="middle" x="674.88" y="-126.2" font-family="Arial" font-size="14.00" fill="#c6c5fe">components/auth/SignupPage.js</text>
</g>
<!-- App.js&#45;&gt;components/auth/SignupPage.js -->
<g id="edge7" class="edge">
<title>App.js&#45;&gt;components/auth/SignupPage.js</title>
<path fill="none" stroke="#757575" d="M492.41,-178.58C506.45,-171.43 524.85,-162.84 542,-157.25 554.87,-153.05 568.67,-149.42 582.33,-146.32"/>
<polygon fill="#757575" stroke="#757575" points="582.73,-149.82 591.75,-144.27 581.24,-142.98 582.73,-149.82"/>
</g>
<!-- lib/hooks/useAuth.js -->
<g id="node9" class="node">
<title>lib/hooks/useAuth.js</title>
<path fill="none" stroke="#c6c5fe" d="M1116.71,-214.5C1116.71,-214.5 991.04,-214.5 991.04,-214.5 986.96,-214.5 982.88,-210.42 982.88,-206.33 982.88,-206.33 982.88,-198.17 982.88,-198.17 982.88,-194.08 986.96,-190 991.04,-190 991.04,-190 1116.71,-190 1116.71,-190 1120.79,-190 1124.88,-194.08 1124.88,-198.17 1124.88,-198.17 1124.88,-206.33 1124.88,-206.33 1124.88,-210.42 1120.79,-214.5 1116.71,-214.5"/>
<text text-anchor="middle" x="1053.88" y="-197.2" font-family="Arial" font-size="14.00" fill="#c6c5fe">lib/hooks/useAuth.js</text>
</g>
<!-- App.js&#45;&gt;lib/hooks/useAuth.js -->
<g id="edge8" class="edge">
<title>App.js&#45;&gt;lib/hooks/useAuth.js</title>
<path fill="none" stroke="#757575" d="M496.73,-190.78C510.37,-190.57 527.04,-190.35 542,-190.25 660.11,-189.44 689.67,-187.36 807.75,-190.25 862.15,-191.58 923.28,-194.57 970.89,-197.23"/>
<polygon fill="#757575" stroke="#757575" points="970.69,-200.73 980.87,-197.8 971.08,-193.74 970.69,-200.73"/>
</g>
<!-- components/AnswerSection/components/ActionBar.js -->
<g id="node11" class="node">
<title>components/AnswerSection/components/ActionBar.js</title>
<path fill="none" stroke="#cfffac" d="M1223.58,-510.5C1223.58,-510.5 884.17,-510.5 884.17,-510.5 880.08,-510.5 876,-506.42 876,-502.33 876,-502.33 876,-494.17 876,-494.17 876,-490.08 880.08,-486 884.17,-486 884.17,-486 1223.58,-486 1223.58,-486 1227.67,-486 1231.75,-490.08 1231.75,-494.17 1231.75,-494.17 1231.75,-502.33 1231.75,-502.33 1231.75,-506.42 1227.67,-510.5 1223.58,-510.5"/>
<text text-anchor="middle" x="1053.88" y="-493.2" font-family="Arial" font-size="14.00" fill="#cfffac">components/AnswerSection/components/ActionBar.js</text>
</g>
<!-- components/AnswerSection/index.js&#45;&gt;components/AnswerSection/components/ActionBar.js -->
<g id="edge11" class="edge">
<title>components/AnswerSection/index.js&#45;&gt;components/AnswerSection/components/ActionBar.js</title>
<path fill="none" stroke="#757575" d="M702.52,-424.89C735.07,-439.75 792.18,-463.93 843.75,-476.25 855.63,-479.09 867.97,-481.56 880.46,-483.71"/>
<polygon fill="#757575" stroke="#757575" points="879.53,-487.11 889.97,-485.28 880.67,-480.2 879.53,-487.11"/>
</g>
<!-- components/AnswerSection/components/Editor.js -->
<g id="node12" class="node">
<title>components/AnswerSection/components/Editor.js</title>
<path fill="none" stroke="#cfffac" d="M1211.58,-467.5C1211.58,-467.5 896.17,-467.5 896.17,-467.5 892.08,-467.5 888,-463.42 888,-459.33 888,-459.33 888,-451.17 888,-451.17 888,-447.08 892.08,-443 896.17,-443 896.17,-443 1211.58,-443 1211.58,-443 1215.67,-443 1219.75,-447.08 1219.75,-451.17 1219.75,-451.17 1219.75,-459.33 1219.75,-459.33 1219.75,-463.42 1215.67,-467.5 1211.58,-467.5"/>
<text text-anchor="middle" x="1053.88" y="-450.2" font-family="Arial" font-size="14.00" fill="#cfffac">components/AnswerSection/components/Editor.js</text>
</g>
<!-- components/AnswerSection/index.js&#45;&gt;components/AnswerSection/components/Editor.js -->
<g id="edge12" class="edge">
<title>components/AnswerSection/index.js&#45;&gt;components/AnswerSection/components/Editor.js</title>
<path fill="none" stroke="#757575" d="M774.81,-424.95C797.46,-427.77 821.43,-430.68 843.75,-433.25 867.23,-435.95 892.21,-438.7 916.43,-441.29"/>
<polygon fill="#757575" stroke="#757575" points="916.05,-444.77 926.37,-442.34 916.79,-437.81 916.05,-444.77"/>
</g>
<!-- components/AnswerSection/components/VersionComparison.js -->
<g id="node14" class="node">
<title>components/AnswerSection/components/VersionComparison.js</title>
<path fill="none" stroke="#cfffac" d="M1255.83,-424.5C1255.83,-424.5 851.92,-424.5 851.92,-424.5 847.83,-424.5 843.75,-420.42 843.75,-416.33 843.75,-416.33 843.75,-408.17 843.75,-408.17 843.75,-404.08 847.83,-400 851.92,-400 851.92,-400 1255.83,-400 1255.83,-400 1259.92,-400 1264,-404.08 1264,-408.17 1264,-408.17 1264,-416.33 1264,-416.33 1264,-420.42 1259.92,-424.5 1255.83,-424.5"/>
<text text-anchor="middle" x="1053.88" y="-407.2" font-family="Arial" font-size="14.00" fill="#cfffac">components/AnswerSection/components/VersionComparison.js</text>
</g>
<!-- components/AnswerSection/index.js&#45;&gt;components/AnswerSection/components/VersionComparison.js -->
<g id="edge13" class="edge">
<title>components/AnswerSection/index.js&#45;&gt;components/AnswerSection/components/VersionComparison.js</title>
<path fill="none" stroke="#757575" d="M798.02,-412.25C809.1,-412.25 820.53,-412.25 832.13,-412.25"/>
<polygon fill="#757575" stroke="#757575" points="831.79,-415.75 841.79,-412.25 831.79,-408.75 831.79,-415.75"/>
</g>
<!-- components/AnswerSection/components/VersionControl.js -->
<g id="node15" class="node">
<title>components/AnswerSection/components/VersionControl.js</title>
<path fill="none" stroke="#cfffac" d="M1240.08,-381.5C1240.08,-381.5 867.67,-381.5 867.67,-381.5 863.58,-381.5 859.5,-377.42 859.5,-373.33 859.5,-373.33 859.5,-365.17 859.5,-365.17 859.5,-361.08 863.58,-357 867.67,-357 867.67,-357 1240.08,-357 1240.08,-357 1244.17,-357 1248.25,-361.08 1248.25,-365.17 1248.25,-365.17 1248.25,-373.33 1248.25,-373.33 1248.25,-377.42 1244.17,-381.5 1240.08,-381.5"/>
<text text-anchor="middle" x="1053.88" y="-364.2" font-family="Arial" font-size="14.00" fill="#cfffac">components/AnswerSection/components/VersionControl.js</text>
</g>
<!-- components/AnswerSection/index.js&#45;&gt;components/AnswerSection/components/VersionControl.js -->
<g id="edge14" class="edge">
<title>components/AnswerSection/index.js&#45;&gt;components/AnswerSection/components/VersionControl.js</title>
<path fill="none" stroke="#757575" d="M774.81,-399.55C797.46,-396.73 821.43,-393.82 843.75,-391.25 867.23,-388.55 892.21,-385.8 916.43,-383.21"/>
<polygon fill="#757575" stroke="#757575" points="916.79,-386.69 926.37,-382.16 916.05,-379.73 916.79,-386.69"/>
</g>
<!-- components/AnswerSection/hooks/useAnswerGeneration.js -->
<g id="node16" class="node">
<title>components/AnswerSection/hooks/useAnswerGeneration.js</title>
<path fill="none" stroke="#c6c5fe" d="M1242.71,-338.5C1242.71,-338.5 865.04,-338.5 865.04,-338.5 860.96,-338.5 856.88,-334.42 856.88,-330.33 856.88,-330.33 856.88,-322.17 856.88,-322.17 856.88,-318.08 860.96,-314 865.04,-314 865.04,-314 1242.71,-314 1242.71,-314 1246.79,-314 1250.88,-318.08 1250.88,-322.17 1250.88,-322.17 1250.88,-330.33 1250.88,-330.33 1250.88,-334.42 1246.79,-338.5 1242.71,-338.5"/>
<text text-anchor="middle" x="1053.88" y="-321.2" font-family="Arial" font-size="14.00" fill="#c6c5fe">components/AnswerSection/hooks/useAnswerGeneration.js</text>
</g>
<!-- components/AnswerSection/index.js&#45;&gt;components/AnswerSection/hooks/useAnswerGeneration.js -->
<g id="edge15" class="edge">
<title>components/AnswerSection/index.js&#45;&gt;components/AnswerSection/hooks/useAnswerGeneration.js</title>
<path fill="none" stroke="#757575" d="M702.52,-399.61C735.07,-384.75 792.18,-360.57 843.75,-348.25 855.63,-345.41 867.97,-342.94 880.46,-340.79"/>
<polygon fill="#757575" stroke="#757575" points="880.67,-344.3 889.97,-339.22 879.53,-337.39 880.67,-344.3"/>
</g>
<!-- components/AnswerSection/hooks/useVersionHistory.js -->
<g id="node18" class="node">
<title>components/AnswerSection/hooks/useVersionHistory.js</title>
<path fill="none" stroke="#cfffac" d="M1230.33,-553.5C1230.33,-553.5 877.42,-553.5 877.42,-553.5 873.33,-553.5 869.25,-549.42 869.25,-545.33 869.25,-545.33 869.25,-537.17 869.25,-537.17 869.25,-533.08 873.33,-529 877.42,-529 877.42,-529 1230.33,-529 1230.33,-529 1234.42,-529 1238.5,-533.08 1238.5,-537.17 1238.5,-537.17 1238.5,-545.33 1238.5,-545.33 1238.5,-549.42 1234.42,-553.5 1230.33,-553.5"/>
<text text-anchor="middle" x="1053.88" y="-536.2" font-family="Arial" font-size="14.00" fill="#cfffac">components/AnswerSection/hooks/useVersionHistory.js</text>
</g>
<!-- components/AnswerSection/index.js&#45;&gt;components/AnswerSection/hooks/useVersionHistory.js -->
<g id="edge16" class="edge">
<title>components/AnswerSection/index.js&#45;&gt;components/AnswerSection/hooks/useVersionHistory.js</title>
<path fill="none" stroke="#757575" d="M690.36,-424.86C718,-448.12 781.11,-497.36 843.75,-519.25 850.62,-521.65 857.68,-523.81 864.87,-525.75"/>
<polygon fill="#757575" stroke="#757575" points="863.85,-529.1 874.4,-528.16 865.56,-522.31 863.85,-529.1"/>
</g>
<!-- components/Layout/Sidebar.js&#45;&gt;lib/hooks/useAuth.js -->
<g id="edge18" class="edge">
<title>components/Layout/Sidebar.js&#45;&gt;lib/hooks/useAuth.js</title>
<path fill="none" stroke="#757575" d="M759.08,-241.53C786.08,-237.49 816.17,-233.08 843.75,-229.25 885.83,-223.4 932.73,-217.31 971.43,-212.39"/>
<polygon fill="#757575" stroke="#757575" points="971.66,-215.89 981.14,-211.16 970.78,-208.95 971.66,-215.89"/>
</g>
<!-- services/questionApi.js -->
<g id="node17" class="node">
<title>services/questionApi.js</title>
<path fill="none" stroke="#cfffac" d="M1454.08,-295.5C1454.08,-295.5 1308.17,-295.5 1308.17,-295.5 1304.08,-295.5 1300,-291.42 1300,-287.33 1300,-287.33 1300,-279.17 1300,-279.17 1300,-275.08 1304.08,-271 1308.17,-271 1308.17,-271 1454.08,-271 1454.08,-271 1458.17,-271 1462.25,-275.08 1462.25,-279.17 1462.25,-279.17 1462.25,-287.33 1462.25,-287.33 1462.25,-291.42 1458.17,-295.5 1454.08,-295.5"/>
<text text-anchor="middle" x="1381.12" y="-278.2" font-family="Arial" font-size="14.00" fill="#cfffac">services/questionApi.js</text>
</g>
<!-- components/Layout/Sidebar.js&#45;&gt;services/questionApi.js -->
<g id="edge19" class="edge">
<title>components/Layout/Sidebar.js&#45;&gt;services/questionApi.js</title>
<path fill="none" stroke="#757575" d="M779.21,-250.51C896.89,-247.44 1094.77,-245.91 1264,-262.25 1278.71,-263.67 1294.34,-265.96 1309.22,-268.51"/>
<polygon fill="#757575" stroke="#757575" points="1308.47,-271.93 1318.93,-270.24 1309.69,-265.04 1308.47,-271.93"/>
</g>
<!-- components/QuestionSection/DropdownMenu.js -->
<g id="node20" class="node">
<title>components/QuestionSection/DropdownMenu.js</title>
<path fill="none" stroke="#cfffac" d="M1206.33,-67.5C1206.33,-67.5 901.42,-67.5 901.42,-67.5 897.33,-67.5 893.25,-63.42 893.25,-59.33 893.25,-59.33 893.25,-51.17 893.25,-51.17 893.25,-47.08 897.33,-43 901.42,-43 901.42,-43 1206.33,-43 1206.33,-43 1210.42,-43 1214.5,-47.08 1214.5,-51.17 1214.5,-51.17 1214.5,-59.33 1214.5,-59.33 1214.5,-63.42 1210.42,-67.5 1206.33,-67.5"/>
<text text-anchor="middle" x="1053.88" y="-50.2" font-family="Arial" font-size="14.00" fill="#cfffac">components/QuestionSection/DropdownMenu.js</text>
</g>
<!-- components/QuestionSection/index.js&#45;&gt;components/QuestionSection/DropdownMenu.js -->
<g id="edge20" class="edge">
<title>components/QuestionSection/index.js&#45;&gt;components/QuestionSection/DropdownMenu.js</title>
<path fill="none" stroke="#757575" d="M802.98,-77.12C832.87,-74.51 865.08,-71.69 896.1,-68.97"/>
<polygon fill="#757575" stroke="#757575" points="896.3,-72.47 905.96,-68.11 895.69,-65.5 896.3,-72.47"/>
</g>
<!-- components/QuestionSection/QuestionInput.js -->
<g id="node21" class="node">
<title>components/QuestionSection/QuestionInput.js</title>
<path fill="none" stroke="#cfffac" d="M1200.71,-110.5C1200.71,-110.5 907.04,-110.5 907.04,-110.5 902.96,-110.5 898.88,-106.42 898.88,-102.33 898.88,-102.33 898.88,-94.17 898.88,-94.17 898.88,-90.08 902.96,-86 907.04,-86 907.04,-86 1200.71,-86 1200.71,-86 1204.79,-86 1208.88,-90.08 1208.88,-94.17 1208.88,-94.17 1208.88,-102.33 1208.88,-102.33 1208.88,-106.42 1204.79,-110.5 1200.71,-110.5"/>
<text text-anchor="middle" x="1053.88" y="-93.2" font-family="Arial" font-size="14.00" fill="#cfffac">components/QuestionSection/QuestionInput.js</text>
</g>
<!-- components/QuestionSection/index.js&#45;&gt;components/QuestionSection/QuestionInput.js -->
<g id="edge21" class="edge">
<title>components/QuestionSection/index.js&#45;&gt;components/QuestionSection/QuestionInput.js</title>
<path fill="none" stroke="#757575" d="M802.98,-91.62C830.06,-92.34 859.04,-93.11 887.32,-93.86"/>
<polygon fill="#757575" stroke="#757575" points="886.94,-97.35 897.03,-94.12 887.12,-90.35 886.94,-97.35"/>
</g>
<!-- services/referenceApi.js -->
<g id="node22" class="node">
<title>services/referenceApi.js</title>
<path fill="none" stroke="#cfffac" d="M1130.58,-24.5C1130.58,-24.5 977.17,-24.5 977.17,-24.5 973.08,-24.5 969,-20.42 969,-16.33 969,-16.33 969,-8.17 969,-8.17 969,-4.08 973.08,0 977.17,0 977.17,0 1130.58,0 1130.58,0 1134.67,0 1138.75,-4.08 1138.75,-8.17 1138.75,-8.17 1138.75,-16.33 1138.75,-16.33 1138.75,-20.42 1134.67,-24.5 1130.58,-24.5"/>
<text text-anchor="middle" x="1053.88" y="-7.2" font-family="Arial" font-size="14.00" fill="#cfffac">services/referenceApi.js</text>
</g>
<!-- components/ReferenceSection/index.js&#45;&gt;services/referenceApi.js -->
<g id="edge22" class="edge">
<title>components/ReferenceSection/index.js&#45;&gt;services/referenceApi.js</title>
<path fill="none" stroke="#757575" d="M808,-31.74C857.21,-27.82 912.06,-23.46 957.36,-19.85"/>
<polygon fill="#757575" stroke="#757575" points="957.46,-23.35 967.15,-19.07 956.91,-16.38 957.46,-23.35"/>
</g>
<!-- components/auth/LoginPage.js&#45;&gt;lib/hooks/useAuth.js -->
<g id="edge23" class="edge">
<title>components/auth/LoginPage.js&#45;&gt;lib/hooks/useAuth.js</title>
<path fill="none" stroke="#757575" d="M781.14,-208.74C841.27,-207.3 915.53,-205.53 971.21,-204.2"/>
<polygon fill="#757575" stroke="#757575" points="971.02,-207.71 980.94,-203.97 970.85,-200.71 971.02,-207.71"/>
</g>
<!-- components/auth/SignupPage.js&#45;&gt;lib/hooks/useAuth.js -->
<g id="edge25" class="edge">
<title>components/auth/SignupPage.js&#45;&gt;lib/hooks/useAuth.js</title>
<path fill="none" stroke="#757575" d="M743.28,-143.94C808.08,-156.15 905.99,-174.59 974.3,-187.45"/>
<polygon fill="#757575" stroke="#757575" points="973.46,-190.86 983.94,-189.27 974.76,-183.98 973.46,-190.86"/>
</g>
<!-- components/auth/AuthLayout.js -->
<g id="node23" class="node">
<title>components/auth/AuthLayout.js</title>
<path fill="none" stroke="#cfffac" d="M1152.33,-153.5C1152.33,-153.5 955.42,-153.5 955.42,-153.5 951.33,-153.5 947.25,-149.42 947.25,-145.33 947.25,-145.33 947.25,-137.17 947.25,-137.17 947.25,-133.08 951.33,-129 955.42,-129 955.42,-129 1152.33,-129 1152.33,-129 1156.42,-129 1160.5,-133.08 1160.5,-137.17 1160.5,-137.17 1160.5,-145.33 1160.5,-145.33 1160.5,-149.42 1156.42,-153.5 1152.33,-153.5"/>
<text text-anchor="middle" x="1053.88" y="-136.2" font-family="Arial" font-size="14.00" fill="#cfffac">components/auth/AuthLayout.js</text>
</g>
<!-- components/auth/SignupPage.js&#45;&gt;components/auth/AuthLayout.js -->
<g id="edge24" class="edge">
<title>components/auth/SignupPage.js&#45;&gt;components/auth/AuthLayout.js</title>
<path fill="none" stroke="#757575" d="M785.68,-134.16C832.67,-135.41 887.61,-136.87 935.41,-138.13"/>
<polygon fill="#757575" stroke="#757575" points="935.16,-141.63 945.25,-138.4 935.35,-134.63 935.16,-141.63"/>
</g>
<!-- services/auth.js -->
<g id="node26" class="node">
<title>services/auth.js</title>
<path fill="none" stroke="#cfffac" d="M1429.71,-214.5C1429.71,-214.5 1332.54,-214.5 1332.54,-214.5 1328.46,-214.5 1324.38,-210.42 1324.38,-206.33 1324.38,-206.33 1324.38,-198.17 1324.38,-198.17 1324.38,-194.08 1328.46,-190 1332.54,-190 1332.54,-190 1429.71,-190 1429.71,-190 1433.79,-190 1437.88,-194.08 1437.88,-198.17 1437.88,-198.17 1437.88,-206.33 1437.88,-206.33 1437.88,-210.42 1433.79,-214.5 1429.71,-214.5"/>
<text text-anchor="middle" x="1381.12" y="-197.2" font-family="Arial" font-size="14.00" fill="#cfffac">services/auth.js</text>
</g>
<!-- lib/hooks/useAuth.js&#45;&gt;services/auth.js -->
<g id="edge28" class="edge">
<title>lib/hooks/useAuth.js&#45;&gt;services/auth.js</title>
<path fill="none" stroke="#757575" d="M1125.05,-202.25C1180.67,-202.25 1257.88,-202.25 1312.76,-202.25"/>
<polygon fill="#757575" stroke="#757575" points="1312.6,-205.75 1322.6,-202.25 1312.6,-198.75 1312.6,-205.75"/>
</g>
<!-- App.test.js -->
<g id="node10" class="node">
<title>App.test.js</title>
<path fill="none" stroke="#c6c5fe" d="M230.58,-203.5C230.58,-203.5 163.42,-203.5 163.42,-203.5 159.33,-203.5 155.25,-199.42 155.25,-195.33 155.25,-195.33 155.25,-187.17 155.25,-187.17 155.25,-183.08 159.33,-179 163.42,-179 163.42,-179 230.58,-179 230.58,-179 234.67,-179 238.75,-183.08 238.75,-187.17 238.75,-187.17 238.75,-195.33 238.75,-195.33 238.75,-199.42 234.67,-203.5 230.58,-203.5"/>
<text text-anchor="middle" x="197" y="-186.2" font-family="Arial" font-size="14.00" fill="#c6c5fe">App.test.js</text>
</g>
<!-- App.test.js&#45;&gt;App.js -->
<g id="edge9" class="edge">
<title>App.test.js&#45;&gt;App.js</title>
<path fill="none" stroke="#757575" d="M239.15,-191.25C290.52,-191.25 377.73,-191.25 428.05,-191.25"/>
<polygon fill="#757575" stroke="#757575" points="427.89,-194.75 437.89,-191.25 427.89,-187.75 427.89,-194.75"/>
</g>
<!-- components/AnswerSection/components/SourcesDisplay.js -->
<g id="node13" class="node">
<title>components/AnswerSection/components/SourcesDisplay.js</title>
<path fill="none" stroke="#cfffac" d="M385.83,-246.5C385.83,-246.5 8.17,-246.5 8.17,-246.5 4.08,-246.5 0,-242.42 0,-238.33 0,-238.33 0,-230.17 0,-230.17 0,-226.08 4.08,-222 8.17,-222 8.17,-222 385.83,-222 385.83,-222 389.92,-222 394,-226.08 394,-230.17 394,-230.17 394,-238.33 394,-238.33 394,-242.42 389.92,-246.5 385.83,-246.5"/>
<text text-anchor="middle" x="197" y="-229.2" font-family="Arial" font-size="14.00" fill="#cfffac">components/AnswerSection/components/SourcesDisplay.js</text>
</g>
<!-- components/AnswerSection/hooks/useAnswerGeneration.js&#45;&gt;services/questionApi.js -->
<g id="edge10" class="edge">
<title>components/AnswerSection/hooks/useAnswerGeneration.js&#45;&gt;services/questionApi.js</title>
<path fill="none" stroke="#757575" d="M1190.05,-313.51C1214.69,-310.77 1240.15,-307.66 1264,-304.25 1276.83,-302.42 1290.42,-300.21 1303.6,-297.92"/>
<polygon fill="#757575" stroke="#757575" points="1303.82,-301.43 1313.06,-296.25 1302.6,-294.54 1303.82,-301.43"/>
</g>
<!-- components/Layout/QuestionHistory.js -->
<g id="node19" class="node">
<title>components/Layout/QuestionHistory.js</title>
<path fill="none" stroke="#c6c5fe" d="M1175.21,-295.5C1175.21,-295.5 932.54,-295.5 932.54,-295.5 928.46,-295.5 924.38,-291.42 924.38,-287.33 924.38,-287.33 924.38,-279.17 924.38,-279.17 924.38,-275.08 928.46,-271 932.54,-271 932.54,-271 1175.21,-271 1175.21,-271 1179.29,-271 1183.38,-275.08 1183.38,-279.17 1183.38,-279.17 1183.38,-287.33 1183.38,-287.33 1183.38,-291.42 1179.29,-295.5 1175.21,-295.5"/>
<text text-anchor="middle" x="1053.88" y="-278.2" font-family="Arial" font-size="14.00" fill="#c6c5fe">components/Layout/QuestionHistory.js</text>
</g>
<!-- components/Layout/QuestionHistory.js&#45;&gt;services/questionApi.js -->
<g id="edge17" class="edge">
<title>components/Layout/QuestionHistory.js&#45;&gt;services/questionApi.js</title>
<path fill="none" stroke="#757575" d="M1183.42,-283.25C1218.53,-283.25 1255.85,-283.25 1288.44,-283.25"/>
<polygon fill="#757575" stroke="#757575" points="1288.25,-286.75 1298.25,-283.25 1288.25,-279.75 1288.25,-286.75"/>
</g>
<!-- index.css -->
<g id="node24" class="node">
<title>index.css</title>
<path fill="none" stroke="#cfffac" d="M497.83,-160.5C497.83,-160.5 438.17,-160.5 438.17,-160.5 434.08,-160.5 430,-156.42 430,-152.33 430,-152.33 430,-144.17 430,-144.17 430,-140.08 434.08,-136 438.17,-136 438.17,-136 497.83,-136 497.83,-136 501.92,-136 506,-140.08 506,-144.17 506,-144.17 506,-152.33 506,-152.33 506,-156.42 501.92,-160.5 497.83,-160.5"/>
<text text-anchor="middle" x="468" y="-143.2" font-family="Arial" font-size="14.00" fill="#cfffac">index.css</text>
</g>
<!-- index.js -->
<g id="node25" class="node">
<title>index.js</title>
<path fill="none" stroke="#c6c5fe" d="M220.83,-160.5C220.83,-160.5 173.17,-160.5 173.17,-160.5 169.08,-160.5 165,-156.42 165,-152.33 165,-152.33 165,-144.17 165,-144.17 165,-140.08 169.08,-136 173.17,-136 173.17,-136 220.83,-136 220.83,-136 224.92,-136 229,-140.08 229,-144.17 229,-144.17 229,-152.33 229,-152.33 229,-156.42 224.92,-160.5 220.83,-160.5"/>
<text text-anchor="middle" x="197" y="-143.2" font-family="Arial" font-size="14.00" fill="#c6c5fe">index.js</text>
</g>
<!-- index.js&#45;&gt;App.js -->
<g id="edge26" class="edge">
<title>index.js&#45;&gt;App.js</title>
<path fill="none" stroke="#757575" d="M229.48,-150.15C268.41,-152.86 336.57,-158.85 394,-170.25 405.45,-172.52 417.7,-175.73 428.84,-178.96"/>
<polygon fill="#757575" stroke="#757575" points="427.5,-182.21 438.09,-181.73 429.51,-175.51 427.5,-182.21"/>
</g>
<!-- index.js&#45;&gt;index.css -->
<g id="edge27" class="edge">
<title>index.js&#45;&gt;index.css</title>
<path fill="none" stroke="#757575" d="M229.38,-148.25C275.96,-148.25 363.78,-148.25 418.62,-148.25"/>
<polygon fill="#757575" stroke="#757575" points="418.29,-151.75 428.29,-148.25 418.29,-144.75 418.29,-151.75"/>
</g>
<!-- lib/utils.js -->
<g id="node27" class="node">
<title>lib/utils.js</title>
<path fill="none" stroke="#cfffac" d="M225.33,-289.5C225.33,-289.5 168.67,-289.5 168.67,-289.5 164.58,-289.5 160.5,-285.42 160.5,-281.33 160.5,-281.33 160.5,-273.17 160.5,-273.17 160.5,-269.08 164.58,-265 168.67,-265 168.67,-265 225.33,-265 225.33,-265 229.42,-265 233.5,-269.08 233.5,-273.17 233.5,-273.17 233.5,-281.33 233.5,-281.33 233.5,-285.42 229.42,-289.5 225.33,-289.5"/>
<text text-anchor="middle" x="197" y="-272.2" font-family="Arial" font-size="14.00" fill="#cfffac">lib/utils.js</text>
</g>
<!-- reportWebVitals.js -->
<g id="node28" class="node">
<title>reportWebVitals.js</title>
<path fill="none" stroke="#cfffac" d="M255.33,-332.5C255.33,-332.5 138.67,-332.5 138.67,-332.5 134.58,-332.5 130.5,-328.42 130.5,-324.33 130.5,-324.33 130.5,-316.17 130.5,-316.17 130.5,-312.08 134.58,-308 138.67,-308 138.67,-308 255.33,-308 255.33,-308 259.42,-308 263.5,-312.08 263.5,-316.17 263.5,-316.17 263.5,-324.33 263.5,-324.33 263.5,-328.42 259.42,-332.5 255.33,-332.5"/>
<text text-anchor="middle" x="197" y="-315.2" font-family="Arial" font-size="14.00" fill="#cfffac">reportWebVitals.js</text>
</g>
<!-- services/answerApi.js -->
<g id="node29" class="node">
<title>services/answerApi.js</title>
<path fill="none" stroke="#cfffac" d="M265.46,-375.5C265.46,-375.5 128.54,-375.5 128.54,-375.5 124.46,-375.5 120.38,-371.42 120.38,-367.33 120.38,-367.33 120.38,-359.17 120.38,-359.17 120.38,-355.08 124.46,-351 128.54,-351 128.54,-351 265.46,-351 265.46,-351 269.54,-351 273.62,-355.08 273.62,-359.17 273.62,-359.17 273.62,-367.33 273.62,-367.33 273.62,-371.42 269.54,-375.5 265.46,-375.5"/>
<text text-anchor="middle" x="197" y="-358.2" font-family="Arial" font-size="14.00" fill="#cfffac">services/answerApi.js</text>
</g>
<!-- services/versionHistoryApi.js -->
<g id="node30" class="node">
<title>services/versionHistoryApi.js</title>
<path fill="none" stroke="#cfffac" d="M287.58,-418.5C287.58,-418.5 106.42,-418.5 106.42,-418.5 102.33,-418.5 98.25,-414.42 98.25,-410.33 98.25,-410.33 98.25,-402.17 98.25,-402.17 98.25,-398.08 102.33,-394 106.42,-394 106.42,-394 287.58,-394 287.58,-394 291.67,-394 295.75,-398.08 295.75,-402.17 295.75,-402.17 295.75,-410.33 295.75,-410.33 295.75,-414.42 291.67,-418.5 287.58,-418.5"/>
<text text-anchor="middle" x="197" y="-401.2" font-family="Arial" font-size="14.00" fill="#cfffac">services/versionHistoryApi.js</text>
</g>
<!-- setupTests.js -->
<g id="node31" class="node">
<title>setupTests.js</title>
<path fill="none" stroke="#cfffac" d="M239.58,-461.5C239.58,-461.5 154.42,-461.5 154.42,-461.5 150.33,-461.5 146.25,-457.42 146.25,-453.33 146.25,-453.33 146.25,-445.17 146.25,-445.17 146.25,-441.08 150.33,-437 154.42,-437 154.42,-437 239.58,-437 239.58,-437 243.67,-437 247.75,-441.08 247.75,-445.17 247.75,-445.17 247.75,-453.33 247.75,-453.33 247.75,-457.42 243.67,-461.5 239.58,-461.5"/>
<text text-anchor="middle" x="197" y="-444.2" font-family="Arial" font-size="14.00" fill="#cfffac">setupTests.js</text>
</g>
</g>
</svg>
