<?xml version="1.0" encoding="UTF-8" standalone="no"?>
<!DOCTYPE svg PUBLIC "-//W3C//DTD SVG 1.1//EN"
 "http://www.w3.org/Graphics/SVG/1.1/DTD/svg11.dtd">
<!-- Generated by graphviz version 11.0.0 (20240428.1522)
 -->
<!-- Title: G Pages: 1 -->
<svg width="1591pt" height="577pt"
 viewBox="0.00 0.00 1590.95 576.70" xmlns="http://www.w3.org/2000/svg" xmlns:xlink="http://www.w3.org/1999/xlink">
<g id="graph0" class="graph" transform="scale(1 1) rotate(0) translate(21.6 555.1)">
<title>G</title>
<polygon fill="#111111" stroke="none" points="-21.6,21.6 -21.6,-555.1 1569.35,-555.1 1569.35,21.6 -21.6,21.6"/>
<!-- App.js -->
<g id="node1" class="node">
<title>App.js</title>
<path fill="none" stroke="#c6c5fe" d="M534.96,-168.5C534.96,-168.5 494.79,-168.5 494.79,-168.5 490.71,-168.5 486.62,-164.42 486.62,-160.33 486.62,-160.33 486.62,-152.17 486.62,-152.17 486.62,-148.08 490.71,-144 494.79,-144 494.79,-144 534.96,-144 534.96,-144 539.04,-144 543.12,-148.08 543.12,-152.17 543.12,-152.17 543.12,-160.33 543.12,-160.33 543.12,-164.42 539.04,-168.5 534.96,-168.5"/>
<text text-anchor="middle" x="514.88" y="-151.2" font-family="Arial" font-size="14.00" fill="#c6c5fe">App.js</text>
</g>
<!-- components/AnswerSection/index.js -->
<g id="node2" class="node">
<title>components/AnswerSection/index.js</title>
<path fill="none" stroke="#c6c5fe" d="M879.08,-339.5C879.08,-339.5 649.92,-339.5 649.92,-339.5 645.83,-339.5 641.75,-335.42 641.75,-331.33 641.75,-331.33 641.75,-323.17 641.75,-323.17 641.75,-319.08 645.83,-315 649.92,-315 649.92,-315 879.08,-315 879.08,-315 883.17,-315 887.25,-319.08 887.25,-323.17 887.25,-323.17 887.25,-331.33 887.25,-331.33 887.25,-335.42 883.17,-339.5 879.08,-339.5"/>
<text text-anchor="middle" x="764.5" y="-322.2" font-family="Arial" font-size="14.00" fill="#c6c5fe">components/AnswerSection/index.js</text>
</g>
<!-- App.js&#45;&gt;components/AnswerSection/index.js -->
<g id="edge1" class="edge">
<title>App.js&#45;&gt;components/AnswerSection/index.js</title>
<path fill="none" stroke="#757575" d="M536.74,-168.99C554.97,-180.86 581.34,-199.91 599.75,-221.25 621.07,-245.96 610.54,-264.53 635.75,-285.25 649.57,-296.61 666.55,-304.93 683.57,-311.01"/>
<polygon fill="#757575" stroke="#757575" points="682.12,-314.22 692.71,-314.04 684.32,-307.57 682.12,-314.22"/>
</g>
<!-- components/Layout/ResizablePanel.js -->
<g id="node3" class="node">
<title>components/Layout/ResizablePanel.js</title>
<path fill="none" stroke="#cfffac" d="M885.08,-276.5C885.08,-276.5 643.92,-276.5 643.92,-276.5 639.83,-276.5 635.75,-272.42 635.75,-268.33 635.75,-268.33 635.75,-260.17 635.75,-260.17 635.75,-256.08 639.83,-252 643.92,-252 643.92,-252 885.08,-252 885.08,-252 889.17,-252 893.25,-256.08 893.25,-260.17 893.25,-260.17 893.25,-268.33 893.25,-268.33 893.25,-272.42 889.17,-276.5 885.08,-276.5"/>
<text text-anchor="middle" x="764.5" y="-259.2" font-family="Arial" font-size="14.00" fill="#cfffac">components/Layout/ResizablePanel.js</text>
</g>
<!-- App.js&#45;&gt;components/Layout/ResizablePanel.js -->
<g id="edge2" class="edge">
<title>App.js&#45;&gt;components/Layout/ResizablePanel.js</title>
<path fill="none" stroke="#757575" d="M531.62,-168.92C558.72,-190.48 613.42,-232.9 635.75,-242.25 641.26,-244.56 647.01,-246.62 652.88,-248.47"/>
<polygon fill="#757575" stroke="#757575" points="651.52,-251.72 662.1,-251.15 653.47,-245 651.52,-251.72"/>
</g>
<!-- components/Layout/Sidebar.js -->
<g id="node4" class="node">
<title>components/Layout/Sidebar.js</title>
<path fill="none" stroke="#c6c5fe" d="M860.33,-147.5C860.33,-147.5 668.67,-147.5 668.67,-147.5 664.58,-147.5 660.5,-143.42 660.5,-139.33 660.5,-139.33 660.5,-131.17 660.5,-131.17 660.5,-127.08 664.58,-123 668.67,-123 668.67,-123 860.33,-123 860.33,-123 864.42,-123 868.5,-127.08 868.5,-131.17 868.5,-131.17 868.5,-139.33 868.5,-139.33 868.5,-143.42 864.42,-147.5 860.33,-147.5"/>
<text text-anchor="middle" x="764.5" y="-130.2" font-family="Arial" font-size="14.00" fill="#c6c5fe">components/Layout/Sidebar.js</text>
</g>
<!-- App.js&#45;&gt;components/Layout/Sidebar.js -->
<g id="edge3" class="edge">
<title>App.js&#45;&gt;components/Layout/Sidebar.js</title>
<path fill="none" stroke="#757575" d="M543.32,-153.92C569.16,-151.73 609.66,-148.3 648.92,-144.97"/>
<polygon fill="#757575" stroke="#757575" points="649.04,-148.47 658.71,-144.14 648.45,-141.49 649.04,-148.47"/>
</g>
<!-- components/Layout/Splitter.js -->
<g id="node5" class="node">
<title>components/Layout/Splitter.js</title>
<path fill="none" stroke="#cfffac" d="M857.71,-190.5C857.71,-190.5 671.29,-190.5 671.29,-190.5 667.21,-190.5 663.12,-186.42 663.12,-182.33 663.12,-182.33 663.12,-174.17 663.12,-174.17 663.12,-170.08 667.21,-166 671.29,-166 671.29,-166 857.71,-166 857.71,-166 861.79,-166 865.88,-170.08 865.88,-174.17 865.88,-174.17 865.88,-182.33 865.88,-182.33 865.88,-186.42 861.79,-190.5 857.71,-190.5"/>
<text text-anchor="middle" x="764.5" y="-173.2" font-family="Arial" font-size="14.00" fill="#cfffac">components/Layout/Splitter.js</text>
</g>
<!-- App.js&#45;&gt;components/Layout/Splitter.js -->
<g id="edge4" class="edge">
<title>App.js&#45;&gt;components/Layout/Splitter.js</title>
<path fill="none" stroke="#757575" d="M543.32,-158.69C569.74,-161.04 611.47,-164.74 651.53,-168.3"/>
<polygon fill="#757575" stroke="#757575" points="650.99,-171.77 661.26,-169.17 651.61,-164.8 650.99,-171.77"/>
</g>
<!-- components/QuestionSection/index.js -->
<g id="node6" class="node">
<title>components/QuestionSection/index.js</title>
<path fill="none" stroke="#c6c5fe" d="M883.96,-233.5C883.96,-233.5 645.04,-233.5 645.04,-233.5 640.96,-233.5 636.88,-229.42 636.88,-225.33 636.88,-225.33 636.88,-217.17 636.88,-217.17 636.88,-213.08 640.96,-209 645.04,-209 645.04,-209 883.96,-209 883.96,-209 888.04,-209 892.12,-213.08 892.12,-217.17 892.12,-217.17 892.12,-225.33 892.12,-225.33 892.12,-229.42 888.04,-233.5 883.96,-233.5"/>
<text text-anchor="middle" x="764.5" y="-216.2" font-family="Arial" font-size="14.00" fill="#c6c5fe">components/QuestionSection/index.js</text>
</g>
<!-- App.js&#45;&gt;components/QuestionSection/index.js -->
<g id="edge5" class="edge">
<title>App.js&#45;&gt;components/QuestionSection/index.js</title>
<path fill="none" stroke="#757575" d="M543.54,-167.73C567.56,-177.32 603.46,-190.75 635.75,-199.25 645.58,-201.84 655.92,-204.2 666.28,-206.33"/>
<polygon fill="#757575" stroke="#757575" points="665.53,-209.75 676.02,-208.26 666.89,-202.88 665.53,-209.75"/>
</g>
<!-- components/auth/LoginPage.js -->
<g id="node7" class="node">
<title>components/auth/LoginPage.js</title>
<path fill="none" stroke="#c6c5fe" d="M862.21,-104.5C862.21,-104.5 666.79,-104.5 666.79,-104.5 662.71,-104.5 658.62,-100.42 658.62,-96.33 658.62,-96.33 658.62,-88.17 658.62,-88.17 658.62,-84.08 662.71,-80 666.79,-80 666.79,-80 862.21,-80 862.21,-80 866.29,-80 870.38,-84.08 870.38,-88.17 870.38,-88.17 870.38,-96.33 870.38,-96.33 870.38,-100.42 866.29,-104.5 862.21,-104.5"/>
<text text-anchor="middle" x="764.5" y="-87.2" font-family="Arial" font-size="14.00" fill="#c6c5fe">components/auth/LoginPage.js</text>
</g>
<!-- App.js&#45;&gt;components/auth/LoginPage.js -->
<g id="edge6" class="edge">
<title>App.js&#45;&gt;components/auth/LoginPage.js</title>
<path fill="none" stroke="#757575" d="M543.25,-150.89C559.91,-147.19 581.45,-141.6 599.75,-134.25 616.74,-127.43 618.49,-120.33 635.75,-114.25 642.74,-111.79 650.04,-109.59 657.46,-107.64"/>
<polygon fill="#757575" stroke="#757575" points="658.06,-111.1 666.93,-105.31 656.38,-104.3 658.06,-111.1"/>
</g>
<!-- components/auth/SignupPage.js -->
<g id="node8" class="node">
<title>components/auth/SignupPage.js</title>
<path fill="none" stroke="#c6c5fe" d="M866.71,-24.5C866.71,-24.5 662.29,-24.5 662.29,-24.5 658.21,-24.5 654.12,-20.42 654.12,-16.33 654.12,-16.33 654.12,-8.17 654.12,-8.17 654.12,-4.08 658.21,0 662.29,0 662.29,0 866.71,0 866.71,0 870.79,0 874.88,-4.08 874.88,-8.17 874.88,-8.17 874.88,-16.33 874.88,-16.33 874.88,-20.42 870.79,-24.5 866.71,-24.5"/>
<text text-anchor="middle" x="764.5" y="-7.2" font-family="Arial" font-size="14.00" fill="#c6c5fe">components/auth/SignupPage.js</text>
</g>
<!-- App.js&#45;&gt;components/auth/SignupPage.js -->
<g id="edge7" class="edge">
<title>App.js&#45;&gt;components/auth/SignupPage.js</title>
<path fill="none" stroke="#757575" d="M543.47,-155.37C561.5,-153.4 584.44,-148.07 599.75,-134.25 633.58,-103.72 601.09,-67.83 635.75,-38.25 639.19,-35.32 642.86,-32.68 646.72,-30.32"/>
<polygon fill="#757575" stroke="#757575" points="648.17,-33.52 655.33,-25.7 644.86,-27.35 648.17,-33.52"/>
</g>
<!-- lib/hooks/useAuth.js -->
<g id="node9" class="node">
<title>lib/hooks/useAuth.js</title>
<path fill="none" stroke="#c6c5fe" d="M1202.21,-86.5C1202.21,-86.5 1076.54,-86.5 1076.54,-86.5 1072.46,-86.5 1068.38,-82.42 1068.38,-78.33 1068.38,-78.33 1068.38,-70.17 1068.38,-70.17 1068.38,-66.08 1072.46,-62 1076.54,-62 1076.54,-62 1202.21,-62 1202.21,-62 1206.29,-62 1210.38,-66.08 1210.38,-70.17 1210.38,-70.17 1210.38,-78.33 1210.38,-78.33 1210.38,-82.42 1206.29,-86.5 1202.21,-86.5"/>
<text text-anchor="middle" x="1139.38" y="-69.2" font-family="Arial" font-size="14.00" fill="#c6c5fe">lib/hooks/useAuth.js</text>
</g>
<!-- App.js&#45;&gt;lib/hooks/useAuth.js -->
<g id="edge8" class="edge">
<title>App.js&#45;&gt;lib/hooks/useAuth.js</title>
<path fill="none" stroke="#757575" d="M543.57,-154.44C561.18,-152.06 583.62,-146.62 599.75,-134.25 625.34,-114.63 607.86,-87.44 635.75,-71.25 705.01,-31.06 933.27,-50.03 1056.97,-64"/>
<polygon fill="#757575" stroke="#757575" points="1056.41,-67.46 1066.74,-65.12 1057.21,-60.5 1056.41,-67.46"/>
</g>
<!-- components/AnswerSection/components/ActionBar.js -->
<g id="node11" class="node">
<title>components/AnswerSection/components/ActionBar.js</title>
<path fill="none" stroke="#cfffac" d="M1309.08,-490.5C1309.08,-490.5 969.67,-490.5 969.67,-490.5 965.58,-490.5 961.5,-486.42 961.5,-482.33 961.5,-482.33 961.5,-474.17 961.5,-474.17 961.5,-470.08 965.58,-466 969.67,-466 969.67,-466 1309.08,-466 1309.08,-466 1313.17,-466 1317.25,-470.08 1317.25,-474.17 1317.25,-474.17 1317.25,-482.33 1317.25,-482.33 1317.25,-486.42 1313.17,-490.5 1309.08,-490.5"/>
<text text-anchor="middle" x="1139.38" y="-473.2" font-family="Arial" font-size="14.00" fill="#cfffac">components/AnswerSection/components/ActionBar.js</text>
</g>
<!-- components/AnswerSection/index.js&#45;&gt;components/AnswerSection/components/ActionBar.js -->
<g id="edge11" class="edge">
<title>components/AnswerSection/index.js&#45;&gt;components/AnswerSection/components/ActionBar.js</title>
<path fill="none" stroke="#757575" d="M776.68,-339.96C801.21,-366.86 862.87,-429.27 929.25,-456.25 936.04,-459.01 943.06,-461.47 950.22,-463.67"/>
<polygon fill="#757575" stroke="#757575" points="949.15,-467.01 959.73,-466.38 951.08,-460.27 949.15,-467.01"/>
</g>
<!-- components/AnswerSection/components/Editor.js -->
<g id="node12" class="node">
<title>components/AnswerSection/components/Editor.js</title>
<path fill="none" stroke="#cfffac" d="M1297.08,-447.5C1297.08,-447.5 981.67,-447.5 981.67,-447.5 977.58,-447.5 973.5,-443.42 973.5,-439.33 973.5,-439.33 973.5,-431.17 973.5,-431.17 973.5,-427.08 977.58,-423 981.67,-423 981.67,-423 1297.08,-423 1297.08,-423 1301.17,-423 1305.25,-427.08 1305.25,-431.17 1305.25,-431.17 1305.25,-439.33 1305.25,-439.33 1305.25,-443.42 1301.17,-447.5 1297.08,-447.5"/>
<text text-anchor="middle" x="1139.38" y="-430.2" font-family="Arial" font-size="14.00" fill="#cfffac">components/AnswerSection/components/Editor.js</text>
</g>
<!-- components/AnswerSection/index.js&#45;&gt;components/AnswerSection/components/Editor.js -->
<g id="edge12" class="edge">
<title>components/AnswerSection/index.js&#45;&gt;components/AnswerSection/components/Editor.js</title>
<path fill="none" stroke="#757575" d="M783.65,-339.77C812.85,-359.18 872.7,-396.12 929.25,-413.25 939.8,-416.45 950.76,-419.19 961.91,-421.56"/>
<polygon fill="#757575" stroke="#757575" points="961.12,-424.97 971.61,-423.49 962.49,-418.1 961.12,-424.97"/>
</g>
<!-- components/AnswerSection/components/VersionComparison.js -->
<g id="node14" class="node">
<title>components/AnswerSection/components/VersionComparison.js</title>
<path fill="none" stroke="#cfffac" d="M1341.33,-404.5C1341.33,-404.5 937.42,-404.5 937.42,-404.5 933.33,-404.5 929.25,-400.42 929.25,-396.33 929.25,-396.33 929.25,-388.17 929.25,-388.17 929.25,-384.08 933.33,-380 937.42,-380 937.42,-380 1341.33,-380 1341.33,-380 1345.42,-380 1349.5,-384.08 1349.5,-388.17 1349.5,-388.17 1349.5,-396.33 1349.5,-396.33 1349.5,-400.42 1345.42,-404.5 1341.33,-404.5"/>
<text text-anchor="middle" x="1139.38" y="-387.2" font-family="Arial" font-size="14.00" fill="#cfffac">components/AnswerSection/components/VersionComparison.js</text>
</g>
<!-- components/AnswerSection/index.js&#45;&gt;components/AnswerSection/components/VersionComparison.js -->
<g id="edge13" class="edge">
<title>components/AnswerSection/index.js&#45;&gt;components/AnswerSection/components/VersionComparison.js</title>
<path fill="none" stroke="#757575" d="M806.84,-339.97C839.71,-349.63 887.04,-362.53 929.25,-370.25 945.38,-373.2 962.28,-375.79 979.2,-378.06"/>
<polygon fill="#757575" stroke="#757575" points="978.44,-381.49 988.81,-379.31 979.34,-374.55 978.44,-381.49"/>
</g>
<!-- components/AnswerSection/components/VersionControl.js -->
<g id="node15" class="node">
<title>components/AnswerSection/components/VersionControl.js</title>
<path fill="none" stroke="#cfffac" d="M1325.58,-361.5C1325.58,-361.5 953.17,-361.5 953.17,-361.5 949.08,-361.5 945,-357.42 945,-353.33 945,-353.33 945,-345.17 945,-345.17 945,-341.08 949.08,-337 953.17,-337 953.17,-337 1325.58,-337 1325.58,-337 1329.67,-337 1333.75,-341.08 1333.75,-345.17 1333.75,-345.17 1333.75,-353.33 1333.75,-353.33 1333.75,-357.42 1329.67,-361.5 1325.58,-361.5"/>
<text text-anchor="middle" x="1139.38" y="-344.2" font-family="Arial" font-size="14.00" fill="#cfffac">components/AnswerSection/components/VersionControl.js</text>
</g>
<!-- components/AnswerSection/index.js&#45;&gt;components/AnswerSection/components/VersionControl.js -->
<g id="edge14" class="edge">
<title>components/AnswerSection/index.js&#45;&gt;components/AnswerSection/components/VersionControl.js</title>
<path fill="none" stroke="#757575" d="M887.59,-334.45C902.38,-335.33 917.78,-336.23 933.35,-337.15"/>
<polygon fill="#757575" stroke="#757575" points="933.01,-340.64 943.2,-337.73 933.43,-333.65 933.01,-340.64"/>
</g>
<!-- components/AnswerSection/hooks/useAnswerGeneration.js -->
<g id="node16" class="node">
<title>components/AnswerSection/hooks/useAnswerGeneration.js</title>
<path fill="none" stroke="#c6c5fe" d="M1328.21,-318.5C1328.21,-318.5 950.54,-318.5 950.54,-318.5 946.46,-318.5 942.38,-314.42 942.38,-310.33 942.38,-310.33 942.38,-302.17 942.38,-302.17 942.38,-298.08 946.46,-294 950.54,-294 950.54,-294 1328.21,-294 1328.21,-294 1332.29,-294 1336.38,-298.08 1336.38,-302.17 1336.38,-302.17 1336.38,-310.33 1336.38,-310.33 1336.38,-314.42 1332.29,-318.5 1328.21,-318.5"/>
<text text-anchor="middle" x="1139.38" y="-301.2" font-family="Arial" font-size="14.00" fill="#c6c5fe">components/AnswerSection/hooks/useAnswerGeneration.js</text>
</g>
<!-- components/AnswerSection/index.js&#45;&gt;components/AnswerSection/hooks/useAnswerGeneration.js -->
<g id="edge15" class="edge">
<title>components/AnswerSection/index.js&#45;&gt;components/AnswerSection/hooks/useAnswerGeneration.js</title>
<path fill="none" stroke="#757575" d="M887.59,-320.37C901.56,-319.59 916.07,-318.77 930.76,-317.94"/>
<polygon fill="#757575" stroke="#757575" points="930.72,-321.45 940.51,-317.39 930.33,-314.46 930.72,-321.45"/>
</g>
<!-- components/AnswerSection/hooks/useVersionHistory.js -->
<g id="node18" class="node">
<title>components/AnswerSection/hooks/useVersionHistory.js</title>
<path fill="none" stroke="#cfffac" d="M1315.83,-275.5C1315.83,-275.5 962.92,-275.5 962.92,-275.5 958.83,-275.5 954.75,-271.42 954.75,-267.33 954.75,-267.33 954.75,-259.17 954.75,-259.17 954.75,-255.08 958.83,-251 962.92,-251 962.92,-251 1315.83,-251 1315.83,-251 1319.92,-251 1324,-255.08 1324,-259.17 1324,-259.17 1324,-267.33 1324,-267.33 1324,-271.42 1319.92,-275.5 1315.83,-275.5"/>
<text text-anchor="middle" x="1139.38" y="-258.2" font-family="Arial" font-size="14.00" fill="#cfffac">components/AnswerSection/hooks/useVersionHistory.js</text>
</g>
<!-- components/AnswerSection/index.js&#45;&gt;components/AnswerSection/hooks/useVersionHistory.js -->
<g id="edge16" class="edge">
<title>components/AnswerSection/index.js&#45;&gt;components/AnswerSection/hooks/useVersionHistory.js</title>
<path fill="none" stroke="#757575" d="M807.88,-314.56C840.72,-305.17 887.51,-292.76 929.25,-285.25 945.61,-282.31 962.76,-279.72 979.91,-277.44"/>
<polygon fill="#757575" stroke="#757575" points="980.2,-280.94 989.67,-276.19 979.31,-273.99 980.2,-280.94"/>
</g>
<!-- components/QuestionSection/DropdownMenu.js -->
<g id="node19" class="node">
<title>components/QuestionSection/DropdownMenu.js</title>
<path fill="none" stroke="#cfffac" d="M1291.83,-232.5C1291.83,-232.5 986.92,-232.5 986.92,-232.5 982.83,-232.5 978.75,-228.42 978.75,-224.33 978.75,-224.33 978.75,-216.17 978.75,-216.17 978.75,-212.08 982.83,-208 986.92,-208 986.92,-208 1291.83,-208 1291.83,-208 1295.92,-208 1300,-212.08 1300,-216.17 1300,-216.17 1300,-224.33 1300,-224.33 1300,-228.42 1295.92,-232.5 1291.83,-232.5"/>
<text text-anchor="middle" x="1139.38" y="-215.2" font-family="Arial" font-size="14.00" fill="#cfffac">components/QuestionSection/DropdownMenu.js</text>
</g>
<!-- components/AnswerSection/index.js&#45;&gt;components/QuestionSection/DropdownMenu.js -->
<g id="edge17" class="edge">
<title>components/AnswerSection/index.js&#45;&gt;components/QuestionSection/DropdownMenu.js</title>
<path fill="none" stroke="#757575" d="M826.84,-314.54C849.02,-308.09 873.44,-298.68 893.25,-285.25 913.88,-271.27 907.25,-253.96 929.25,-242.25 941.26,-235.85 954.21,-230.85 967.57,-226.98"/>
<polygon fill="#757575" stroke="#757575" points="968.14,-230.45 976.9,-224.5 966.34,-223.68 968.14,-230.45"/>
</g>
<!-- components/Layout/Sidebar.js&#45;&gt;lib/hooks/useAuth.js -->
<g id="edge19" class="edge">
<title>components/Layout/Sidebar.js&#45;&gt;lib/hooks/useAuth.js</title>
<path fill="none" stroke="#757575" d="M843.21,-122.54C905.73,-112.31 993.32,-97.98 1056.83,-87.59"/>
<polygon fill="#757575" stroke="#757575" points="1057.21,-91.08 1066.51,-86.01 1056.08,-84.17 1057.21,-91.08"/>
</g>
<!-- services/questionApi.js -->
<g id="node17" class="node">
<title>services/questionApi.js</title>
<path fill="none" stroke="#cfffac" d="M1539.58,-318.5C1539.58,-318.5 1393.67,-318.5 1393.67,-318.5 1389.58,-318.5 1385.5,-314.42 1385.5,-310.33 1385.5,-310.33 1385.5,-302.17 1385.5,-302.17 1385.5,-298.08 1389.58,-294 1393.67,-294 1393.67,-294 1539.58,-294 1539.58,-294 1543.67,-294 1547.75,-298.08 1547.75,-302.17 1547.75,-302.17 1547.75,-310.33 1547.75,-310.33 1547.75,-314.42 1543.67,-318.5 1539.58,-318.5"/>
<text text-anchor="middle" x="1466.62" y="-301.2" font-family="Arial" font-size="14.00" fill="#cfffac">services/questionApi.js</text>
</g>
<!-- components/Layout/Sidebar.js&#45;&gt;services/questionApi.js -->
<g id="edge20" class="edge">
<title>components/Layout/Sidebar.js&#45;&gt;services/questionApi.js</title>
<path fill="none" stroke="#757575" d="M868.78,-128.64C1013.61,-121.1 1268.43,-114.66 1349.5,-156.25 1403.18,-183.78 1439.49,-248.71 1455.81,-283.43"/>
<polygon fill="#757575" stroke="#757575" points="1452.46,-284.51 1459.78,-292.17 1458.83,-281.62 1452.46,-284.51"/>
</g>
<!-- components/QuestionSection/index.js&#45;&gt;components/QuestionSection/DropdownMenu.js -->
<g id="edge21" class="edge">
<title>components/QuestionSection/index.js&#45;&gt;components/QuestionSection/DropdownMenu.js</title>
<path fill="none" stroke="#757575" d="M892.52,-220.91C916.49,-220.85 941.93,-220.78 967.01,-220.71"/>
<polygon fill="#757575" stroke="#757575" points="966.99,-224.21 976.98,-220.68 966.97,-217.21 966.99,-224.21"/>
</g>
<!-- components/QuestionSection/QuestionInput.js -->
<g id="node21" class="node">
<title>components/QuestionSection/QuestionInput.js</title>
<path fill="none" stroke="#cfffac" d="M1286.21,-189.5C1286.21,-189.5 992.54,-189.5 992.54,-189.5 988.46,-189.5 984.38,-185.42 984.38,-181.33 984.38,-181.33 984.38,-173.17 984.38,-173.17 984.38,-169.08 988.46,-165 992.54,-165 992.54,-165 1286.21,-165 1286.21,-165 1290.29,-165 1294.38,-169.08 1294.38,-173.17 1294.38,-173.17 1294.38,-181.33 1294.38,-181.33 1294.38,-185.42 1290.29,-189.5 1286.21,-189.5"/>
<text text-anchor="middle" x="1139.38" y="-172.2" font-family="Arial" font-size="14.00" fill="#cfffac">components/QuestionSection/QuestionInput.js</text>
</g>
<!-- components/QuestionSection/index.js&#45;&gt;components/QuestionSection/QuestionInput.js -->
<g id="edge22" class="edge">
<title>components/QuestionSection/index.js&#45;&gt;components/QuestionSection/QuestionInput.js</title>
<path fill="none" stroke="#757575" d="M856.81,-208.51C880.39,-205.35 905.75,-202.06 929.25,-199.25 952.25,-196.5 976.7,-193.76 1000.46,-191.19"/>
<polygon fill="#757575" stroke="#757575" points="1000.61,-194.69 1010.18,-190.15 999.87,-187.73 1000.61,-194.69"/>
</g>
<!-- components/auth/LoginPage.js&#45;&gt;lib/hooks/useAuth.js -->
<g id="edge24" class="edge">
<title>components/auth/LoginPage.js&#45;&gt;lib/hooks/useAuth.js</title>
<path fill="none" stroke="#757575" d="M870.86,-87.16C929.77,-84.32 1002.09,-80.83 1056.68,-78.19"/>
<polygon fill="#757575" stroke="#757575" points="1056.71,-81.7 1066.53,-77.72 1056.38,-74.7 1056.71,-81.7"/>
</g>
<!-- components/auth/SignupPage.js&#45;&gt;lib/hooks/useAuth.js -->
<g id="edge26" class="edge">
<title>components/auth/SignupPage.js&#45;&gt;lib/hooks/useAuth.js</title>
<path fill="none" stroke="#757575" d="M841.86,-24.95C904.47,-35.36 992.88,-50.06 1056.86,-60.7"/>
<polygon fill="#757575" stroke="#757575" points="1056.18,-64.13 1066.61,-62.32 1057.32,-57.23 1056.18,-64.13"/>
</g>
<!-- components/auth/AuthLayout.js -->
<g id="node24" class="node">
<title>components/auth/AuthLayout.js</title>
<path fill="none" stroke="#cfffac" d="M1237.83,-24.5C1237.83,-24.5 1040.92,-24.5 1040.92,-24.5 1036.83,-24.5 1032.75,-20.42 1032.75,-16.33 1032.75,-16.33 1032.75,-8.17 1032.75,-8.17 1032.75,-4.08 1036.83,0 1040.92,0 1040.92,0 1237.83,0 1237.83,0 1241.92,0 1246,-4.08 1246,-8.17 1246,-8.17 1246,-16.33 1246,-16.33 1246,-20.42 1241.92,-24.5 1237.83,-24.5"/>
<text text-anchor="middle" x="1139.38" y="-7.2" font-family="Arial" font-size="14.00" fill="#cfffac">components/auth/AuthLayout.js</text>
</g>
<!-- components/auth/SignupPage.js&#45;&gt;components/auth/AuthLayout.js -->
<g id="edge25" class="edge">
<title>components/auth/SignupPage.js&#45;&gt;components/auth/AuthLayout.js</title>
<path fill="none" stroke="#757575" d="M875.36,-12.25C921.2,-12.25 974.52,-12.25 1021.12,-12.25"/>
<polygon fill="#757575" stroke="#757575" points="1020.99,-15.75 1030.99,-12.25 1020.99,-8.75 1020.99,-15.75"/>
</g>
<!-- services/auth.js -->
<g id="node27" class="node">
<title>services/auth.js</title>
<path fill="none" stroke="#cfffac" d="M1515.21,-86.5C1515.21,-86.5 1418.04,-86.5 1418.04,-86.5 1413.96,-86.5 1409.88,-82.42 1409.88,-78.33 1409.88,-78.33 1409.88,-70.17 1409.88,-70.17 1409.88,-66.08 1413.96,-62 1418.04,-62 1418.04,-62 1515.21,-62 1515.21,-62 1519.29,-62 1523.38,-66.08 1523.38,-70.17 1523.38,-70.17 1523.38,-78.33 1523.38,-78.33 1523.38,-82.42 1519.29,-86.5 1515.21,-86.5"/>
<text text-anchor="middle" x="1466.62" y="-69.2" font-family="Arial" font-size="14.00" fill="#cfffac">services/auth.js</text>
</g>
<!-- lib/hooks/useAuth.js&#45;&gt;services/auth.js -->
<g id="edge29" class="edge">
<title>lib/hooks/useAuth.js&#45;&gt;services/auth.js</title>
<path fill="none" stroke="#757575" d="M1210.55,-74.25C1266.17,-74.25 1343.38,-74.25 1398.26,-74.25"/>
<polygon fill="#757575" stroke="#757575" points="1398.1,-77.75 1408.1,-74.25 1398.1,-70.75 1398.1,-77.75"/>
</g>
<!-- App.test.js -->
<g id="node10" class="node">
<title>App.test.js</title>
<path fill="none" stroke="#c6c5fe" d="M230.58,-168.5C230.58,-168.5 163.42,-168.5 163.42,-168.5 159.33,-168.5 155.25,-164.42 155.25,-160.33 155.25,-160.33 155.25,-152.17 155.25,-152.17 155.25,-148.08 159.33,-144 163.42,-144 163.42,-144 230.58,-144 230.58,-144 234.67,-144 238.75,-148.08 238.75,-152.17 238.75,-152.17 238.75,-160.33 238.75,-160.33 238.75,-164.42 234.67,-168.5 230.58,-168.5"/>
<text text-anchor="middle" x="197" y="-151.2" font-family="Arial" font-size="14.00" fill="#c6c5fe">App.test.js</text>
</g>
<!-- App.test.js&#45;&gt;App.js -->
<g id="edge9" class="edge">
<title>App.test.js&#45;&gt;App.js</title>
<path fill="none" stroke="#757575" d="M238.97,-156.25C300.32,-156.25 415.23,-156.25 475.2,-156.25"/>
<polygon fill="#757575" stroke="#757575" points="474.92,-159.75 484.92,-156.25 474.92,-152.75 474.92,-159.75"/>
</g>
<!-- components/AnswerSection/components/SourcesDisplay.js -->
<g id="node13" class="node">
<title>components/AnswerSection/components/SourcesDisplay.js</title>
<path fill="none" stroke="#cfffac" d="M385.83,-211.5C385.83,-211.5 8.17,-211.5 8.17,-211.5 4.08,-211.5 0,-207.42 0,-203.33 0,-203.33 0,-195.17 0,-195.17 0,-191.08 4.08,-187 8.17,-187 8.17,-187 385.83,-187 385.83,-187 389.92,-187 394,-191.08 394,-195.17 394,-195.17 394,-203.33 394,-203.33 394,-207.42 389.92,-211.5 385.83,-211.5"/>
<text text-anchor="middle" x="197" y="-194.2" font-family="Arial" font-size="14.00" fill="#cfffac">components/AnswerSection/components/SourcesDisplay.js</text>
</g>
<!-- components/AnswerSection/hooks/useAnswerGeneration.js&#45;&gt;services/questionApi.js -->
<g id="edge10" class="edge">
<title>components/AnswerSection/hooks/useAnswerGeneration.js&#45;&gt;services/questionApi.js</title>
<path fill="none" stroke="#757575" d="M1336.61,-306.25C1349.42,-306.25 1361.94,-306.25 1373.83,-306.25"/>
<polygon fill="#757575" stroke="#757575" points="1373.52,-309.75 1383.52,-306.25 1373.52,-302.75 1373.52,-309.75"/>
</g>
<!-- components/Layout/QuestionHistory.js -->
<g id="node20" class="node">
<title>components/Layout/QuestionHistory.js</title>
<path fill="none" stroke="#c6c5fe" d="M1260.71,-533.5C1260.71,-533.5 1018.04,-533.5 1018.04,-533.5 1013.96,-533.5 1009.88,-529.42 1009.88,-525.33 1009.88,-525.33 1009.88,-517.17 1009.88,-517.17 1009.88,-513.08 1013.96,-509 1018.04,-509 1018.04,-509 1260.71,-509 1260.71,-509 1264.79,-509 1268.88,-513.08 1268.88,-517.17 1268.88,-517.17 1268.88,-525.33 1268.88,-525.33 1268.88,-529.42 1264.79,-533.5 1260.71,-533.5"/>
<text text-anchor="middle" x="1139.38" y="-516.2" font-family="Arial" font-size="14.00" fill="#c6c5fe">components/Layout/QuestionHistory.js</text>
</g>
<!-- components/Layout/QuestionHistory.js&#45;&gt;services/questionApi.js -->
<g id="edge18" class="edge">
<title>components/Layout/QuestionHistory.js&#45;&gt;services/questionApi.js</title>
<path fill="none" stroke="#757575" d="M1269.34,-526.17C1297.42,-522.35 1325.79,-514.35 1349.5,-499.25 1412.38,-459.21 1446.01,-371.78 1459.08,-329.74"/>
<polygon fill="#757575" stroke="#757575" points="1462.36,-330.97 1461.86,-320.39 1455.65,-328.98 1462.36,-330.97"/>
</g>
<!-- components/ReferenceSection/index.js -->
<g id="node22" class="node">
<title>components/ReferenceSection/index.js</title>
<path fill="none" stroke="#c6c5fe" d="M321.71,-254.5C321.71,-254.5 72.29,-254.5 72.29,-254.5 68.21,-254.5 64.12,-250.42 64.12,-246.33 64.12,-246.33 64.12,-238.17 64.12,-238.17 64.12,-234.08 68.21,-230 72.29,-230 72.29,-230 321.71,-230 321.71,-230 325.79,-230 329.88,-234.08 329.88,-238.17 329.88,-238.17 329.88,-246.33 329.88,-246.33 329.88,-250.42 325.79,-254.5 321.71,-254.5"/>
<text text-anchor="middle" x="197" y="-237.2" font-family="Arial" font-size="14.00" fill="#c6c5fe">components/ReferenceSection/index.js</text>
</g>
<!-- services/referenceApi.js -->
<g id="node23" class="node">
<title>services/referenceApi.js</title>
<path fill="none" stroke="#cfffac" d="M591.58,-254.5C591.58,-254.5 438.17,-254.5 438.17,-254.5 434.08,-254.5 430,-250.42 430,-246.33 430,-246.33 430,-238.17 430,-238.17 430,-234.08 434.08,-230 438.17,-230 438.17,-230 591.58,-230 591.58,-230 595.67,-230 599.75,-234.08 599.75,-238.17 599.75,-238.17 599.75,-246.33 599.75,-246.33 599.75,-250.42 595.67,-254.5 591.58,-254.5"/>
<text text-anchor="middle" x="514.88" y="-237.2" font-family="Arial" font-size="14.00" fill="#cfffac">services/referenceApi.js</text>
</g>
<!-- components/ReferenceSection/index.js&#45;&gt;services/referenceApi.js -->
<g id="edge23" class="edge">
<title>components/ReferenceSection/index.js&#45;&gt;services/referenceApi.js</title>
<path fill="none" stroke="#757575" d="M330.13,-242.25C359.7,-242.25 390.51,-242.25 418.26,-242.25"/>
<polygon fill="#757575" stroke="#757575" points="418.03,-245.75 428.03,-242.25 418.03,-238.75 418.03,-245.75"/>
</g>
<!-- index.css -->
<g id="node25" class="node">
<title>index.css</title>
<path fill="none" stroke="#cfffac" d="M544.71,-125.5C544.71,-125.5 485.04,-125.5 485.04,-125.5 480.96,-125.5 476.88,-121.42 476.88,-117.33 476.88,-117.33 476.88,-109.17 476.88,-109.17 476.88,-105.08 480.96,-101 485.04,-101 485.04,-101 544.71,-101 544.71,-101 548.79,-101 552.88,-105.08 552.88,-109.17 552.88,-109.17 552.88,-117.33 552.88,-117.33 552.88,-121.42 548.79,-125.5 544.71,-125.5"/>
<text text-anchor="middle" x="514.88" y="-108.2" font-family="Arial" font-size="14.00" fill="#cfffac">index.css</text>
</g>
<!-- index.js -->
<g id="node26" class="node">
<title>index.js</title>
<path fill="none" stroke="#c6c5fe" d="M220.83,-125.5C220.83,-125.5 173.17,-125.5 173.17,-125.5 169.08,-125.5 165,-121.42 165,-117.33 165,-117.33 165,-109.17 165,-109.17 165,-105.08 169.08,-101 173.17,-101 173.17,-101 220.83,-101 220.83,-101 224.92,-101 229,-105.08 229,-109.17 229,-109.17 229,-117.33 229,-117.33 229,-121.42 224.92,-125.5 220.83,-125.5"/>
<text text-anchor="middle" x="197" y="-108.2" font-family="Arial" font-size="14.00" fill="#c6c5fe">index.js</text>
</g>
<!-- index.js&#45;&gt;App.js -->
<g id="edge27" class="edge">
<title>index.js&#45;&gt;App.js</title>
<path fill="none" stroke="#757575" d="M229.31,-116.16C268.06,-119.91 336.04,-126.93 394,-135.25 421.19,-139.15 451.69,-144.51 475.12,-148.84"/>
<polygon fill="#757575" stroke="#757575" points="474.38,-152.26 484.85,-150.65 475.66,-145.38 474.38,-152.26"/>
</g>
<!-- index.js&#45;&gt;index.css -->
<g id="edge28" class="edge">
<title>index.js&#45;&gt;index.css</title>
<path fill="none" stroke="#757575" d="M229.44,-113.25C284.72,-113.25 399.66,-113.25 465.24,-113.25"/>
<polygon fill="#757575" stroke="#757575" points="464.99,-116.75 474.99,-113.25 464.99,-109.75 464.99,-116.75"/>
</g>
<!-- lib/utils.js -->
<g id="node28" class="node">
<title>lib/utils.js</title>
<path fill="none" stroke="#cfffac" d="M225.33,-297.5C225.33,-297.5 168.67,-297.5 168.67,-297.5 164.58,-297.5 160.5,-293.42 160.5,-289.33 160.5,-289.33 160.5,-281.17 160.5,-281.17 160.5,-277.08 164.58,-273 168.67,-273 168.67,-273 225.33,-273 225.33,-273 229.42,-273 233.5,-277.08 233.5,-281.17 233.5,-281.17 233.5,-289.33 233.5,-289.33 233.5,-293.42 229.42,-297.5 225.33,-297.5"/>
<text text-anchor="middle" x="197" y="-280.2" font-family="Arial" font-size="14.00" fill="#cfffac">lib/utils.js</text>
</g>
<!-- reportWebVitals.js -->
<g id="node29" class="node">
<title>reportWebVitals.js</title>
<path fill="none" stroke="#cfffac" d="M255.33,-340.5C255.33,-340.5 138.67,-340.5 138.67,-340.5 134.58,-340.5 130.5,-336.42 130.5,-332.33 130.5,-332.33 130.5,-324.17 130.5,-324.17 130.5,-320.08 134.58,-316 138.67,-316 138.67,-316 255.33,-316 255.33,-316 259.42,-316 263.5,-320.08 263.5,-324.17 263.5,-324.17 263.5,-332.33 263.5,-332.33 263.5,-336.42 259.42,-340.5 255.33,-340.5"/>
<text text-anchor="middle" x="197" y="-323.2" font-family="Arial" font-size="14.00" fill="#cfffac">reportWebVitals.js</text>
</g>
<!-- services/answerApi.js -->
<g id="node30" class="node">
<title>services/answerApi.js</title>
<path fill="none" stroke="#cfffac" d="M265.46,-383.5C265.46,-383.5 128.54,-383.5 128.54,-383.5 124.46,-383.5 120.38,-379.42 120.38,-375.33 120.38,-375.33 120.38,-367.17 120.38,-367.17 120.38,-363.08 124.46,-359 128.54,-359 128.54,-359 265.46,-359 265.46,-359 269.54,-359 273.62,-363.08 273.62,-367.17 273.62,-367.17 273.62,-375.33 273.62,-375.33 273.62,-379.42 269.54,-383.5 265.46,-383.5"/>
<text text-anchor="middle" x="197" y="-366.2" font-family="Arial" font-size="14.00" fill="#cfffac">services/answerApi.js</text>
</g>
<!-- services/versionHistoryApi.js -->
<g id="node31" class="node">
<title>services/versionHistoryApi.js</title>
<path fill="none" stroke="#cfffac" d="M287.58,-426.5C287.58,-426.5 106.42,-426.5 106.42,-426.5 102.33,-426.5 98.25,-422.42 98.25,-418.33 98.25,-418.33 98.25,-410.17 98.25,-410.17 98.25,-406.08 102.33,-402 106.42,-402 106.42,-402 287.58,-402 287.58,-402 291.67,-402 295.75,-406.08 295.75,-410.17 295.75,-410.17 295.75,-418.33 295.75,-418.33 295.75,-422.42 291.67,-426.5 287.58,-426.5"/>
<text text-anchor="middle" x="197" y="-409.2" font-family="Arial" font-size="14.00" fill="#cfffac">services/versionHistoryApi.js</text>
</g>
<!-- setupTests.js -->
<g id="node32" class="node">
<title>setupTests.js</title>
<path fill="none" stroke="#cfffac" d="M239.58,-469.5C239.58,-469.5 154.42,-469.5 154.42,-469.5 150.33,-469.5 146.25,-465.42 146.25,-461.33 146.25,-461.33 146.25,-453.17 146.25,-453.17 146.25,-449.08 150.33,-445 154.42,-445 154.42,-445 239.58,-445 239.58,-445 243.67,-445 247.75,-449.08 247.75,-453.17 247.75,-453.17 247.75,-461.33 247.75,-461.33 247.75,-465.42 243.67,-469.5 239.58,-469.5"/>
<text text-anchor="middle" x="197" y="-452.2" font-family="Arial" font-size="14.00" fill="#cfffac">setupTests.js</text>
</g>
</g>
</svg>
