<?xml version="1.0" encoding="UTF-8" standalone="no"?>
<!DOCTYPE svg PUBLIC "-//W3C//DTD SVG 1.1//EN"
 "http://www.w3.org/Graphics/SVG/1.1/DTD/svg11.dtd">
<!-- Generated by graphviz version 11.0.0 (20240428.1522)
 -->
<!-- Title: G Pages: 1 -->
<svg width="1265pt" height="624pt"
 viewBox="0.00 0.00 1264.70 623.70" xmlns="http://www.w3.org/2000/svg" xmlns:xlink="http://www.w3.org/1999/xlink">
<g id="graph0" class="graph" transform="scale(1 1) rotate(0) translate(21.6 602.1)">
<title>G</title>
<polygon fill="#111111" stroke="none" points="-21.6,21.6 -21.6,-602.1 1243.1,-602.1 1243.1,21.6 -21.6,21.6"/>
<!-- App.js -->
<g id="node1" class="node">
<title>App.js</title>
<path fill="none" stroke="#c6c5fe" d="M247.33,-173.5C247.33,-173.5 207.17,-173.5 207.17,-173.5 203.08,-173.5 199,-169.42 199,-165.33 199,-165.33 199,-157.17 199,-157.17 199,-153.08 203.08,-149 207.17,-149 207.17,-149 247.33,-149 247.33,-149 251.42,-149 255.5,-153.08 255.5,-157.17 255.5,-157.17 255.5,-165.33 255.5,-165.33 255.5,-169.42 251.42,-173.5 247.33,-173.5"/>
<text text-anchor="middle" x="227.25" y="-156.2" font-family="Arial" font-size="14.00" fill="#c6c5fe">App.js</text>
</g>
<!-- components/AnswerSection/index.js -->
<g id="node2" class="node">
<title>components/AnswerSection/index.js</title>
<path fill="none" stroke="#c6c5fe" d="M548.71,-429.5C548.71,-429.5 319.54,-429.5 319.54,-429.5 315.46,-429.5 311.38,-425.42 311.38,-421.33 311.38,-421.33 311.38,-413.17 311.38,-413.17 311.38,-409.08 315.46,-405 319.54,-405 319.54,-405 548.71,-405 548.71,-405 552.79,-405 556.88,-409.08 556.88,-413.17 556.88,-413.17 556.88,-421.33 556.88,-421.33 556.88,-425.42 552.79,-429.5 548.71,-429.5"/>
<text text-anchor="middle" x="434.12" y="-412.2" font-family="Arial" font-size="14.00" fill="#c6c5fe">components/AnswerSection/index.js</text>
</g>
<!-- App.js&#45;&gt;components/AnswerSection/index.js -->
<g id="edge1" class="edge">
<title>App.js&#45;&gt;components/AnswerSection/index.js</title>
<path fill="none" stroke="#757575" d="M234.33,-173.87C245.79,-197.06 272.05,-247.51 301.25,-285.25 334.91,-328.75 381.94,-372.62 409.79,-397.23"/>
<polygon fill="#757575" stroke="#757575" points="407.48,-399.86 417.31,-403.81 412.09,-394.59 407.48,-399.86"/>
</g>
<!-- components/Layout/ResizablePanel.js -->
<g id="node3" class="node">
<title>components/Layout/ResizablePanel.js</title>
<path fill="none" stroke="#cfffac" d="M554.71,-233.5C554.71,-233.5 313.54,-233.5 313.54,-233.5 309.46,-233.5 305.38,-229.42 305.38,-225.33 305.38,-225.33 305.38,-217.17 305.38,-217.17 305.38,-213.08 309.46,-209 313.54,-209 313.54,-209 554.71,-209 554.71,-209 558.79,-209 562.88,-213.08 562.88,-217.17 562.88,-217.17 562.88,-225.33 562.88,-225.33 562.88,-229.42 558.79,-233.5 554.71,-233.5"/>
<text text-anchor="middle" x="434.12" y="-216.2" font-family="Arial" font-size="14.00" fill="#cfffac">components/Layout/ResizablePanel.js</text>
</g>
<!-- App.js&#45;&gt;components/Layout/ResizablePanel.js -->
<g id="edge2" class="edge">
<title>App.js&#45;&gt;components/Layout/ResizablePanel.js</title>
<path fill="none" stroke="#757575" d="M251.66,-173.92C265.7,-181.07 284.1,-189.66 301.25,-195.25 314.12,-199.45 327.92,-203.08 341.58,-206.18"/>
<polygon fill="#757575" stroke="#757575" points="340.49,-209.52 351,-208.23 341.98,-202.68 340.49,-209.52"/>
</g>
<!-- components/Layout/Sidebar.js -->
<g id="node4" class="node">
<title>components/Layout/Sidebar.js</title>
<path fill="none" stroke="#c6c5fe" d="M529.96,-153.5C529.96,-153.5 338.29,-153.5 338.29,-153.5 334.21,-153.5 330.12,-149.42 330.12,-145.33 330.12,-145.33 330.12,-137.17 330.12,-137.17 330.12,-133.08 334.21,-129 338.29,-129 338.29,-129 529.96,-129 529.96,-129 534.04,-129 538.12,-133.08 538.12,-137.17 538.12,-137.17 538.12,-145.33 538.12,-145.33 538.12,-149.42 534.04,-153.5 529.96,-153.5"/>
<text text-anchor="middle" x="434.12" y="-136.2" font-family="Arial" font-size="14.00" fill="#c6c5fe">components/Layout/Sidebar.js</text>
</g>
<!-- App.js&#45;&gt;components/Layout/Sidebar.js -->
<g id="edge3" class="edge">
<title>App.js&#45;&gt;components/Layout/Sidebar.js</title>
<path fill="none" stroke="#757575" d="M255.88,-158.55C272.66,-156.91 295.34,-154.7 318.86,-152.4"/>
<polygon fill="#757575" stroke="#757575" points="318.95,-155.91 328.57,-151.46 318.27,-148.95 318.95,-155.91"/>
</g>
<!-- components/QuestionSection/index.js -->
<g id="node5" class="node">
<title>components/QuestionSection/index.js</title>
<path fill="none" stroke="#c6c5fe" d="M553.58,-276.5C553.58,-276.5 314.67,-276.5 314.67,-276.5 310.58,-276.5 306.5,-272.42 306.5,-268.33 306.5,-268.33 306.5,-260.17 306.5,-260.17 306.5,-256.08 310.58,-252 314.67,-252 314.67,-252 553.58,-252 553.58,-252 557.67,-252 561.75,-256.08 561.75,-260.17 561.75,-260.17 561.75,-268.33 561.75,-268.33 561.75,-272.42 557.67,-276.5 553.58,-276.5"/>
<text text-anchor="middle" x="434.12" y="-259.2" font-family="Arial" font-size="14.00" fill="#c6c5fe">components/QuestionSection/index.js</text>
</g>
<!-- App.js&#45;&gt;components/QuestionSection/index.js -->
<g id="edge4" class="edge">
<title>App.js&#45;&gt;components/QuestionSection/index.js</title>
<path fill="none" stroke="#757575" d="M235.64,-173.79C247.15,-192.11 271.2,-225.78 301.25,-242.25 304.66,-244.12 308.19,-245.84 311.81,-247.42"/>
<polygon fill="#757575" stroke="#757575" points="310.22,-250.55 320.81,-250.96 312.78,-244.04 310.22,-250.55"/>
</g>
<!-- components/ReferenceSection/index.js -->
<g id="node6" class="node">
<title>components/ReferenceSection/index.js</title>
<path fill="none" stroke="#c6c5fe" d="M558.83,-24.5C558.83,-24.5 309.42,-24.5 309.42,-24.5 305.33,-24.5 301.25,-20.42 301.25,-16.33 301.25,-16.33 301.25,-8.17 301.25,-8.17 301.25,-4.08 305.33,0 309.42,0 309.42,0 558.83,0 558.83,0 562.92,0 567,-4.08 567,-8.17 567,-8.17 567,-16.33 567,-16.33 567,-20.42 562.92,-24.5 558.83,-24.5"/>
<text text-anchor="middle" x="434.12" y="-7.2" font-family="Arial" font-size="14.00" fill="#c6c5fe">components/ReferenceSection/index.js</text>
</g>
<!-- App.js&#45;&gt;components/ReferenceSection/index.js -->
<g id="edge5" class="edge">
<title>App.js&#45;&gt;components/ReferenceSection/index.js</title>
<path fill="none" stroke="#757575" d="M254.76,-148.69C258.65,-145.99 262.33,-142.85 265.25,-139.25 296.36,-100.96 263.61,-66.14 301.25,-34.25 302.58,-33.12 303.94,-32.05 305.34,-31.01"/>
<polygon fill="#757575" stroke="#757575" points="307.18,-33.99 313.71,-25.65 303.4,-28.1 307.18,-33.99"/>
</g>
<!-- components/auth/LoginPage.js -->
<g id="node7" class="node">
<title>components/auth/LoginPage.js</title>
<path fill="none" stroke="#c6c5fe" d="M531.83,-110.5C531.83,-110.5 336.42,-110.5 336.42,-110.5 332.33,-110.5 328.25,-106.42 328.25,-102.33 328.25,-102.33 328.25,-94.17 328.25,-94.17 328.25,-90.08 332.33,-86 336.42,-86 336.42,-86 531.83,-86 531.83,-86 535.92,-86 540,-90.08 540,-94.17 540,-94.17 540,-102.33 540,-102.33 540,-106.42 535.92,-110.5 531.83,-110.5"/>
<text text-anchor="middle" x="434.12" y="-93.2" font-family="Arial" font-size="14.00" fill="#c6c5fe">components/auth/LoginPage.js</text>
</g>
<!-- App.js&#45;&gt;components/auth/LoginPage.js -->
<g id="edge6" class="edge">
<title>App.js&#45;&gt;components/auth/LoginPage.js</title>
<path fill="none" stroke="#757575" d="M249.77,-148.66C269.3,-137.33 295.83,-122.16 301.25,-120.25 308.24,-117.79 315.53,-115.6 322.95,-113.65"/>
<polygon fill="#757575" stroke="#757575" points="323.53,-117.12 332.41,-111.33 321.87,-110.32 323.53,-117.12"/>
</g>
<!-- components/auth/SignupPage.js -->
<g id="node8" class="node">
<title>components/auth/SignupPage.js</title>
<path fill="none" stroke="#c6c5fe" d="M536.33,-67.5C536.33,-67.5 331.92,-67.5 331.92,-67.5 327.83,-67.5 323.75,-63.42 323.75,-59.33 323.75,-59.33 323.75,-51.17 323.75,-51.17 323.75,-47.08 327.83,-43 331.92,-43 331.92,-43 536.33,-43 536.33,-43 540.42,-43 544.5,-47.08 544.5,-51.17 544.5,-51.17 544.5,-59.33 544.5,-59.33 544.5,-63.42 540.42,-67.5 536.33,-67.5"/>
<text text-anchor="middle" x="434.12" y="-50.2" font-family="Arial" font-size="14.00" fill="#c6c5fe">components/auth/SignupPage.js</text>
</g>
<!-- App.js&#45;&gt;components/auth/SignupPage.js -->
<g id="edge7" class="edge">
<title>App.js&#45;&gt;components/auth/SignupPage.js</title>
<path fill="none" stroke="#757575" d="M253.41,-148.68C257.64,-145.92 261.78,-142.76 265.25,-139.25 287.66,-116.6 275.04,-95.37 301.25,-77.25 305.01,-74.65 308.97,-72.32 313.08,-70.24"/>
<polygon fill="#757575" stroke="#757575" points="314.49,-73.44 322.19,-66.16 311.63,-67.05 314.49,-73.44"/>
</g>
<!-- lib/hooks/useAuth.js -->
<g id="node9" class="node">
<title>lib/hooks/useAuth.js</title>
<path fill="none" stroke="#c6c5fe" d="M875.96,-146.5C875.96,-146.5 750.29,-146.5 750.29,-146.5 746.21,-146.5 742.12,-142.42 742.12,-138.33 742.12,-138.33 742.12,-130.17 742.12,-130.17 742.12,-126.08 746.21,-122 750.29,-122 750.29,-122 875.96,-122 875.96,-122 880.04,-122 884.12,-126.08 884.12,-130.17 884.12,-130.17 884.12,-138.33 884.12,-138.33 884.12,-142.42 880.04,-146.5 875.96,-146.5"/>
<text text-anchor="middle" x="813.12" y="-129.2" font-family="Arial" font-size="14.00" fill="#c6c5fe">lib/hooks/useAuth.js</text>
</g>
<!-- App.js&#45;&gt;lib/hooks/useAuth.js -->
<g id="edge8" class="edge">
<title>App.js&#45;&gt;lib/hooks/useAuth.js</title>
<path fill="none" stroke="#757575" d="M255.98,-161.72C269.62,-161.93 286.29,-162.15 301.25,-162.25 419.36,-163.06 449.08,-168.96 567,-162.25 621.73,-159.13 683.01,-152.14 730.6,-145.91"/>
<polygon fill="#757575" stroke="#757575" points="730.82,-149.42 740.28,-144.63 729.9,-142.48 730.82,-149.42"/>
</g>
<!-- components/AnswerSection/components/ActionBar.js -->
<g id="node11" class="node">
<title>components/AnswerSection/components/ActionBar.js</title>
<path fill="none" stroke="#cfffac" d="M982.83,-451.5C982.83,-451.5 643.42,-451.5 643.42,-451.5 639.33,-451.5 635.25,-447.42 635.25,-443.33 635.25,-443.33 635.25,-435.17 635.25,-435.17 635.25,-431.08 639.33,-427 643.42,-427 643.42,-427 982.83,-427 982.83,-427 986.92,-427 991,-431.08 991,-435.17 991,-435.17 991,-443.33 991,-443.33 991,-447.42 986.92,-451.5 982.83,-451.5"/>
<text text-anchor="middle" x="813.12" y="-434.2" font-family="Arial" font-size="14.00" fill="#cfffac">components/AnswerSection/components/ActionBar.js</text>
</g>
<!-- components/AnswerSection/index.js&#45;&gt;components/AnswerSection/components/ActionBar.js -->
<g id="edge11" class="edge">
<title>components/AnswerSection/index.js&#45;&gt;components/AnswerSection/components/ActionBar.js</title>
<path fill="none" stroke="#757575" d="M557.27,-424.38C578.52,-425.62 601.06,-426.93 623.6,-428.25"/>
<polygon fill="#757575" stroke="#757575" points="623.32,-431.74 633.5,-428.83 623.72,-424.75 623.32,-431.74"/>
</g>
<!-- components/AnswerSection/components/Editor.js -->
<g id="node12" class="node">
<title>components/AnswerSection/components/Editor.js</title>
<path fill="none" stroke="#cfffac" d="M970.83,-408.5C970.83,-408.5 655.42,-408.5 655.42,-408.5 651.33,-408.5 647.25,-404.42 647.25,-400.33 647.25,-400.33 647.25,-392.17 647.25,-392.17 647.25,-388.08 651.33,-384 655.42,-384 655.42,-384 970.83,-384 970.83,-384 974.92,-384 979,-388.08 979,-392.17 979,-392.17 979,-400.33 979,-400.33 979,-404.42 974.92,-408.5 970.83,-408.5"/>
<text text-anchor="middle" x="813.12" y="-391.2" font-family="Arial" font-size="14.00" fill="#cfffac">components/AnswerSection/components/Editor.js</text>
</g>
<!-- components/AnswerSection/index.js&#45;&gt;components/AnswerSection/components/Editor.js -->
<g id="edge12" class="edge">
<title>components/AnswerSection/index.js&#45;&gt;components/AnswerSection/components/Editor.js</title>
<path fill="none" stroke="#757575" d="M557.27,-410.45C582.29,-409.05 609.11,-407.56 635.61,-406.08"/>
<polygon fill="#757575" stroke="#757575" points="635.64,-409.59 645.43,-405.54 635.25,-402.6 635.64,-409.59"/>
</g>
<!-- components/AnswerSection/components/SourcesDisplay.js -->
<g id="node13" class="node">
<title>components/AnswerSection/components/SourcesDisplay.js</title>
<path fill="none" stroke="#cfffac" d="M1001.96,-365.5C1001.96,-365.5 624.29,-365.5 624.29,-365.5 620.21,-365.5 616.12,-361.42 616.12,-357.33 616.12,-357.33 616.12,-349.17 616.12,-349.17 616.12,-345.08 620.21,-341 624.29,-341 624.29,-341 1001.96,-341 1001.96,-341 1006.04,-341 1010.12,-345.08 1010.12,-349.17 1010.12,-349.17 1010.12,-357.33 1010.12,-357.33 1010.12,-361.42 1006.04,-365.5 1001.96,-365.5"/>
<text text-anchor="middle" x="813.12" y="-348.2" font-family="Arial" font-size="14.00" fill="#cfffac">components/AnswerSection/components/SourcesDisplay.js</text>
</g>
<!-- components/AnswerSection/index.js&#45;&gt;components/AnswerSection/components/SourcesDisplay.js -->
<g id="edge13" class="edge">
<title>components/AnswerSection/index.js&#45;&gt;components/AnswerSection/components/SourcesDisplay.js</title>
<path fill="none" stroke="#757575" d="M478.59,-404.59C512.27,-395.22 560.25,-382.81 603,-375.25 619.82,-372.28 637.48,-369.65 655.1,-367.36"/>
<polygon fill="#757575" stroke="#757575" points="655.09,-370.89 664.57,-366.16 654.21,-363.94 655.09,-370.89"/>
</g>
<!-- components/AnswerSection/components/VersionComparison.js -->
<g id="node14" class="node">
<title>components/AnswerSection/components/VersionComparison.js</title>
<path fill="none" stroke="#cfffac" d="M1015.08,-580.5C1015.08,-580.5 611.17,-580.5 611.17,-580.5 607.08,-580.5 603,-576.42 603,-572.33 603,-572.33 603,-564.17 603,-564.17 603,-560.08 607.08,-556 611.17,-556 611.17,-556 1015.08,-556 1015.08,-556 1019.17,-556 1023.25,-560.08 1023.25,-564.17 1023.25,-564.17 1023.25,-572.33 1023.25,-572.33 1023.25,-576.42 1019.17,-580.5 1015.08,-580.5"/>
<text text-anchor="middle" x="813.12" y="-563.2" font-family="Arial" font-size="14.00" fill="#cfffac">components/AnswerSection/components/VersionComparison.js</text>
</g>
<!-- components/AnswerSection/index.js&#45;&gt;components/AnswerSection/components/VersionComparison.js -->
<g id="edge14" class="edge">
<title>components/AnswerSection/index.js&#45;&gt;components/AnswerSection/components/VersionComparison.js</title>
<path fill="none" stroke="#757575" d="M446.66,-429.96C471.95,-456.85 535.41,-519.26 603,-546.25 608.62,-548.49 614.38,-550.54 620.25,-552.4"/>
<polygon fill="#757575" stroke="#757575" points="618.89,-555.65 629.47,-555.13 620.87,-548.94 618.89,-555.65"/>
</g>
<!-- components/AnswerSection/components/VersionControl.js -->
<g id="node15" class="node">
<title>components/AnswerSection/components/VersionControl.js</title>
<path fill="none" stroke="#cfffac" d="M999.33,-537.5C999.33,-537.5 626.92,-537.5 626.92,-537.5 622.83,-537.5 618.75,-533.42 618.75,-529.33 618.75,-529.33 618.75,-521.17 618.75,-521.17 618.75,-517.08 622.83,-513 626.92,-513 626.92,-513 999.33,-513 999.33,-513 1003.42,-513 1007.5,-517.08 1007.5,-521.17 1007.5,-521.17 1007.5,-529.33 1007.5,-529.33 1007.5,-533.42 1003.42,-537.5 999.33,-537.5"/>
<text text-anchor="middle" x="813.12" y="-520.2" font-family="Arial" font-size="14.00" fill="#cfffac">components/AnswerSection/components/VersionControl.js</text>
</g>
<!-- components/AnswerSection/index.js&#45;&gt;components/AnswerSection/components/VersionControl.js -->
<g id="edge15" class="edge">
<title>components/AnswerSection/index.js&#45;&gt;components/AnswerSection/components/VersionControl.js</title>
<path fill="none" stroke="#757575" d="M453.79,-429.75C483.79,-449.16 545.25,-486.07 603,-503.25 611.71,-505.84 620.7,-508.13 629.83,-510.17"/>
<polygon fill="#757575" stroke="#757575" points="629.05,-513.58 639.56,-512.21 630.49,-506.73 629.05,-513.58"/>
</g>
<!-- components/AnswerSection/hooks/useAnswerGeneration.js -->
<g id="node16" class="node">
<title>components/AnswerSection/hooks/useAnswerGeneration.js</title>
<path fill="none" stroke="#c6c5fe" d="M1001.96,-322.5C1001.96,-322.5 624.29,-322.5 624.29,-322.5 620.21,-322.5 616.12,-318.42 616.12,-314.33 616.12,-314.33 616.12,-306.17 616.12,-306.17 616.12,-302.08 620.21,-298 624.29,-298 624.29,-298 1001.96,-298 1001.96,-298 1006.04,-298 1010.12,-302.08 1010.12,-306.17 1010.12,-306.17 1010.12,-314.33 1010.12,-314.33 1010.12,-318.42 1006.04,-322.5 1001.96,-322.5"/>
<text text-anchor="middle" x="813.12" y="-305.2" font-family="Arial" font-size="14.00" fill="#c6c5fe">components/AnswerSection/hooks/useAnswerGeneration.js</text>
</g>
<!-- components/AnswerSection/index.js&#45;&gt;components/AnswerSection/hooks/useAnswerGeneration.js -->
<g id="edge16" class="edge">
<title>components/AnswerSection/index.js&#45;&gt;components/AnswerSection/hooks/useAnswerGeneration.js</title>
<path fill="none" stroke="#757575" d="M454.3,-404.58C484.51,-385.33 545.66,-349.16 603,-332.25 611.87,-329.63 621.04,-327.32 630.35,-325.27"/>
<polygon fill="#757575" stroke="#757575" points="630.77,-328.76 639.86,-323.3 629.35,-321.91 630.77,-328.76"/>
</g>
<!-- components/AnswerSection/hooks/useVersionHistory.js -->
<g id="node18" class="node">
<title>components/AnswerSection/hooks/useVersionHistory.js</title>
<path fill="none" stroke="#cfffac" d="M989.58,-494.5C989.58,-494.5 636.67,-494.5 636.67,-494.5 632.58,-494.5 628.5,-490.42 628.5,-486.33 628.5,-486.33 628.5,-478.17 628.5,-478.17 628.5,-474.08 632.58,-470 636.67,-470 636.67,-470 989.58,-470 989.58,-470 993.67,-470 997.75,-474.08 997.75,-478.17 997.75,-478.17 997.75,-486.33 997.75,-486.33 997.75,-490.42 993.67,-494.5 989.58,-494.5"/>
<text text-anchor="middle" x="813.12" y="-477.2" font-family="Arial" font-size="14.00" fill="#cfffac">components/AnswerSection/hooks/useVersionHistory.js</text>
</g>
<!-- components/AnswerSection/index.js&#45;&gt;components/AnswerSection/hooks/useVersionHistory.js -->
<g id="edge17" class="edge">
<title>components/AnswerSection/index.js&#45;&gt;components/AnswerSection/hooks/useVersionHistory.js</title>
<path fill="none" stroke="#757575" d="M477.53,-429.94C511.24,-439.59 559.77,-452.48 603,-460.25 619.43,-463.2 636.67,-465.8 653.89,-468.08"/>
<polygon fill="#757575" stroke="#757575" points="653.34,-471.54 663.7,-469.34 654.23,-464.6 653.34,-471.54"/>
</g>
<!-- components/Layout/Sidebar.js&#45;&gt;lib/hooks/useAuth.js -->
<g id="edge18" class="edge">
<title>components/Layout/Sidebar.js&#45;&gt;lib/hooks/useAuth.js</title>
<path fill="none" stroke="#757575" d="M538.14,-139.34C598.62,-138.21 673.98,-136.81 730.36,-135.77"/>
<polygon fill="#757575" stroke="#757575" points="730.28,-139.27 740.21,-135.59 730.15,-132.27 730.28,-139.27"/>
</g>
<!-- services/questionApi.js -->
<g id="node17" class="node">
<title>services/questionApi.js</title>
<path fill="none" stroke="#cfffac" d="M1213.33,-302.5C1213.33,-302.5 1067.42,-302.5 1067.42,-302.5 1063.33,-302.5 1059.25,-298.42 1059.25,-294.33 1059.25,-294.33 1059.25,-286.17 1059.25,-286.17 1059.25,-282.08 1063.33,-278 1067.42,-278 1067.42,-278 1213.33,-278 1213.33,-278 1217.42,-278 1221.5,-282.08 1221.5,-286.17 1221.5,-286.17 1221.5,-294.33 1221.5,-294.33 1221.5,-298.42 1217.42,-302.5 1213.33,-302.5"/>
<text text-anchor="middle" x="1140.38" y="-285.2" font-family="Arial" font-size="14.00" fill="#cfffac">services/questionApi.js</text>
</g>
<!-- components/QuestionSection/index.js&#45;&gt;services/questionApi.js -->
<g id="edge21" class="edge">
<title>components/QuestionSection/index.js&#45;&gt;services/questionApi.js</title>
<path fill="none" stroke="#757575" d="M561.84,-268.93C701.82,-274.1 923.78,-282.29 1047.81,-286.87"/>
<polygon fill="#757575" stroke="#757575" points="1047.5,-290.36 1057.62,-287.23 1047.76,-283.37 1047.5,-290.36"/>
</g>
<!-- components/QuestionSection/DropdownMenu.js -->
<g id="node19" class="node">
<title>components/QuestionSection/DropdownMenu.js</title>
<path fill="none" stroke="#cfffac" d="M965.58,-199.5C965.58,-199.5 660.67,-199.5 660.67,-199.5 656.58,-199.5 652.5,-195.42 652.5,-191.33 652.5,-191.33 652.5,-183.17 652.5,-183.17 652.5,-179.08 656.58,-175 660.67,-175 660.67,-175 965.58,-175 965.58,-175 969.67,-175 973.75,-179.08 973.75,-183.17 973.75,-183.17 973.75,-191.33 973.75,-191.33 973.75,-195.42 969.67,-199.5 965.58,-199.5"/>
<text text-anchor="middle" x="813.12" y="-182.2" font-family="Arial" font-size="14.00" fill="#cfffac">components/QuestionSection/DropdownMenu.js</text>
</g>
<!-- components/QuestionSection/index.js&#45;&gt;components/QuestionSection/DropdownMenu.js -->
<g id="edge19" class="edge">
<title>components/QuestionSection/index.js&#45;&gt;components/QuestionSection/DropdownMenu.js</title>
<path fill="none" stroke="#757575" d="M543.27,-251.55C551.48,-248.98 559.49,-245.91 567,-242.25 586.51,-232.74 583.21,-218.17 603,-209.25 615.03,-203.83 627.82,-199.5 640.94,-196.07"/>
<polygon fill="#757575" stroke="#757575" points="641.65,-199.5 650.54,-193.74 640,-192.69 641.65,-199.5"/>
</g>
<!-- components/QuestionSection/QuestionInput.js -->
<g id="node20" class="node">
<title>components/QuestionSection/QuestionInput.js</title>
<path fill="none" stroke="#cfffac" d="M959.96,-242.5C959.96,-242.5 666.29,-242.5 666.29,-242.5 662.21,-242.5 658.12,-238.42 658.12,-234.33 658.12,-234.33 658.12,-226.17 658.12,-226.17 658.12,-222.08 662.21,-218 666.29,-218 666.29,-218 959.96,-218 959.96,-218 964.04,-218 968.12,-222.08 968.12,-226.17 968.12,-226.17 968.12,-234.33 968.12,-234.33 968.12,-238.42 964.04,-242.5 959.96,-242.5"/>
<text text-anchor="middle" x="813.12" y="-225.2" font-family="Arial" font-size="14.00" fill="#cfffac">components/QuestionSection/QuestionInput.js</text>
</g>
<!-- components/QuestionSection/index.js&#45;&gt;components/QuestionSection/QuestionInput.js -->
<g id="edge20" class="edge">
<title>components/QuestionSection/index.js&#45;&gt;components/QuestionSection/QuestionInput.js</title>
<path fill="none" stroke="#757575" d="M562.23,-252.79C593.5,-249.97 627.29,-246.92 659.62,-244"/>
<polygon fill="#757575" stroke="#757575" points="659.83,-247.5 669.48,-243.11 659.2,-240.53 659.83,-247.5"/>
</g>
<!-- services/referenceApi.js -->
<g id="node21" class="node">
<title>services/referenceApi.js</title>
<path fill="none" stroke="#cfffac" d="M889.83,-24.5C889.83,-24.5 736.42,-24.5 736.42,-24.5 732.33,-24.5 728.25,-20.42 728.25,-16.33 728.25,-16.33 728.25,-8.17 728.25,-8.17 728.25,-4.08 732.33,0 736.42,0 736.42,0 889.83,0 889.83,0 893.92,0 898,-4.08 898,-8.17 898,-8.17 898,-16.33 898,-16.33 898,-20.42 893.92,-24.5 889.83,-24.5"/>
<text text-anchor="middle" x="813.12" y="-7.2" font-family="Arial" font-size="14.00" fill="#cfffac">services/referenceApi.js</text>
</g>
<!-- components/ReferenceSection/index.js&#45;&gt;services/referenceApi.js -->
<g id="edge22" class="edge">
<title>components/ReferenceSection/index.js&#45;&gt;services/referenceApi.js</title>
<path fill="none" stroke="#757575" d="M567.25,-12.25C616.46,-12.25 671.31,-12.25 716.61,-12.25"/>
<polygon fill="#757575" stroke="#757575" points="716.4,-15.75 726.4,-12.25 716.4,-8.75 716.4,-15.75"/>
</g>
<!-- components/auth/LoginPage.js&#45;&gt;lib/hooks/useAuth.js -->
<g id="edge24" class="edge">
<title>components/auth/LoginPage.js&#45;&gt;lib/hooks/useAuth.js</title>
<path fill="none" stroke="#757575" d="M540.39,-108.3C600.52,-114.04 674.78,-121.13 730.46,-126.45"/>
<polygon fill="#757575" stroke="#757575" points="729.9,-129.91 740.19,-127.38 730.57,-122.95 729.9,-129.91"/>
</g>
<!-- components/auth/AuthLayout.js -->
<g id="node22" class="node">
<title>components/auth/AuthLayout.js</title>
<path fill="none" stroke="#cfffac" d="M911.58,-83.5C911.58,-83.5 714.67,-83.5 714.67,-83.5 710.58,-83.5 706.5,-79.42 706.5,-75.33 706.5,-75.33 706.5,-67.17 706.5,-67.17 706.5,-63.08 710.58,-59 714.67,-59 714.67,-59 911.58,-59 911.58,-59 915.67,-59 919.75,-63.08 919.75,-67.17 919.75,-67.17 919.75,-75.33 919.75,-75.33 919.75,-79.42 915.67,-83.5 911.58,-83.5"/>
<text text-anchor="middle" x="813.12" y="-66.2" font-family="Arial" font-size="14.00" fill="#cfffac">components/auth/AuthLayout.js</text>
</g>
<!-- components/auth/LoginPage.js&#45;&gt;components/auth/AuthLayout.js -->
<g id="edge23" class="edge">
<title>components/auth/LoginPage.js&#45;&gt;components/auth/AuthLayout.js</title>
<path fill="none" stroke="#757575" d="M540.39,-90.71C588.39,-87.27 645.4,-83.19 694.78,-79.65"/>
<polygon fill="#757575" stroke="#757575" points="694.94,-83.15 704.66,-78.95 694.44,-76.17 694.94,-83.15"/>
</g>
<!-- components/auth/SignupPage.js&#45;&gt;lib/hooks/useAuth.js -->
<g id="edge26" class="edge">
<title>components/auth/SignupPage.js&#45;&gt;lib/hooks/useAuth.js</title>
<path fill="none" stroke="#757575" d="M527.96,-67.97C541.17,-70.58 554.51,-73.66 567,-77.25 583.66,-82.04 586.42,-87.19 603,-92.25 644.42,-104.9 691.64,-114.76 730.72,-121.74"/>
<polygon fill="#757575" stroke="#757575" points="730.1,-125.18 740.55,-123.46 731.3,-118.29 730.1,-125.18"/>
</g>
<!-- components/auth/SignupPage.js&#45;&gt;components/auth/AuthLayout.js -->
<g id="edge25" class="edge">
<title>components/auth/SignupPage.js&#45;&gt;components/auth/AuthLayout.js</title>
<path fill="none" stroke="#757575" d="M544.93,-59.91C591.92,-61.9 646.86,-64.24 694.66,-66.26"/>
<polygon fill="#757575" stroke="#757575" points="694.36,-69.76 704.5,-66.68 694.66,-62.76 694.36,-69.76"/>
</g>
<!-- services/auth.js -->
<g id="node25" class="node">
<title>services/auth.js</title>
<path fill="none" stroke="#cfffac" d="M1188.96,-146.5C1188.96,-146.5 1091.79,-146.5 1091.79,-146.5 1087.71,-146.5 1083.62,-142.42 1083.62,-138.33 1083.62,-138.33 1083.62,-130.17 1083.62,-130.17 1083.62,-126.08 1087.71,-122 1091.79,-122 1091.79,-122 1188.96,-122 1188.96,-122 1193.04,-122 1197.12,-126.08 1197.12,-130.17 1197.12,-130.17 1197.12,-138.33 1197.12,-138.33 1197.12,-142.42 1193.04,-146.5 1188.96,-146.5"/>
<text text-anchor="middle" x="1140.38" y="-129.2" font-family="Arial" font-size="14.00" fill="#cfffac">services/auth.js</text>
</g>
<!-- lib/hooks/useAuth.js&#45;&gt;services/auth.js -->
<g id="edge29" class="edge">
<title>lib/hooks/useAuth.js&#45;&gt;services/auth.js</title>
<path fill="none" stroke="#757575" d="M884.3,-134.25C939.92,-134.25 1017.13,-134.25 1072.01,-134.25"/>
<polygon fill="#757575" stroke="#757575" points="1071.85,-137.75 1081.85,-134.25 1071.85,-130.75 1071.85,-137.75"/>
</g>
<!-- App.test.js -->
<g id="node10" class="node">
<title>App.test.js</title>
<path fill="none" stroke="#c6c5fe" d="M110.21,-173.5C110.21,-173.5 43.04,-173.5 43.04,-173.5 38.96,-173.5 34.88,-169.42 34.88,-165.33 34.88,-165.33 34.88,-157.17 34.88,-157.17 34.88,-153.08 38.96,-149 43.04,-149 43.04,-149 110.21,-149 110.21,-149 114.29,-149 118.38,-153.08 118.38,-157.17 118.38,-157.17 118.38,-165.33 118.38,-165.33 118.38,-169.42 114.29,-173.5 110.21,-173.5"/>
<text text-anchor="middle" x="76.62" y="-156.2" font-family="Arial" font-size="14.00" fill="#c6c5fe">App.test.js</text>
</g>
<!-- App.test.js&#45;&gt;App.js -->
<g id="edge9" class="edge">
<title>App.test.js&#45;&gt;App.js</title>
<path fill="none" stroke="#757575" d="M118.63,-161.25C139.99,-161.25 165.98,-161.25 187.07,-161.25"/>
<polygon fill="#757575" stroke="#757575" points="187.02,-164.75 197.02,-161.25 187.02,-157.75 187.02,-164.75"/>
</g>
<!-- components/AnswerSection/hooks/useAnswerGeneration.js&#45;&gt;services/questionApi.js -->
<g id="edge10" class="edge">
<title>components/AnswerSection/hooks/useAnswerGeneration.js&#45;&gt;services/questionApi.js</title>
<path fill="none" stroke="#757575" d="M1010.36,-298.18C1023.17,-297.4 1035.69,-296.63 1047.58,-295.89"/>
<polygon fill="#757575" stroke="#757575" points="1047.5,-299.41 1057.27,-295.3 1047.07,-292.42 1047.5,-299.41"/>
</g>
<!-- index.css -->
<g id="node23" class="node">
<title>index.css</title>
<path fill="none" stroke="#cfffac" d="M257.08,-130.5C257.08,-130.5 197.42,-130.5 197.42,-130.5 193.33,-130.5 189.25,-126.42 189.25,-122.33 189.25,-122.33 189.25,-114.17 189.25,-114.17 189.25,-110.08 193.33,-106 197.42,-106 197.42,-106 257.08,-106 257.08,-106 261.17,-106 265.25,-110.08 265.25,-114.17 265.25,-114.17 265.25,-122.33 265.25,-122.33 265.25,-126.42 261.17,-130.5 257.08,-130.5"/>
<text text-anchor="middle" x="227.25" y="-113.2" font-family="Arial" font-size="14.00" fill="#cfffac">index.css</text>
</g>
<!-- index.js -->
<g id="node24" class="node">
<title>index.js</title>
<path fill="none" stroke="#c6c5fe" d="M100.46,-130.5C100.46,-130.5 52.79,-130.5 52.79,-130.5 48.71,-130.5 44.62,-126.42 44.62,-122.33 44.62,-122.33 44.62,-114.17 44.62,-114.17 44.62,-110.08 48.71,-106 52.79,-106 52.79,-106 100.46,-106 100.46,-106 104.54,-106 108.62,-110.08 108.62,-114.17 108.62,-114.17 108.62,-122.33 108.62,-122.33 108.62,-126.42 104.54,-130.5 100.46,-130.5"/>
<text text-anchor="middle" x="76.62" y="-113.2" font-family="Arial" font-size="14.00" fill="#c6c5fe">index.js</text>
</g>
<!-- index.js&#45;&gt;App.js -->
<g id="edge27" class="edge">
<title>index.js&#45;&gt;App.js</title>
<path fill="none" stroke="#757575" d="M108.78,-127.26C131.81,-133.93 163.31,-143.04 187.89,-150.15"/>
<polygon fill="#757575" stroke="#757575" points="186.6,-153.42 197.18,-152.84 188.55,-146.7 186.6,-153.42"/>
</g>
<!-- index.js&#45;&gt;index.css -->
<g id="edge28" class="edge">
<title>index.js&#45;&gt;index.css</title>
<path fill="none" stroke="#757575" d="M108.78,-118.25C128.64,-118.25 154.8,-118.25 177.38,-118.25"/>
<polygon fill="#757575" stroke="#757575" points="177.31,-121.75 187.31,-118.25 177.31,-114.75 177.31,-121.75"/>
</g>
<!-- lib/utils.js -->
<g id="node26" class="node">
<title>lib/utils.js</title>
<path fill="none" stroke="#cfffac" d="M104.96,-216.5C104.96,-216.5 48.29,-216.5 48.29,-216.5 44.21,-216.5 40.12,-212.42 40.12,-208.33 40.12,-208.33 40.12,-200.17 40.12,-200.17 40.12,-196.08 44.21,-192 48.29,-192 48.29,-192 104.96,-192 104.96,-192 109.04,-192 113.12,-196.08 113.12,-200.17 113.12,-200.17 113.12,-208.33 113.12,-208.33 113.12,-212.42 109.04,-216.5 104.96,-216.5"/>
<text text-anchor="middle" x="76.62" y="-199.2" font-family="Arial" font-size="14.00" fill="#cfffac">lib/utils.js</text>
</g>
<!-- reportWebVitals.js -->
<g id="node27" class="node">
<title>reportWebVitals.js</title>
<path fill="none" stroke="#cfffac" d="M134.96,-259.5C134.96,-259.5 18.29,-259.5 18.29,-259.5 14.21,-259.5 10.12,-255.42 10.12,-251.33 10.12,-251.33 10.12,-243.17 10.12,-243.17 10.12,-239.08 14.21,-235 18.29,-235 18.29,-235 134.96,-235 134.96,-235 139.04,-235 143.12,-239.08 143.12,-243.17 143.12,-243.17 143.12,-251.33 143.12,-251.33 143.12,-255.42 139.04,-259.5 134.96,-259.5"/>
<text text-anchor="middle" x="76.62" y="-242.2" font-family="Arial" font-size="14.00" fill="#cfffac">reportWebVitals.js</text>
</g>
<!-- services/answerApi.js -->
<g id="node28" class="node">
<title>services/answerApi.js</title>
<path fill="none" stroke="#cfffac" d="M145.08,-302.5C145.08,-302.5 8.17,-302.5 8.17,-302.5 4.08,-302.5 0,-298.42 0,-294.33 0,-294.33 0,-286.17 0,-286.17 0,-282.08 4.08,-278 8.17,-278 8.17,-278 145.08,-278 145.08,-278 149.17,-278 153.25,-282.08 153.25,-286.17 153.25,-286.17 153.25,-294.33 153.25,-294.33 153.25,-298.42 149.17,-302.5 145.08,-302.5"/>
<text text-anchor="middle" x="76.62" y="-285.2" font-family="Arial" font-size="14.00" fill="#cfffac">services/answerApi.js</text>
</g>
<!-- setupTests.js -->
<g id="node29" class="node">
<title>setupTests.js</title>
<path fill="none" stroke="#cfffac" d="M119.21,-345.5C119.21,-345.5 34.04,-345.5 34.04,-345.5 29.96,-345.5 25.88,-341.42 25.88,-337.33 25.88,-337.33 25.88,-329.17 25.88,-329.17 25.88,-325.08 29.96,-321 34.04,-321 34.04,-321 119.21,-321 119.21,-321 123.29,-321 127.38,-325.08 127.38,-329.17 127.38,-329.17 127.38,-337.33 127.38,-337.33 127.38,-341.42 123.29,-345.5 119.21,-345.5"/>
<text text-anchor="middle" x="76.62" y="-328.2" font-family="Arial" font-size="14.00" fill="#cfffac">setupTests.js</text>
</g>
</g>
</svg>
