<?xml version="1.0" encoding="UTF-8" standalone="no"?>
<!DOCTYPE svg PUBLIC "-//W3C//DTD SVG 1.1//EN"
 "http://www.w3.org/Graphics/SVG/1.1/DTD/svg11.dtd">
<!-- Generated by graphviz version 11.0.0 (20240428.1522)
 -->
<!-- Title: G Pages: 1 -->
<svg width="1505pt" height="613pt"
 viewBox="0.00 0.00 1505.45 612.70" xmlns="http://www.w3.org/2000/svg" xmlns:xlink="http://www.w3.org/1999/xlink">
<g id="graph0" class="graph" transform="scale(1 1) rotate(0) translate(21.6 591.1)">
<title>G</title>
<polygon fill="#111111" stroke="none" points="-21.6,21.6 -21.6,-591.1 1483.85,-591.1 1483.85,21.6 -21.6,21.6"/>
<!-- App.js -->
<g id="node1" class="node">
<title>App.js</title>
<path fill="none" stroke="#c6c5fe" d="M488.08,-174.5C488.08,-174.5 447.92,-174.5 447.92,-174.5 443.83,-174.5 439.75,-170.42 439.75,-166.33 439.75,-166.33 439.75,-158.17 439.75,-158.17 439.75,-154.08 443.83,-150 447.92,-150 447.92,-150 488.08,-150 488.08,-150 492.17,-150 496.25,-154.08 496.25,-158.17 496.25,-158.17 496.25,-166.33 496.25,-166.33 496.25,-170.42 492.17,-174.5 488.08,-174.5"/>
<text text-anchor="middle" x="468" y="-157.2" font-family="Arial" font-size="14.00" fill="#c6c5fe">App.js</text>
</g>
<!-- components/AnswerSection/index.js -->
<g id="node2" class="node">
<title>components/AnswerSection/index.js</title>
<path fill="none" stroke="#c6c5fe" d="M789.46,-397.5C789.46,-397.5 560.29,-397.5 560.29,-397.5 556.21,-397.5 552.12,-393.42 552.12,-389.33 552.12,-389.33 552.12,-381.17 552.12,-381.17 552.12,-377.08 556.21,-373 560.29,-373 560.29,-373 789.46,-373 789.46,-373 793.54,-373 797.62,-377.08 797.62,-381.17 797.62,-381.17 797.62,-389.33 797.62,-389.33 797.62,-393.42 793.54,-397.5 789.46,-397.5"/>
<text text-anchor="middle" x="674.88" y="-380.2" font-family="Arial" font-size="14.00" fill="#c6c5fe">components/AnswerSection/index.js</text>
</g>
<!-- App.js&#45;&gt;components/AnswerSection/index.js -->
<g id="edge1" class="edge">
<title>App.js&#45;&gt;components/AnswerSection/index.js</title>
<path fill="none" stroke="#757575" d="M474.45,-174.8C485.06,-198.28 510.25,-249.68 542,-285.25 571.78,-318.61 614.1,-348.37 642.7,-366.58"/>
<polygon fill="#757575" stroke="#757575" points="640.58,-369.38 650.92,-371.72 644.3,-363.45 640.58,-369.38"/>
</g>
<!-- components/Layout/ResizablePanel.js -->
<g id="node3" class="node">
<title>components/Layout/ResizablePanel.js</title>
<path fill="none" stroke="#cfffac" d="M795.46,-110.5C795.46,-110.5 554.29,-110.5 554.29,-110.5 550.21,-110.5 546.12,-106.42 546.12,-102.33 546.12,-102.33 546.12,-94.17 546.12,-94.17 546.12,-90.08 550.21,-86 554.29,-86 554.29,-86 795.46,-86 795.46,-86 799.54,-86 803.62,-90.08 803.62,-94.17 803.62,-94.17 803.62,-102.33 803.62,-102.33 803.62,-106.42 799.54,-110.5 795.46,-110.5"/>
<text text-anchor="middle" x="674.88" y="-93.2" font-family="Arial" font-size="14.00" fill="#cfffac">components/Layout/ResizablePanel.js</text>
</g>
<!-- App.js&#45;&gt;components/Layout/ResizablePanel.js -->
<g id="edge2" class="edge">
<title>App.js&#45;&gt;components/Layout/ResizablePanel.js</title>
<path fill="none" stroke="#757575" d="M490.55,-149.6C511.07,-137.6 539.23,-121.24 542,-120.25 548.82,-117.81 555.94,-115.64 563.18,-113.7"/>
<polygon fill="#757575" stroke="#757575" points="563.91,-117.13 572.77,-111.31 562.22,-110.33 563.91,-117.13"/>
</g>
<!-- components/Layout/Sidebar.js -->
<g id="node4" class="node">
<title>components/Layout/Sidebar.js</title>
<path fill="none" stroke="#c6c5fe" d="M770.71,-276.5C770.71,-276.5 579.04,-276.5 579.04,-276.5 574.96,-276.5 570.88,-272.42 570.88,-268.33 570.88,-268.33 570.88,-260.17 570.88,-260.17 570.88,-256.08 574.96,-252 579.04,-252 579.04,-252 770.71,-252 770.71,-252 774.79,-252 778.88,-256.08 778.88,-260.17 778.88,-260.17 778.88,-268.33 778.88,-268.33 778.88,-272.42 774.79,-276.5 770.71,-276.5"/>
<text text-anchor="middle" x="674.88" y="-259.2" font-family="Arial" font-size="14.00" fill="#c6c5fe">components/Layout/Sidebar.js</text>
</g>
<!-- App.js&#45;&gt;components/Layout/Sidebar.js -->
<g id="edge3" class="edge">
<title>App.js&#45;&gt;components/Layout/Sidebar.js</title>
<path fill="none" stroke="#757575" d="M477.24,-174.77C489.29,-191.99 513.42,-222.63 542,-238.25 548.89,-242.01 556.25,-245.24 563.83,-248"/>
<polygon fill="#757575" stroke="#757575" points="562.64,-251.29 573.24,-251.13 564.85,-244.65 562.64,-251.29"/>
</g>
<!-- components/QuestionSection/index.js -->
<g id="node5" class="node">
<title>components/QuestionSection/index.js</title>
<path fill="none" stroke="#c6c5fe" d="M794.33,-67.5C794.33,-67.5 555.42,-67.5 555.42,-67.5 551.33,-67.5 547.25,-63.42 547.25,-59.33 547.25,-59.33 547.25,-51.17 547.25,-51.17 547.25,-47.08 551.33,-43 555.42,-43 555.42,-43 794.33,-43 794.33,-43 798.42,-43 802.5,-47.08 802.5,-51.17 802.5,-51.17 802.5,-59.33 802.5,-59.33 802.5,-63.42 798.42,-67.5 794.33,-67.5"/>
<text text-anchor="middle" x="674.88" y="-50.2" font-family="Arial" font-size="14.00" fill="#c6c5fe">components/QuestionSection/index.js</text>
</g>
<!-- App.js&#45;&gt;components/QuestionSection/index.js -->
<g id="edge4" class="edge">
<title>App.js&#45;&gt;components/QuestionSection/index.js</title>
<path fill="none" stroke="#757575" d="M494.18,-149.7C498.41,-146.93 502.54,-143.77 506,-140.25 528.61,-117.25 515.54,-95.68 542,-77.25 544.09,-75.79 546.24,-74.42 548.45,-73.13"/>
<polygon fill="#757575" stroke="#757575" points="549.82,-76.36 557.09,-68.66 546.6,-70.15 549.82,-76.36"/>
</g>
<!-- components/ReferenceSection/index.js -->
<g id="node6" class="node">
<title>components/ReferenceSection/index.js</title>
<path fill="none" stroke="#c6c5fe" d="M799.58,-24.5C799.58,-24.5 550.17,-24.5 550.17,-24.5 546.08,-24.5 542,-20.42 542,-16.33 542,-16.33 542,-8.17 542,-8.17 542,-4.08 546.08,0 550.17,0 550.17,0 799.58,0 799.58,0 803.67,0 807.75,-4.08 807.75,-8.17 807.75,-8.17 807.75,-16.33 807.75,-16.33 807.75,-20.42 803.67,-24.5 799.58,-24.5"/>
<text text-anchor="middle" x="674.88" y="-7.2" font-family="Arial" font-size="14.00" fill="#c6c5fe">components/ReferenceSection/index.js</text>
</g>
<!-- App.js&#45;&gt;components/ReferenceSection/index.js -->
<g id="edge5" class="edge">
<title>App.js&#45;&gt;components/ReferenceSection/index.js</title>
<path fill="none" stroke="#757575" d="M495.52,-149.7C499.41,-147 503.08,-143.85 506,-140.25 537.32,-101.59 504.09,-66.47 542,-34.25 543.3,-33.15 544.63,-32.09 546,-31.07"/>
<polygon fill="#757575" stroke="#757575" points="547.64,-34.18 554.14,-25.81 543.85,-28.3 547.64,-34.18"/>
</g>
<!-- components/auth/LoginPage.js -->
<g id="node7" class="node">
<title>components/auth/LoginPage.js</title>
<path fill="none" stroke="#c6c5fe" d="M772.58,-196.5C772.58,-196.5 577.17,-196.5 577.17,-196.5 573.08,-196.5 569,-192.42 569,-188.33 569,-188.33 569,-180.17 569,-180.17 569,-176.08 573.08,-172 577.17,-172 577.17,-172 772.58,-172 772.58,-172 776.67,-172 780.75,-176.08 780.75,-180.17 780.75,-180.17 780.75,-188.33 780.75,-188.33 780.75,-192.42 776.67,-196.5 772.58,-196.5"/>
<text text-anchor="middle" x="674.88" y="-179.2" font-family="Arial" font-size="14.00" fill="#c6c5fe">components/auth/LoginPage.js</text>
</g>
<!-- App.js&#45;&gt;components/auth/LoginPage.js -->
<g id="edge6" class="edge">
<title>App.js&#45;&gt;components/auth/LoginPage.js</title>
<path fill="none" stroke="#757575" d="M496.63,-165.22C512.87,-166.96 534.62,-169.3 557.32,-171.73"/>
<polygon fill="#757575" stroke="#757575" points="556.69,-175.19 567.01,-172.77 557.44,-168.23 556.69,-175.19"/>
</g>
<!-- components/auth/SignupPage.js -->
<g id="node8" class="node">
<title>components/auth/SignupPage.js</title>
<path fill="none" stroke="#c6c5fe" d="M777.08,-153.5C777.08,-153.5 572.67,-153.5 572.67,-153.5 568.58,-153.5 564.5,-149.42 564.5,-145.33 564.5,-145.33 564.5,-137.17 564.5,-137.17 564.5,-133.08 568.58,-129 572.67,-129 572.67,-129 777.08,-129 777.08,-129 781.17,-129 785.25,-133.08 785.25,-137.17 785.25,-137.17 785.25,-145.33 785.25,-145.33 785.25,-149.42 781.17,-153.5 777.08,-153.5"/>
<text text-anchor="middle" x="674.88" y="-136.2" font-family="Arial" font-size="14.00" fill="#c6c5fe">components/auth/SignupPage.js</text>
</g>
<!-- App.js&#45;&gt;components/auth/SignupPage.js -->
<g id="edge7" class="edge">
<title>App.js&#45;&gt;components/auth/SignupPage.js</title>
<path fill="none" stroke="#757575" d="M496.63,-159.42C511.88,-157.85 532,-155.79 553.2,-153.62"/>
<polygon fill="#757575" stroke="#757575" points="553.27,-157.13 562.86,-152.63 552.55,-150.17 553.27,-157.13"/>
</g>
<!-- lib/hooks/useAuth.js -->
<g id="node9" class="node">
<title>lib/hooks/useAuth.js</title>
<path fill="none" stroke="#c6c5fe" d="M1116.71,-226.5C1116.71,-226.5 991.04,-226.5 991.04,-226.5 986.96,-226.5 982.88,-222.42 982.88,-218.33 982.88,-218.33 982.88,-210.17 982.88,-210.17 982.88,-206.08 986.96,-202 991.04,-202 991.04,-202 1116.71,-202 1116.71,-202 1120.79,-202 1124.88,-206.08 1124.88,-210.17 1124.88,-210.17 1124.88,-218.33 1124.88,-218.33 1124.88,-222.42 1120.79,-226.5 1116.71,-226.5"/>
<text text-anchor="middle" x="1053.88" y="-209.2" font-family="Arial" font-size="14.00" fill="#c6c5fe">lib/hooks/useAuth.js</text>
</g>
<!-- App.js&#45;&gt;lib/hooks/useAuth.js -->
<g id="edge8" class="edge">
<title>App.js&#45;&gt;lib/hooks/useAuth.js</title>
<path fill="none" stroke="#757575" d="M484.98,-174.97C499.07,-185.34 520.62,-199.22 542,-205.25 688.89,-246.69 869.09,-236.49 971.48,-225.35"/>
<polygon fill="#757575" stroke="#757575" points="971.61,-228.86 981.16,-224.26 970.83,-221.9 971.61,-228.86"/>
</g>
<!-- components/AnswerSection/components/ActionBar.js -->
<g id="node11" class="node">
<title>components/AnswerSection/components/ActionBar.js</title>
<path fill="none" stroke="#cfffac" d="M1223.58,-440.5C1223.58,-440.5 884.17,-440.5 884.17,-440.5 880.08,-440.5 876,-436.42 876,-432.33 876,-432.33 876,-424.17 876,-424.17 876,-420.08 880.08,-416 884.17,-416 884.17,-416 1223.58,-416 1223.58,-416 1227.67,-416 1231.75,-420.08 1231.75,-424.17 1231.75,-424.17 1231.75,-432.33 1231.75,-432.33 1231.75,-436.42 1227.67,-440.5 1223.58,-440.5"/>
<text text-anchor="middle" x="1053.88" y="-423.2" font-family="Arial" font-size="14.00" fill="#cfffac">components/AnswerSection/components/ActionBar.js</text>
</g>
<!-- components/AnswerSection/index.js&#45;&gt;components/AnswerSection/components/ActionBar.js -->
<g id="edge11" class="edge">
<title>components/AnswerSection/index.js&#45;&gt;components/AnswerSection/components/ActionBar.js</title>
<path fill="none" stroke="#757575" d="M774.81,-397.95C797.46,-400.77 821.43,-403.68 843.75,-406.25 867.23,-408.95 892.21,-411.7 916.43,-414.29"/>
<polygon fill="#757575" stroke="#757575" points="916.05,-417.77 926.37,-415.34 916.79,-410.81 916.05,-417.77"/>
</g>
<!-- components/AnswerSection/components/Editor.js -->
<g id="node12" class="node">
<title>components/AnswerSection/components/Editor.js</title>
<path fill="none" stroke="#cfffac" d="M1211.58,-397.5C1211.58,-397.5 896.17,-397.5 896.17,-397.5 892.08,-397.5 888,-393.42 888,-389.33 888,-389.33 888,-381.17 888,-381.17 888,-377.08 892.08,-373 896.17,-373 896.17,-373 1211.58,-373 1211.58,-373 1215.67,-373 1219.75,-377.08 1219.75,-381.17 1219.75,-381.17 1219.75,-389.33 1219.75,-389.33 1219.75,-393.42 1215.67,-397.5 1211.58,-397.5"/>
<text text-anchor="middle" x="1053.88" y="-380.2" font-family="Arial" font-size="14.00" fill="#cfffac">components/AnswerSection/components/Editor.js</text>
</g>
<!-- components/AnswerSection/index.js&#45;&gt;components/AnswerSection/components/Editor.js -->
<g id="edge12" class="edge">
<title>components/AnswerSection/index.js&#45;&gt;components/AnswerSection/components/Editor.js</title>
<path fill="none" stroke="#757575" d="M798.02,-385.25C823.04,-385.25 849.86,-385.25 876.36,-385.25"/>
<polygon fill="#757575" stroke="#757575" points="876.18,-388.75 886.18,-385.25 876.18,-381.75 876.18,-388.75"/>
</g>
<!-- components/AnswerSection/components/VersionComparison.js -->
<g id="node14" class="node">
<title>components/AnswerSection/components/VersionComparison.js</title>
<path fill="none" stroke="#cfffac" d="M1255.83,-354.5C1255.83,-354.5 851.92,-354.5 851.92,-354.5 847.83,-354.5 843.75,-350.42 843.75,-346.33 843.75,-346.33 843.75,-338.17 843.75,-338.17 843.75,-334.08 847.83,-330 851.92,-330 851.92,-330 1255.83,-330 1255.83,-330 1259.92,-330 1264,-334.08 1264,-338.17 1264,-338.17 1264,-346.33 1264,-346.33 1264,-350.42 1259.92,-354.5 1255.83,-354.5"/>
<text text-anchor="middle" x="1053.88" y="-337.2" font-family="Arial" font-size="14.00" fill="#cfffac">components/AnswerSection/components/VersionComparison.js</text>
</g>
<!-- components/AnswerSection/index.js&#45;&gt;components/AnswerSection/components/VersionComparison.js -->
<g id="edge13" class="edge">
<title>components/AnswerSection/index.js&#45;&gt;components/AnswerSection/components/VersionComparison.js</title>
<path fill="none" stroke="#757575" d="M774.81,-372.55C797.46,-369.73 821.43,-366.82 843.75,-364.25 867.23,-361.55 892.21,-358.8 916.43,-356.21"/>
<polygon fill="#757575" stroke="#757575" points="916.79,-359.69 926.37,-355.16 916.05,-352.73 916.79,-359.69"/>
</g>
<!-- components/AnswerSection/components/VersionControl.js -->
<g id="node15" class="node">
<title>components/AnswerSection/components/VersionControl.js</title>
<path fill="none" stroke="#cfffac" d="M1240.08,-311.5C1240.08,-311.5 867.67,-311.5 867.67,-311.5 863.58,-311.5 859.5,-307.42 859.5,-303.33 859.5,-303.33 859.5,-295.17 859.5,-295.17 859.5,-291.08 863.58,-287 867.67,-287 867.67,-287 1240.08,-287 1240.08,-287 1244.17,-287 1248.25,-291.08 1248.25,-295.17 1248.25,-295.17 1248.25,-303.33 1248.25,-303.33 1248.25,-307.42 1244.17,-311.5 1240.08,-311.5"/>
<text text-anchor="middle" x="1053.88" y="-294.2" font-family="Arial" font-size="14.00" fill="#cfffac">components/AnswerSection/components/VersionControl.js</text>
</g>
<!-- components/AnswerSection/index.js&#45;&gt;components/AnswerSection/components/VersionControl.js -->
<g id="edge14" class="edge">
<title>components/AnswerSection/index.js&#45;&gt;components/AnswerSection/components/VersionControl.js</title>
<path fill="none" stroke="#757575" d="M702.52,-372.61C735.07,-357.75 792.18,-333.57 843.75,-321.25 855.63,-318.41 867.97,-315.94 880.46,-313.79"/>
<polygon fill="#757575" stroke="#757575" points="880.67,-317.3 889.97,-312.22 879.53,-310.39 880.67,-317.3"/>
</g>
<!-- components/AnswerSection/hooks/useAnswerGeneration.js -->
<g id="node16" class="node">
<title>components/AnswerSection/hooks/useAnswerGeneration.js</title>
<path fill="none" stroke="#c6c5fe" d="M1242.71,-526.5C1242.71,-526.5 865.04,-526.5 865.04,-526.5 860.96,-526.5 856.88,-522.42 856.88,-518.33 856.88,-518.33 856.88,-510.17 856.88,-510.17 856.88,-506.08 860.96,-502 865.04,-502 865.04,-502 1242.71,-502 1242.71,-502 1246.79,-502 1250.88,-506.08 1250.88,-510.17 1250.88,-510.17 1250.88,-518.33 1250.88,-518.33 1250.88,-522.42 1246.79,-526.5 1242.71,-526.5"/>
<text text-anchor="middle" x="1053.88" y="-509.2" font-family="Arial" font-size="14.00" fill="#c6c5fe">components/AnswerSection/hooks/useAnswerGeneration.js</text>
</g>
<!-- components/AnswerSection/index.js&#45;&gt;components/AnswerSection/hooks/useAnswerGeneration.js -->
<g id="edge15" class="edge">
<title>components/AnswerSection/index.js&#45;&gt;components/AnswerSection/hooks/useAnswerGeneration.js</title>
<path fill="none" stroke="#757575" d="M690.36,-397.86C718,-421.12 781.11,-470.36 843.75,-492.25 850.62,-494.65 857.68,-496.81 864.87,-498.75"/>
<polygon fill="#757575" stroke="#757575" points="863.85,-502.1 874.4,-501.16 865.56,-495.31 863.85,-502.1"/>
</g>
<!-- components/AnswerSection/hooks/useVersionHistory.js -->
<g id="node18" class="node">
<title>components/AnswerSection/hooks/useVersionHistory.js</title>
<path fill="none" stroke="#cfffac" d="M1230.33,-483.5C1230.33,-483.5 877.42,-483.5 877.42,-483.5 873.33,-483.5 869.25,-479.42 869.25,-475.33 869.25,-475.33 869.25,-467.17 869.25,-467.17 869.25,-463.08 873.33,-459 877.42,-459 877.42,-459 1230.33,-459 1230.33,-459 1234.42,-459 1238.5,-463.08 1238.5,-467.17 1238.5,-467.17 1238.5,-475.33 1238.5,-475.33 1238.5,-479.42 1234.42,-483.5 1230.33,-483.5"/>
<text text-anchor="middle" x="1053.88" y="-466.2" font-family="Arial" font-size="14.00" fill="#cfffac">components/AnswerSection/hooks/useVersionHistory.js</text>
</g>
<!-- components/AnswerSection/index.js&#45;&gt;components/AnswerSection/hooks/useVersionHistory.js -->
<g id="edge16" class="edge">
<title>components/AnswerSection/index.js&#45;&gt;components/AnswerSection/hooks/useVersionHistory.js</title>
<path fill="none" stroke="#757575" d="M702.52,-397.89C735.07,-412.75 792.18,-436.93 843.75,-449.25 855.63,-452.09 867.97,-454.56 880.46,-456.71"/>
<polygon fill="#757575" stroke="#757575" points="879.53,-460.11 889.97,-458.28 880.67,-453.2 879.53,-460.11"/>
</g>
<!-- components/Layout/Sidebar.js&#45;&gt;lib/hooks/useAuth.js -->
<g id="edge18" class="edge">
<title>components/Layout/Sidebar.js&#45;&gt;lib/hooks/useAuth.js</title>
<path fill="none" stroke="#757575" d="M771.98,-251.5C833.67,-243.32 912.9,-232.81 971.48,-225.05"/>
<polygon fill="#757575" stroke="#757575" points="971.58,-228.56 981.04,-223.78 970.66,-221.62 971.58,-228.56"/>
</g>
<!-- services/questionApi.js -->
<g id="node17" class="node">
<title>services/questionApi.js</title>
<path fill="none" stroke="#cfffac" d="M1454.08,-526.5C1454.08,-526.5 1308.17,-526.5 1308.17,-526.5 1304.08,-526.5 1300,-522.42 1300,-518.33 1300,-518.33 1300,-510.17 1300,-510.17 1300,-506.08 1304.08,-502 1308.17,-502 1308.17,-502 1454.08,-502 1454.08,-502 1458.17,-502 1462.25,-506.08 1462.25,-510.17 1462.25,-510.17 1462.25,-518.33 1462.25,-518.33 1462.25,-522.42 1458.17,-526.5 1454.08,-526.5"/>
<text text-anchor="middle" x="1381.12" y="-509.2" font-family="Arial" font-size="14.00" fill="#cfffac">services/questionApi.js</text>
</g>
<!-- components/Layout/Sidebar.js&#45;&gt;services/questionApi.js -->
<g id="edge19" class="edge">
<title>components/Layout/Sidebar.js&#45;&gt;services/questionApi.js</title>
<path fill="none" stroke="#757575" d="M779.2,-254.21C926.17,-241.99 1186.38,-228.65 1264,-278.25 1339.91,-326.76 1367.79,-440.66 1376.58,-490.35"/>
<polygon fill="#757575" stroke="#757575" points="1373.1,-490.74 1378.18,-500.03 1380,-489.6 1373.1,-490.74"/>
</g>
<!-- components/QuestionSection/DropdownMenu.js -->
<g id="node20" class="node">
<title>components/QuestionSection/DropdownMenu.js</title>
<path fill="none" stroke="#cfffac" d="M1206.33,-67.5C1206.33,-67.5 901.42,-67.5 901.42,-67.5 897.33,-67.5 893.25,-63.42 893.25,-59.33 893.25,-59.33 893.25,-51.17 893.25,-51.17 893.25,-47.08 897.33,-43 901.42,-43 901.42,-43 1206.33,-43 1206.33,-43 1210.42,-43 1214.5,-47.08 1214.5,-51.17 1214.5,-51.17 1214.5,-59.33 1214.5,-59.33 1214.5,-63.42 1210.42,-67.5 1206.33,-67.5"/>
<text text-anchor="middle" x="1053.88" y="-50.2" font-family="Arial" font-size="14.00" fill="#cfffac">components/QuestionSection/DropdownMenu.js</text>
</g>
<!-- components/QuestionSection/index.js&#45;&gt;components/QuestionSection/DropdownMenu.js -->
<g id="edge20" class="edge">
<title>components/QuestionSection/index.js&#45;&gt;components/QuestionSection/DropdownMenu.js</title>
<path fill="none" stroke="#757575" d="M802.98,-55.25C828.24,-55.25 855.14,-55.25 881.58,-55.25"/>
<polygon fill="#757575" stroke="#757575" points="881.37,-58.75 891.37,-55.25 881.37,-51.75 881.37,-58.75"/>
</g>
<!-- components/QuestionSection/QuestionInput.js -->
<g id="node21" class="node">
<title>components/QuestionSection/QuestionInput.js</title>
<path fill="none" stroke="#cfffac" d="M1200.71,-110.5C1200.71,-110.5 907.04,-110.5 907.04,-110.5 902.96,-110.5 898.88,-106.42 898.88,-102.33 898.88,-102.33 898.88,-94.17 898.88,-94.17 898.88,-90.08 902.96,-86 907.04,-86 907.04,-86 1200.71,-86 1200.71,-86 1204.79,-86 1208.88,-90.08 1208.88,-94.17 1208.88,-94.17 1208.88,-102.33 1208.88,-102.33 1208.88,-106.42 1204.79,-110.5 1200.71,-110.5"/>
<text text-anchor="middle" x="1053.88" y="-93.2" font-family="Arial" font-size="14.00" fill="#cfffac">components/QuestionSection/QuestionInput.js</text>
</g>
<!-- components/QuestionSection/index.js&#45;&gt;components/QuestionSection/QuestionInput.js -->
<g id="edge21" class="edge">
<title>components/QuestionSection/index.js&#45;&gt;components/QuestionSection/QuestionInput.js</title>
<path fill="none" stroke="#757575" d="M774.81,-67.95C797.46,-70.77 821.43,-73.68 843.75,-76.25 867.23,-78.95 892.21,-81.7 916.43,-84.29"/>
<polygon fill="#757575" stroke="#757575" points="916.05,-87.77 926.37,-85.34 916.79,-80.81 916.05,-87.77"/>
</g>
<!-- services/referenceApi.js -->
<g id="node22" class="node">
<title>services/referenceApi.js</title>
<path fill="none" stroke="#cfffac" d="M1130.58,-24.5C1130.58,-24.5 977.17,-24.5 977.17,-24.5 973.08,-24.5 969,-20.42 969,-16.33 969,-16.33 969,-8.17 969,-8.17 969,-4.08 973.08,0 977.17,0 977.17,0 1130.58,0 1130.58,0 1134.67,0 1138.75,-4.08 1138.75,-8.17 1138.75,-8.17 1138.75,-16.33 1138.75,-16.33 1138.75,-20.42 1134.67,-24.5 1130.58,-24.5"/>
<text text-anchor="middle" x="1053.88" y="-7.2" font-family="Arial" font-size="14.00" fill="#cfffac">services/referenceApi.js</text>
</g>
<!-- components/ReferenceSection/index.js&#45;&gt;services/referenceApi.js -->
<g id="edge22" class="edge">
<title>components/ReferenceSection/index.js&#45;&gt;services/referenceApi.js</title>
<path fill="none" stroke="#757575" d="M808,-12.25C857.21,-12.25 912.06,-12.25 957.36,-12.25"/>
<polygon fill="#757575" stroke="#757575" points="957.15,-15.75 967.15,-12.25 957.15,-8.75 957.15,-15.75"/>
</g>
<!-- components/auth/LoginPage.js&#45;&gt;lib/hooks/useAuth.js -->
<g id="edge24" class="edge">
<title>components/auth/LoginPage.js&#45;&gt;lib/hooks/useAuth.js</title>
<path fill="none" stroke="#757575" d="M781.14,-192.63C841.27,-197.41 915.53,-203.32 971.21,-207.75"/>
<polygon fill="#757575" stroke="#757575" points="970.69,-211.22 980.94,-208.53 971.25,-204.24 970.69,-211.22"/>
</g>
<!-- components/auth/AuthLayout.js -->
<g id="node23" class="node">
<title>components/auth/AuthLayout.js</title>
<path fill="none" stroke="#cfffac" d="M1152.33,-173.5C1152.33,-173.5 955.42,-173.5 955.42,-173.5 951.33,-173.5 947.25,-169.42 947.25,-165.33 947.25,-165.33 947.25,-157.17 947.25,-157.17 947.25,-153.08 951.33,-149 955.42,-149 955.42,-149 1152.33,-149 1152.33,-149 1156.42,-149 1160.5,-153.08 1160.5,-157.17 1160.5,-157.17 1160.5,-165.33 1160.5,-165.33 1160.5,-169.42 1156.42,-173.5 1152.33,-173.5"/>
<text text-anchor="middle" x="1053.88" y="-156.2" font-family="Arial" font-size="14.00" fill="#cfffac">components/auth/AuthLayout.js</text>
</g>
<!-- components/auth/LoginPage.js&#45;&gt;components/auth/AuthLayout.js -->
<g id="edge23" class="edge">
<title>components/auth/LoginPage.js&#45;&gt;components/auth/AuthLayout.js</title>
<path fill="none" stroke="#757575" d="M781.14,-177.83C829.14,-174.9 886.15,-171.42 935.53,-168.41"/>
<polygon fill="#757575" stroke="#757575" points="935.64,-171.91 945.41,-167.81 935.22,-164.92 935.64,-171.91"/>
</g>
<!-- components/auth/SignupPage.js&#45;&gt;lib/hooks/useAuth.js -->
<g id="edge26" class="edge">
<title>components/auth/SignupPage.js&#45;&gt;lib/hooks/useAuth.js</title>
<path fill="none" stroke="#757575" d="M773.61,-153.93C785.26,-156.5 796.86,-159.58 807.75,-163.25 824.89,-169.03 826.57,-176.58 843.75,-182.25 884.7,-195.76 932.08,-203.61 971.37,-208.15"/>
<polygon fill="#757575" stroke="#757575" points="970.93,-211.62 981.25,-209.23 971.7,-204.66 970.93,-211.62"/>
</g>
<!-- components/auth/SignupPage.js&#45;&gt;components/auth/AuthLayout.js -->
<g id="edge25" class="edge">
<title>components/auth/SignupPage.js&#45;&gt;components/auth/AuthLayout.js</title>
<path fill="none" stroke="#757575" d="M785.68,-147.08C832.67,-149.57 887.61,-152.48 935.41,-155.02"/>
<polygon fill="#757575" stroke="#757575" points="935.08,-158.51 945.25,-155.54 935.45,-151.52 935.08,-158.51"/>
</g>
<!-- services/auth.js -->
<g id="node26" class="node">
<title>services/auth.js</title>
<path fill="none" stroke="#cfffac" d="M1429.71,-226.5C1429.71,-226.5 1332.54,-226.5 1332.54,-226.5 1328.46,-226.5 1324.38,-222.42 1324.38,-218.33 1324.38,-218.33 1324.38,-210.17 1324.38,-210.17 1324.38,-206.08 1328.46,-202 1332.54,-202 1332.54,-202 1429.71,-202 1429.71,-202 1433.79,-202 1437.88,-206.08 1437.88,-210.17 1437.88,-210.17 1437.88,-218.33 1437.88,-218.33 1437.88,-222.42 1433.79,-226.5 1429.71,-226.5"/>
<text text-anchor="middle" x="1381.12" y="-209.2" font-family="Arial" font-size="14.00" fill="#cfffac">services/auth.js</text>
</g>
<!-- lib/hooks/useAuth.js&#45;&gt;services/auth.js -->
<g id="edge29" class="edge">
<title>lib/hooks/useAuth.js&#45;&gt;services/auth.js</title>
<path fill="none" stroke="#757575" d="M1125.05,-214.25C1180.67,-214.25 1257.88,-214.25 1312.76,-214.25"/>
<polygon fill="#757575" stroke="#757575" points="1312.6,-217.75 1322.6,-214.25 1312.6,-210.75 1312.6,-217.75"/>
</g>
<!-- App.test.js -->
<g id="node10" class="node">
<title>App.test.js</title>
<path fill="none" stroke="#c6c5fe" d="M230.58,-174.5C230.58,-174.5 163.42,-174.5 163.42,-174.5 159.33,-174.5 155.25,-170.42 155.25,-166.33 155.25,-166.33 155.25,-158.17 155.25,-158.17 155.25,-154.08 159.33,-150 163.42,-150 163.42,-150 230.58,-150 230.58,-150 234.67,-150 238.75,-154.08 238.75,-158.17 238.75,-158.17 238.75,-166.33 238.75,-166.33 238.75,-170.42 234.67,-174.5 230.58,-174.5"/>
<text text-anchor="middle" x="197" y="-157.2" font-family="Arial" font-size="14.00" fill="#c6c5fe">App.test.js</text>
</g>
<!-- App.test.js&#45;&gt;App.js -->
<g id="edge9" class="edge">
<title>App.test.js&#45;&gt;App.js</title>
<path fill="none" stroke="#757575" d="M239.15,-162.25C290.52,-162.25 377.73,-162.25 428.05,-162.25"/>
<polygon fill="#757575" stroke="#757575" points="427.89,-165.75 437.89,-162.25 427.89,-158.75 427.89,-165.75"/>
</g>
<!-- components/AnswerSection/components/SourcesDisplay.js -->
<g id="node13" class="node">
<title>components/AnswerSection/components/SourcesDisplay.js</title>
<path fill="none" stroke="#cfffac" d="M385.83,-217.5C385.83,-217.5 8.17,-217.5 8.17,-217.5 4.08,-217.5 0,-213.42 0,-209.33 0,-209.33 0,-201.17 0,-201.17 0,-197.08 4.08,-193 8.17,-193 8.17,-193 385.83,-193 385.83,-193 389.92,-193 394,-197.08 394,-201.17 394,-201.17 394,-209.33 394,-209.33 394,-213.42 389.92,-217.5 385.83,-217.5"/>
<text text-anchor="middle" x="197" y="-200.2" font-family="Arial" font-size="14.00" fill="#cfffac">components/AnswerSection/components/SourcesDisplay.js</text>
</g>
<!-- components/AnswerSection/hooks/useAnswerGeneration.js&#45;&gt;services/questionApi.js -->
<g id="edge10" class="edge">
<title>components/AnswerSection/hooks/useAnswerGeneration.js&#45;&gt;services/questionApi.js</title>
<path fill="none" stroke="#757575" d="M1251.11,-514.25C1263.92,-514.25 1276.44,-514.25 1288.33,-514.25"/>
<polygon fill="#757575" stroke="#757575" points="1288.02,-517.75 1298.02,-514.25 1288.02,-510.75 1288.02,-517.75"/>
</g>
<!-- components/Layout/QuestionHistory.js -->
<g id="node19" class="node">
<title>components/Layout/QuestionHistory.js</title>
<path fill="none" stroke="#c6c5fe" d="M1175.21,-569.5C1175.21,-569.5 932.54,-569.5 932.54,-569.5 928.46,-569.5 924.38,-565.42 924.38,-561.33 924.38,-561.33 924.38,-553.17 924.38,-553.17 924.38,-549.08 928.46,-545 932.54,-545 932.54,-545 1175.21,-545 1175.21,-545 1179.29,-545 1183.38,-549.08 1183.38,-553.17 1183.38,-553.17 1183.38,-561.33 1183.38,-561.33 1183.38,-565.42 1179.29,-569.5 1175.21,-569.5"/>
<text text-anchor="middle" x="1053.88" y="-552.2" font-family="Arial" font-size="14.00" fill="#c6c5fe">components/Layout/QuestionHistory.js</text>
</g>
<!-- components/Layout/QuestionHistory.js&#45;&gt;services/questionApi.js -->
<g id="edge17" class="edge">
<title>components/Layout/QuestionHistory.js&#45;&gt;services/questionApi.js</title>
<path fill="none" stroke="#757575" d="M1183.63,-545.22C1210.25,-542.31 1238.07,-538.95 1264,-535.25 1276.83,-533.42 1290.42,-531.21 1303.6,-528.92"/>
<polygon fill="#757575" stroke="#757575" points="1303.82,-532.43 1313.06,-527.25 1302.6,-525.54 1303.82,-532.43"/>
</g>
<!-- index.css -->
<g id="node24" class="node">
<title>index.css</title>
<path fill="none" stroke="#cfffac" d="M497.83,-131.5C497.83,-131.5 438.17,-131.5 438.17,-131.5 434.08,-131.5 430,-127.42 430,-123.33 430,-123.33 430,-115.17 430,-115.17 430,-111.08 434.08,-107 438.17,-107 438.17,-107 497.83,-107 497.83,-107 501.92,-107 506,-111.08 506,-115.17 506,-115.17 506,-123.33 506,-123.33 506,-127.42 501.92,-131.5 497.83,-131.5"/>
<text text-anchor="middle" x="468" y="-114.2" font-family="Arial" font-size="14.00" fill="#cfffac">index.css</text>
</g>
<!-- index.js -->
<g id="node25" class="node">
<title>index.js</title>
<path fill="none" stroke="#c6c5fe" d="M220.83,-131.5C220.83,-131.5 173.17,-131.5 173.17,-131.5 169.08,-131.5 165,-127.42 165,-123.33 165,-123.33 165,-115.17 165,-115.17 165,-111.08 169.08,-107 173.17,-107 173.17,-107 220.83,-107 220.83,-107 224.92,-107 229,-111.08 229,-115.17 229,-115.17 229,-123.33 229,-123.33 229,-127.42 224.92,-131.5 220.83,-131.5"/>
<text text-anchor="middle" x="197" y="-114.2" font-family="Arial" font-size="14.00" fill="#c6c5fe">index.js</text>
</g>
<!-- index.js&#45;&gt;App.js -->
<g id="edge27" class="edge">
<title>index.js&#45;&gt;App.js</title>
<path fill="none" stroke="#757575" d="M229.48,-121.15C268.41,-123.86 336.57,-129.85 394,-141.25 405.45,-143.52 417.7,-146.73 428.84,-149.96"/>
<polygon fill="#757575" stroke="#757575" points="427.5,-153.21 438.09,-152.73 429.51,-146.51 427.5,-153.21"/>
</g>
<!-- index.js&#45;&gt;index.css -->
<g id="edge28" class="edge">
<title>index.js&#45;&gt;index.css</title>
<path fill="none" stroke="#757575" d="M229.38,-119.25C275.96,-119.25 363.78,-119.25 418.62,-119.25"/>
<polygon fill="#757575" stroke="#757575" points="418.29,-122.75 428.29,-119.25 418.29,-115.75 418.29,-122.75"/>
</g>
<!-- lib/utils.js -->
<g id="node27" class="node">
<title>lib/utils.js</title>
<path fill="none" stroke="#cfffac" d="M225.33,-260.5C225.33,-260.5 168.67,-260.5 168.67,-260.5 164.58,-260.5 160.5,-256.42 160.5,-252.33 160.5,-252.33 160.5,-244.17 160.5,-244.17 160.5,-240.08 164.58,-236 168.67,-236 168.67,-236 225.33,-236 225.33,-236 229.42,-236 233.5,-240.08 233.5,-244.17 233.5,-244.17 233.5,-252.33 233.5,-252.33 233.5,-256.42 229.42,-260.5 225.33,-260.5"/>
<text text-anchor="middle" x="197" y="-243.2" font-family="Arial" font-size="14.00" fill="#cfffac">lib/utils.js</text>
</g>
<!-- reportWebVitals.js -->
<g id="node28" class="node">
<title>reportWebVitals.js</title>
<path fill="none" stroke="#cfffac" d="M255.33,-303.5C255.33,-303.5 138.67,-303.5 138.67,-303.5 134.58,-303.5 130.5,-299.42 130.5,-295.33 130.5,-295.33 130.5,-287.17 130.5,-287.17 130.5,-283.08 134.58,-279 138.67,-279 138.67,-279 255.33,-279 255.33,-279 259.42,-279 263.5,-283.08 263.5,-287.17 263.5,-287.17 263.5,-295.33 263.5,-295.33 263.5,-299.42 259.42,-303.5 255.33,-303.5"/>
<text text-anchor="middle" x="197" y="-286.2" font-family="Arial" font-size="14.00" fill="#cfffac">reportWebVitals.js</text>
</g>
<!-- services/answerApi.js -->
<g id="node29" class="node">
<title>services/answerApi.js</title>
<path fill="none" stroke="#cfffac" d="M265.46,-346.5C265.46,-346.5 128.54,-346.5 128.54,-346.5 124.46,-346.5 120.38,-342.42 120.38,-338.33 120.38,-338.33 120.38,-330.17 120.38,-330.17 120.38,-326.08 124.46,-322 128.54,-322 128.54,-322 265.46,-322 265.46,-322 269.54,-322 273.62,-326.08 273.62,-330.17 273.62,-330.17 273.62,-338.33 273.62,-338.33 273.62,-342.42 269.54,-346.5 265.46,-346.5"/>
<text text-anchor="middle" x="197" y="-329.2" font-family="Arial" font-size="14.00" fill="#cfffac">services/answerApi.js</text>
</g>
<!-- services/versionHistoryApi.js -->
<g id="node30" class="node">
<title>services/versionHistoryApi.js</title>
<path fill="none" stroke="#cfffac" d="M287.58,-389.5C287.58,-389.5 106.42,-389.5 106.42,-389.5 102.33,-389.5 98.25,-385.42 98.25,-381.33 98.25,-381.33 98.25,-373.17 98.25,-373.17 98.25,-369.08 102.33,-365 106.42,-365 106.42,-365 287.58,-365 287.58,-365 291.67,-365 295.75,-369.08 295.75,-373.17 295.75,-373.17 295.75,-381.33 295.75,-381.33 295.75,-385.42 291.67,-389.5 287.58,-389.5"/>
<text text-anchor="middle" x="197" y="-372.2" font-family="Arial" font-size="14.00" fill="#cfffac">services/versionHistoryApi.js</text>
</g>
<!-- setupTests.js -->
<g id="node31" class="node">
<title>setupTests.js</title>
<path fill="none" stroke="#cfffac" d="M239.58,-432.5C239.58,-432.5 154.42,-432.5 154.42,-432.5 150.33,-432.5 146.25,-428.42 146.25,-424.33 146.25,-424.33 146.25,-416.17 146.25,-416.17 146.25,-412.08 150.33,-408 154.42,-408 154.42,-408 239.58,-408 239.58,-408 243.67,-408 247.75,-412.08 247.75,-416.17 247.75,-416.17 247.75,-424.33 247.75,-424.33 247.75,-428.42 243.67,-432.5 239.58,-432.5"/>
<text text-anchor="middle" x="197" y="-415.2" font-family="Arial" font-size="14.00" fill="#cfffac">setupTests.js</text>
</g>
</g>
</svg>
