<?xml version="1.0" encoding="UTF-8" standalone="no"?>
<!DOCTYPE svg PUBLIC "-//W3C//DTD SVG 1.1//EN"
 "http://www.w3.org/Graphics/SVG/1.1/DTD/svg11.dtd">
<!-- Generated by graphviz version 11.0.0 (20240428.1522)
 -->
<!-- Title: G Pages: 1 -->
<svg width="1359pt" height="519pt"
 viewBox="0.00 0.00 1359.20 518.70" xmlns="http://www.w3.org/2000/svg" xmlns:xlink="http://www.w3.org/1999/xlink">
<g id="graph0" class="graph" transform="scale(1 1) rotate(0) translate(21.6 497.1)">
<title>G</title>
<polygon fill="#111111" stroke="none" points="-21.6,21.6 -21.6,-497.1 1337.6,-497.1 1337.6,21.6 -21.6,21.6"/>
<!-- postcss.config.js -->
<g id="node1" class="node">
<title>postcss.config.js</title>
<path fill="none" stroke="#cfffac" d="M155.21,-131.5C155.21,-131.5 48.29,-131.5 48.29,-131.5 44.21,-131.5 40.12,-127.42 40.12,-123.33 40.12,-123.33 40.12,-115.17 40.12,-115.17 40.12,-111.08 44.21,-107 48.29,-107 48.29,-107 155.21,-107 155.21,-107 159.29,-107 163.38,-111.08 163.38,-115.17 163.38,-115.17 163.38,-123.33 163.38,-123.33 163.38,-127.42 159.29,-131.5 155.21,-131.5"/>
<text text-anchor="middle" x="101.75" y="-114.2" font-family="Arial" font-size="14.00" fill="#cfffac">postcss.config.js</text>
</g>
<!-- src/App.js -->
<g id="node2" class="node">
<title>src/App.js</title>
<path fill="none" stroke="#c6c5fe" d="M320.83,-217.5C320.83,-217.5 257.42,-217.5 257.42,-217.5 253.33,-217.5 249.25,-213.42 249.25,-209.33 249.25,-209.33 249.25,-201.17 249.25,-201.17 249.25,-197.08 253.33,-193 257.42,-193 257.42,-193 320.83,-193 320.83,-193 324.92,-193 329,-197.08 329,-201.17 329,-201.17 329,-209.33 329,-209.33 329,-213.42 324.92,-217.5 320.83,-217.5"/>
<text text-anchor="middle" x="289.12" y="-200.2" font-family="Arial" font-size="14.00" fill="#c6c5fe">src/App.js</text>
</g>
<!-- src/components/AnswerSection/index.js -->
<g id="node3" class="node">
<title>src/components/AnswerSection/index.js</title>
<path fill="none" stroke="#c6c5fe" d="M645.46,-365.5C645.46,-365.5 393.04,-365.5 393.04,-365.5 388.96,-365.5 384.88,-361.42 384.88,-357.33 384.88,-357.33 384.88,-349.17 384.88,-349.17 384.88,-345.08 388.96,-341 393.04,-341 393.04,-341 645.46,-341 645.46,-341 649.54,-341 653.62,-345.08 653.62,-349.17 653.62,-349.17 653.62,-357.33 653.62,-357.33 653.62,-361.42 649.54,-365.5 645.46,-365.5"/>
<text text-anchor="middle" x="519.25" y="-348.2" font-family="Arial" font-size="14.00" fill="#c6c5fe">src/components/AnswerSection/index.js</text>
</g>
<!-- src/App.js&#45;&gt;src/components/AnswerSection/index.js -->
<g id="edge1" class="edge">
<title>src/App.js&#45;&gt;src/components/AnswerSection/index.js</title>
<path fill="none" stroke="#757575" d="M294.84,-217.83C305.1,-243.29 331.99,-300.82 374.75,-328.25 379.36,-331.21 384.22,-333.85 389.26,-336.19"/>
<polygon fill="#757575" stroke="#757575" points="387.83,-339.39 398.41,-340.04 390.54,-332.94 387.83,-339.39"/>
</g>
<!-- src/components/Layout/ResizablePanel.js -->
<g id="node4" class="node">
<title>src/components/Layout/ResizablePanel.js</title>
<path fill="none" stroke="#cfffac" d="M651.46,-319.5C651.46,-319.5 387.04,-319.5 387.04,-319.5 382.96,-319.5 378.88,-315.42 378.88,-311.33 378.88,-311.33 378.88,-303.17 378.88,-303.17 378.88,-299.08 382.96,-295 387.04,-295 387.04,-295 651.46,-295 651.46,-295 655.54,-295 659.62,-299.08 659.62,-303.17 659.62,-303.17 659.62,-311.33 659.62,-311.33 659.62,-315.42 655.54,-319.5 651.46,-319.5"/>
<text text-anchor="middle" x="519.25" y="-302.2" font-family="Arial" font-size="14.00" fill="#cfffac">src/components/Layout/ResizablePanel.js</text>
</g>
<!-- src/App.js&#45;&gt;src/components/Layout/ResizablePanel.js -->
<g id="edge2" class="edge">
<title>src/App.js&#45;&gt;src/components/Layout/ResizablePanel.js</title>
<path fill="none" stroke="#757575" d="M300.11,-217.81C314.6,-235.08 343.18,-265.79 374.75,-281.25 382.75,-285.17 391.27,-288.5 400,-291.34"/>
<polygon fill="#757575" stroke="#757575" points="398.71,-294.6 409.29,-294.12 400.71,-287.9 398.71,-294.6"/>
</g>
<!-- src/components/Layout/Sidebar.js -->
<g id="node5" class="node">
<title>src/components/Layout/Sidebar.js</title>
<path fill="none" stroke="#c6c5fe" d="M626.71,-239.5C626.71,-239.5 411.79,-239.5 411.79,-239.5 407.71,-239.5 403.62,-235.42 403.62,-231.33 403.62,-231.33 403.62,-223.17 403.62,-223.17 403.62,-219.08 407.71,-215 411.79,-215 411.79,-215 626.71,-215 626.71,-215 630.79,-215 634.88,-219.08 634.88,-223.17 634.88,-223.17 634.88,-231.33 634.88,-231.33 634.88,-235.42 630.79,-239.5 626.71,-239.5"/>
<text text-anchor="middle" x="519.25" y="-222.2" font-family="Arial" font-size="14.00" fill="#c6c5fe">src/components/Layout/Sidebar.js</text>
</g>
<!-- src/App.js&#45;&gt;src/components/Layout/Sidebar.js -->
<g id="edge3" class="edge">
<title>src/App.js&#45;&gt;src/components/Layout/Sidebar.js</title>
<path fill="none" stroke="#757575" d="M329.34,-209.03C347.19,-210.75 369.41,-212.9 392.27,-215.1"/>
<polygon fill="#757575" stroke="#757575" points="391.74,-218.57 402.03,-216.04 392.41,-211.6 391.74,-218.57"/>
</g>
<!-- src/components/QuestionSection/index.js -->
<g id="node6" class="node">
<title>src/components/QuestionSection/index.js</title>
<path fill="none" stroke="#c6c5fe" d="M650.33,-110.5C650.33,-110.5 388.17,-110.5 388.17,-110.5 384.08,-110.5 380,-106.42 380,-102.33 380,-102.33 380,-94.17 380,-94.17 380,-90.08 384.08,-86 388.17,-86 388.17,-86 650.33,-86 650.33,-86 654.42,-86 658.5,-90.08 658.5,-94.17 658.5,-94.17 658.5,-102.33 658.5,-102.33 658.5,-106.42 654.42,-110.5 650.33,-110.5"/>
<text text-anchor="middle" x="519.25" y="-93.2" font-family="Arial" font-size="14.00" fill="#c6c5fe">src/components/QuestionSection/index.js</text>
</g>
<!-- src/App.js&#45;&gt;src/components/QuestionSection/index.js -->
<g id="edge4" class="edge">
<title>src/App.js&#45;&gt;src/components/QuestionSection/index.js</title>
<path fill="none" stroke="#757575" d="M325.26,-192.62C330.11,-189.97 334.78,-186.87 338.75,-183.25 362.6,-161.55 348.17,-138.51 374.75,-120.25 376.86,-118.8 379.03,-117.43 381.25,-116.14"/>
<polygon fill="#757575" stroke="#757575" points="382.66,-119.35 389.93,-111.64 379.44,-113.13 382.66,-119.35"/>
</g>
<!-- src/components/ReferenceSection/index.js -->
<g id="node7" class="node">
<title>src/components/ReferenceSection/index.js</title>
<path fill="none" stroke="#c6c5fe" d="M655.58,-46.5C655.58,-46.5 382.92,-46.5 382.92,-46.5 378.83,-46.5 374.75,-42.42 374.75,-38.33 374.75,-38.33 374.75,-30.17 374.75,-30.17 374.75,-26.08 378.83,-22 382.92,-22 382.92,-22 655.58,-22 655.58,-22 659.67,-22 663.75,-26.08 663.75,-30.17 663.75,-30.17 663.75,-38.33 663.75,-38.33 663.75,-42.42 659.67,-46.5 655.58,-46.5"/>
<text text-anchor="middle" x="519.25" y="-29.2" font-family="Arial" font-size="14.00" fill="#c6c5fe">src/components/ReferenceSection/index.js</text>
</g>
<!-- src/App.js&#45;&gt;src/components/ReferenceSection/index.js -->
<g id="edge5" class="edge">
<title>src/App.js&#45;&gt;src/components/ReferenceSection/index.js</title>
<path fill="none" stroke="#757575" d="M326.89,-192.7C331.28,-190.08 335.39,-186.96 338.75,-183.25 372.18,-146.4 338.94,-111.79 374.75,-77.25 386.96,-65.48 402.26,-56.91 418.28,-50.68"/>
<polygon fill="#757575" stroke="#757575" points="419.22,-54.07 427.47,-47.42 416.87,-47.47 419.22,-54.07"/>
</g>
<!-- src/components/auth/LoginPage.js -->
<g id="node8" class="node">
<title>src/components/auth/LoginPage.js</title>
<path fill="none" stroke="#c6c5fe" d="M628.58,-196.5C628.58,-196.5 409.92,-196.5 409.92,-196.5 405.83,-196.5 401.75,-192.42 401.75,-188.33 401.75,-188.33 401.75,-180.17 401.75,-180.17 401.75,-176.08 405.83,-172 409.92,-172 409.92,-172 628.58,-172 628.58,-172 632.67,-172 636.75,-176.08 636.75,-180.17 636.75,-180.17 636.75,-188.33 636.75,-188.33 636.75,-192.42 632.67,-196.5 628.58,-196.5"/>
<text text-anchor="middle" x="519.25" y="-179.2" font-family="Arial" font-size="14.00" fill="#c6c5fe">src/components/auth/LoginPage.js</text>
</g>
<!-- src/App.js&#45;&gt;src/components/auth/LoginPage.js -->
<g id="edge6" class="edge">
<title>src/App.js&#45;&gt;src/components/auth/LoginPage.js</title>
<path fill="none" stroke="#757575" d="M329.34,-201.64C346.67,-200.04 368.12,-198.07 390.29,-196.03"/>
<polygon fill="#757575" stroke="#757575" points="390.42,-199.53 400.06,-195.13 389.78,-192.56 390.42,-199.53"/>
</g>
<!-- src/components/auth/SignupPage.js -->
<g id="node9" class="node">
<title>src/components/auth/SignupPage.js</title>
<path fill="none" stroke="#c6c5fe" d="M633.08,-153.5C633.08,-153.5 405.42,-153.5 405.42,-153.5 401.33,-153.5 397.25,-149.42 397.25,-145.33 397.25,-145.33 397.25,-137.17 397.25,-137.17 397.25,-133.08 401.33,-129 405.42,-129 405.42,-129 633.08,-129 633.08,-129 637.17,-129 641.25,-133.08 641.25,-137.17 641.25,-137.17 641.25,-145.33 641.25,-145.33 641.25,-149.42 637.17,-153.5 633.08,-153.5"/>
<text text-anchor="middle" x="519.25" y="-136.2" font-family="Arial" font-size="14.00" fill="#c6c5fe">src/components/auth/SignupPage.js</text>
</g>
<!-- src/App.js&#45;&gt;src/components/auth/SignupPage.js -->
<g id="edge7" class="edge">
<title>src/App.js&#45;&gt;src/components/auth/SignupPage.js</title>
<path fill="none" stroke="#757575" d="M319.11,-192.61C325.62,-189.64 332.46,-186.41 338.75,-183.25 355.1,-175.03 357.43,-169.17 374.75,-163.25 382.04,-160.75 389.64,-158.54 397.37,-156.58"/>
<polygon fill="#757575" stroke="#757575" points="397.97,-160.03 406.89,-154.32 396.35,-153.22 397.97,-160.03"/>
</g>
<!-- src/lib/hooks/useAuth.js -->
<g id="node10" class="node">
<title>src/lib/hooks/useAuth.js</title>
<path fill="none" stroke="#c6c5fe" d="M995.96,-239.5C995.96,-239.5 847.04,-239.5 847.04,-239.5 842.96,-239.5 838.88,-235.42 838.88,-231.33 838.88,-231.33 838.88,-223.17 838.88,-223.17 838.88,-219.08 842.96,-215 847.04,-215 847.04,-215 995.96,-215 995.96,-215 1000.04,-215 1004.12,-219.08 1004.12,-223.17 1004.12,-223.17 1004.12,-231.33 1004.12,-231.33 1004.12,-235.42 1000.04,-239.5 995.96,-239.5"/>
<text text-anchor="middle" x="921.5" y="-222.2" font-family="Arial" font-size="14.00" fill="#c6c5fe">src/lib/hooks/useAuth.js</text>
</g>
<!-- src/App.js&#45;&gt;src/lib/hooks/useAuth.js -->
<g id="edge8" class="edge">
<title>src/App.js&#45;&gt;src/lib/hooks/useAuth.js</title>
<path fill="none" stroke="#757575" d="M308.62,-217.89C325.12,-228.35 350.39,-242.42 374.75,-248.25 457.85,-268.15 694.48,-249.62 827.25,-236.91"/>
<polygon fill="#757575" stroke="#757575" points="827.46,-240.4 837.08,-235.96 826.79,-233.43 827.46,-240.4"/>
</g>
<!-- src/components/AnswerSection/components/ActionBar.js -->
<g id="node12" class="node">
<title>src/components/AnswerSection/components/ActionBar.js</title>
<path fill="none" stroke="#cfffac" d="M1102.83,-325.5C1102.83,-325.5 740.17,-325.5 740.17,-325.5 736.08,-325.5 732,-321.42 732,-317.33 732,-317.33 732,-309.17 732,-309.17 732,-305.08 736.08,-301 740.17,-301 740.17,-301 1102.83,-301 1102.83,-301 1106.92,-301 1111,-305.08 1111,-309.17 1111,-309.17 1111,-317.33 1111,-317.33 1111,-321.42 1106.92,-325.5 1102.83,-325.5"/>
<text text-anchor="middle" x="921.5" y="-308.2" font-family="Arial" font-size="14.00" fill="#cfffac">src/components/AnswerSection/components/ActionBar.js</text>
</g>
<!-- src/components/AnswerSection/index.js&#45;&gt;src/components/AnswerSection/components/ActionBar.js -->
<g id="edge10" class="edge">
<title>src/components/AnswerSection/index.js&#45;&gt;src/components/AnswerSection/components/ActionBar.js</title>
<path fill="none" stroke="#757575" d="M647.24,-340.51C664.88,-338.74 682.77,-336.95 699.75,-335.25 726.19,-332.61 754.41,-329.79 781.54,-327.09"/>
<polygon fill="#757575" stroke="#757575" points="781.57,-330.6 791.17,-326.13 780.87,-323.63 781.57,-330.6"/>
</g>
<!-- src/components/AnswerSection/components/Editor.js -->
<g id="node13" class="node">
<title>src/components/AnswerSection/components/Editor.js</title>
<path fill="none" stroke="#cfffac" d="M1090.83,-282.5C1090.83,-282.5 752.17,-282.5 752.17,-282.5 748.08,-282.5 744,-278.42 744,-274.33 744,-274.33 744,-266.17 744,-266.17 744,-262.08 748.08,-258 752.17,-258 752.17,-258 1090.83,-258 1090.83,-258 1094.92,-258 1099,-262.08 1099,-266.17 1099,-266.17 1099,-274.33 1099,-274.33 1099,-278.42 1094.92,-282.5 1090.83,-282.5"/>
<text text-anchor="middle" x="921.5" y="-265.2" font-family="Arial" font-size="14.00" fill="#cfffac">src/components/AnswerSection/components/Editor.js</text>
</g>
<!-- src/components/AnswerSection/index.js&#45;&gt;src/components/AnswerSection/components/Editor.js -->
<g id="edge11" class="edge">
<title>src/components/AnswerSection/index.js&#45;&gt;src/components/AnswerSection/components/Editor.js</title>
<path fill="none" stroke="#757575" d="M632.92,-340.54C643.64,-337.29 654.1,-333.26 663.75,-328.25 683.83,-317.82 679.3,-301.94 699.75,-292.25 710.23,-287.28 721.31,-283.18 732.69,-279.81"/>
<polygon fill="#757575" stroke="#757575" points="733.5,-283.21 742.22,-277.19 731.65,-276.46 733.5,-283.21"/>
</g>
<!-- src/components/AnswerSection/components/VersionComparison.js -->
<g id="node14" class="node">
<title>src/components/AnswerSection/components/VersionComparison.js</title>
<path fill="none" stroke="#cfffac" d="M1135.08,-454.5C1135.08,-454.5 707.92,-454.5 707.92,-454.5 703.83,-454.5 699.75,-450.42 699.75,-446.33 699.75,-446.33 699.75,-438.17 699.75,-438.17 699.75,-434.08 703.83,-430 707.92,-430 707.92,-430 1135.08,-430 1135.08,-430 1139.17,-430 1143.25,-434.08 1143.25,-438.17 1143.25,-438.17 1143.25,-446.33 1143.25,-446.33 1143.25,-450.42 1139.17,-454.5 1135.08,-454.5"/>
<text text-anchor="middle" x="921.5" y="-437.2" font-family="Arial" font-size="14.00" fill="#cfffac">src/components/AnswerSection/components/VersionComparison.js</text>
</g>
<!-- src/components/AnswerSection/index.js&#45;&gt;src/components/AnswerSection/components/VersionComparison.js -->
<g id="edge12" class="edge">
<title>src/components/AnswerSection/index.js&#45;&gt;src/components/AnswerSection/components/VersionComparison.js</title>
<path fill="none" stroke="#757575" d="M547.55,-365.97C582.15,-381.51 644.02,-407.3 699.75,-420.25 711.94,-423.08 724.58,-425.55 737.38,-427.7"/>
<polygon fill="#757575" stroke="#757575" points="736.73,-431.14 747.16,-429.27 737.84,-424.23 736.73,-431.14"/>
</g>
<!-- src/components/AnswerSection/components/VersionControl.js -->
<g id="node15" class="node">
<title>src/components/AnswerSection/components/VersionControl.js</title>
<path fill="none" stroke="#cfffac" d="M1119.33,-411.5C1119.33,-411.5 723.67,-411.5 723.67,-411.5 719.58,-411.5 715.5,-407.42 715.5,-403.33 715.5,-403.33 715.5,-395.17 715.5,-395.17 715.5,-391.08 719.58,-387 723.67,-387 723.67,-387 1119.33,-387 1119.33,-387 1123.42,-387 1127.5,-391.08 1127.5,-395.17 1127.5,-395.17 1127.5,-403.33 1127.5,-403.33 1127.5,-407.42 1123.42,-411.5 1119.33,-411.5"/>
<text text-anchor="middle" x="921.5" y="-394.2" font-family="Arial" font-size="14.00" fill="#cfffac">src/components/AnswerSection/components/VersionControl.js</text>
</g>
<!-- src/components/AnswerSection/index.js&#45;&gt;src/components/AnswerSection/components/VersionControl.js -->
<g id="edge13" class="edge">
<title>src/components/AnswerSection/index.js&#45;&gt;src/components/AnswerSection/components/VersionControl.js</title>
<path fill="none" stroke="#757575" d="M611.03,-365.99C639.42,-369.81 670.86,-373.88 699.75,-377.25 723.72,-380.05 749.18,-382.79 773.96,-385.34"/>
<polygon fill="#757575" stroke="#757575" points="773.48,-388.81 783.79,-386.35 774.2,-381.85 773.48,-388.81"/>
</g>
<!-- src/components/AnswerSection/hooks/useVersionHistory.js -->
<g id="node16" class="node">
<title>src/components/AnswerSection/hooks/useVersionHistory.js</title>
<path fill="none" stroke="#cfffac" d="M1109.58,-368.5C1109.58,-368.5 733.42,-368.5 733.42,-368.5 729.33,-368.5 725.25,-364.42 725.25,-360.33 725.25,-360.33 725.25,-352.17 725.25,-352.17 725.25,-348.08 729.33,-344 733.42,-344 733.42,-344 1109.58,-344 1109.58,-344 1113.67,-344 1117.75,-348.08 1117.75,-352.17 1117.75,-352.17 1117.75,-360.33 1117.75,-360.33 1117.75,-364.42 1113.67,-368.5 1109.58,-368.5"/>
<text text-anchor="middle" x="921.5" y="-351.2" font-family="Arial" font-size="14.00" fill="#cfffac">src/components/AnswerSection/hooks/useVersionHistory.js</text>
</g>
<!-- src/components/AnswerSection/index.js&#45;&gt;src/components/AnswerSection/hooks/useVersionHistory.js -->
<g id="edge14" class="edge">
<title>src/components/AnswerSection/index.js&#45;&gt;src/components/AnswerSection/hooks/useVersionHistory.js</title>
<path fill="none" stroke="#757575" d="M654.08,-354.25C673.35,-354.4 693.55,-354.55 713.83,-354.7"/>
<polygon fill="#757575" stroke="#757575" points="713.57,-358.2 723.59,-354.77 713.62,-351.2 713.57,-358.2"/>
</g>
<!-- src/components/Layout/Sidebar.js&#45;&gt;src/lib/hooks/useAuth.js -->
<g id="edge15" class="edge">
<title>src/components/Layout/Sidebar.js&#45;&gt;src/lib/hooks/useAuth.js</title>
<path fill="none" stroke="#757575" d="M635.21,-227.25C696.17,-227.25 770.08,-227.25 827.4,-227.25"/>
<polygon fill="#757575" stroke="#757575" points="827.12,-230.75 837.12,-227.25 827.12,-223.75 827.12,-230.75"/>
</g>
<!-- src/components/QuestionSection/DropdownMenu.js -->
<g id="node18" class="node">
<title>src/components/QuestionSection/DropdownMenu.js</title>
<path fill="none" stroke="#cfffac" d="M1085.58,-153.5C1085.58,-153.5 757.42,-153.5 757.42,-153.5 753.33,-153.5 749.25,-149.42 749.25,-145.33 749.25,-145.33 749.25,-137.17 749.25,-137.17 749.25,-133.08 753.33,-129 757.42,-129 757.42,-129 1085.58,-129 1085.58,-129 1089.67,-129 1093.75,-133.08 1093.75,-137.17 1093.75,-137.17 1093.75,-145.33 1093.75,-145.33 1093.75,-149.42 1089.67,-153.5 1085.58,-153.5"/>
<text text-anchor="middle" x="921.5" y="-136.2" font-family="Arial" font-size="14.00" fill="#cfffac">src/components/QuestionSection/DropdownMenu.js</text>
</g>
<!-- src/components/QuestionSection/index.js&#45;&gt;src/components/QuestionSection/DropdownMenu.js -->
<g id="edge16" class="edge">
<title>src/components/QuestionSection/index.js&#45;&gt;src/components/QuestionSection/DropdownMenu.js</title>
<path fill="none" stroke="#757575" d="M626.52,-110.99C650.59,-113.79 676.04,-116.68 699.75,-119.25 724.85,-121.97 751.57,-124.74 777.43,-127.35"/>
<polygon fill="#757575" stroke="#757575" points="777.04,-130.83 787.34,-128.35 777.74,-123.87 777.04,-130.83"/>
</g>
<!-- src/components/QuestionSection/QuestionInput.js -->
<g id="node19" class="node">
<title>src/components/QuestionSection/QuestionInput.js</title>
<path fill="none" stroke="#cfffac" d="M1079.96,-110.5C1079.96,-110.5 763.04,-110.5 763.04,-110.5 758.96,-110.5 754.88,-106.42 754.88,-102.33 754.88,-102.33 754.88,-94.17 754.88,-94.17 754.88,-90.08 758.96,-86 763.04,-86 763.04,-86 1079.96,-86 1079.96,-86 1084.04,-86 1088.12,-90.08 1088.12,-94.17 1088.12,-94.17 1088.12,-102.33 1088.12,-102.33 1088.12,-106.42 1084.04,-110.5 1079.96,-110.5"/>
<text text-anchor="middle" x="921.5" y="-93.2" font-family="Arial" font-size="14.00" fill="#cfffac">src/components/QuestionSection/QuestionInput.js</text>
</g>
<!-- src/components/QuestionSection/index.js&#45;&gt;src/components/QuestionSection/QuestionInput.js -->
<g id="edge17" class="edge">
<title>src/components/QuestionSection/index.js&#45;&gt;src/components/QuestionSection/QuestionInput.js</title>
<path fill="none" stroke="#757575" d="M658.83,-98.25C686.05,-98.25 714.95,-98.25 743.24,-98.25"/>
<polygon fill="#757575" stroke="#757575" points="742.95,-101.75 752.95,-98.25 742.95,-94.75 742.95,-101.75"/>
</g>
<!-- src/services/questionApi.js -->
<g id="node20" class="node">
<title>src/services/questionApi.js</title>
<path fill="none" stroke="#cfffac" d="M1006.08,-67.5C1006.08,-67.5 836.92,-67.5 836.92,-67.5 832.83,-67.5 828.75,-63.42 828.75,-59.33 828.75,-59.33 828.75,-51.17 828.75,-51.17 828.75,-47.08 832.83,-43 836.92,-43 836.92,-43 1006.08,-43 1006.08,-43 1010.17,-43 1014.25,-47.08 1014.25,-51.17 1014.25,-51.17 1014.25,-59.33 1014.25,-59.33 1014.25,-63.42 1010.17,-67.5 1006.08,-67.5"/>
<text text-anchor="middle" x="921.5" y="-50.2" font-family="Arial" font-size="14.00" fill="#cfffac">src/services/questionApi.js</text>
</g>
<!-- src/components/QuestionSection/index.js&#45;&gt;src/services/questionApi.js -->
<g id="edge18" class="edge">
<title>src/components/QuestionSection/index.js&#45;&gt;src/services/questionApi.js</title>
<path fill="none" stroke="#757575" d="M626.52,-85.51C650.59,-82.71 676.04,-79.82 699.75,-77.25 738.01,-73.11 780.03,-68.85 817.05,-65.19"/>
<polygon fill="#757575" stroke="#757575" points="817.25,-68.69 826.86,-64.23 816.56,-61.72 817.25,-68.69"/>
</g>
<!-- src/services/referenceApi.js -->
<g id="node21" class="node">
<title>src/services/referenceApi.js</title>
<path fill="none" stroke="#cfffac" d="M1009.83,-24.5C1009.83,-24.5 833.17,-24.5 833.17,-24.5 829.08,-24.5 825,-20.42 825,-16.33 825,-16.33 825,-8.17 825,-8.17 825,-4.08 829.08,0 833.17,0 833.17,0 1009.83,0 1009.83,0 1013.92,0 1018,-4.08 1018,-8.17 1018,-8.17 1018,-16.33 1018,-16.33 1018,-20.42 1013.92,-24.5 1009.83,-24.5"/>
<text text-anchor="middle" x="921.5" y="-7.2" font-family="Arial" font-size="14.00" fill="#cfffac">src/services/referenceApi.js</text>
</g>
<!-- src/components/ReferenceSection/index.js&#45;&gt;src/services/referenceApi.js -->
<g id="edge19" class="edge">
<title>src/components/ReferenceSection/index.js&#45;&gt;src/services/referenceApi.js</title>
<path fill="none" stroke="#757575" d="M664.18,-26.34C713.36,-23.64 767.45,-20.66 813.23,-18.15"/>
<polygon fill="#757575" stroke="#757575" points="813.37,-21.64 823.16,-17.6 812.99,-14.65 813.37,-21.64"/>
</g>
<!-- src/components/auth/LoginPage.js&#45;&gt;src/lib/hooks/useAuth.js -->
<g id="edge21" class="edge">
<title>src/components/auth/LoginPage.js&#45;&gt;src/lib/hooks/useAuth.js</title>
<path fill="none" stroke="#757575" d="M626.52,-196.99C650.59,-199.79 676.04,-202.68 699.75,-205.25 741.48,-209.77 787.69,-214.43 827.01,-218.29"/>
<polygon fill="#757575" stroke="#757575" points="826.63,-221.77 836.93,-219.26 827.32,-214.8 826.63,-221.77"/>
</g>
<!-- src/components/auth/AuthLayout.js -->
<g id="node22" class="node">
<title>src/components/auth/AuthLayout.js</title>
<path fill="none" stroke="#cfffac" d="M1031.58,-196.5C1031.58,-196.5 811.42,-196.5 811.42,-196.5 807.33,-196.5 803.25,-192.42 803.25,-188.33 803.25,-188.33 803.25,-180.17 803.25,-180.17 803.25,-176.08 807.33,-172 811.42,-172 811.42,-172 1031.58,-172 1031.58,-172 1035.67,-172 1039.75,-176.08 1039.75,-180.17 1039.75,-180.17 1039.75,-188.33 1039.75,-188.33 1039.75,-192.42 1035.67,-196.5 1031.58,-196.5"/>
<text text-anchor="middle" x="921.5" y="-179.2" font-family="Arial" font-size="14.00" fill="#cfffac">src/components/auth/AuthLayout.js</text>
</g>
<!-- src/components/auth/LoginPage.js&#45;&gt;src/components/auth/AuthLayout.js -->
<g id="edge20" class="edge">
<title>src/components/auth/LoginPage.js&#45;&gt;src/components/auth/AuthLayout.js</title>
<path fill="none" stroke="#757575" d="M637.09,-184.25C685.47,-184.25 741.76,-184.25 791.35,-184.25"/>
<polygon fill="#757575" stroke="#757575" points="791.3,-187.75 801.3,-184.25 791.3,-180.75 791.3,-187.75"/>
</g>
<!-- src/components/auth/SignupPage.js&#45;&gt;src/lib/hooks/useAuth.js -->
<g id="edge23" class="edge">
<title>src/components/auth/SignupPage.js&#45;&gt;src/lib/hooks/useAuth.js</title>
<path fill="none" stroke="#757575" d="M641.39,-153.31C649.17,-156.05 656.7,-159.33 663.75,-163.25 685.24,-175.19 677.95,-193.88 699.75,-205.25 738.38,-225.4 785.97,-232.03 827.06,-233.17"/>
<polygon fill="#757575" stroke="#757575" points="826.9,-236.67 836.95,-233.33 827.01,-229.67 826.9,-236.67"/>
</g>
<!-- src/components/auth/SignupPage.js&#45;&gt;src/components/auth/AuthLayout.js -->
<g id="edge22" class="edge">
<title>src/components/auth/SignupPage.js&#45;&gt;src/components/auth/AuthLayout.js</title>
<path fill="none" stroke="#757575" d="M626.52,-153.99C650.59,-156.79 676.04,-159.68 699.75,-162.25 729.46,-165.47 761.44,-168.76 791.58,-171.78"/>
<polygon fill="#757575" stroke="#757575" points="791.23,-175.26 801.53,-172.77 791.92,-168.29 791.23,-175.26"/>
</g>
<!-- src/services/auth.js -->
<g id="node25" class="node">
<title>src/services/auth.js</title>
<path fill="none" stroke="#cfffac" d="M1307.83,-239.5C1307.83,-239.5 1187.42,-239.5 1187.42,-239.5 1183.33,-239.5 1179.25,-235.42 1179.25,-231.33 1179.25,-231.33 1179.25,-223.17 1179.25,-223.17 1179.25,-219.08 1183.33,-215 1187.42,-215 1187.42,-215 1307.83,-215 1307.83,-215 1311.92,-215 1316,-219.08 1316,-223.17 1316,-223.17 1316,-231.33 1316,-231.33 1316,-235.42 1311.92,-239.5 1307.83,-239.5"/>
<text text-anchor="middle" x="1247.62" y="-222.2" font-family="Arial" font-size="14.00" fill="#cfffac">src/services/auth.js</text>
</g>
<!-- src/lib/hooks/useAuth.js&#45;&gt;src/services/auth.js -->
<g id="edge26" class="edge">
<title>src/lib/hooks/useAuth.js&#45;&gt;src/services/auth.js</title>
<path fill="none" stroke="#757575" d="M1004.29,-227.25C1054.31,-227.25 1117.98,-227.25 1167.51,-227.25"/>
<polygon fill="#757575" stroke="#757575" points="1167.29,-230.75 1177.29,-227.25 1167.29,-223.75 1167.29,-230.75"/>
</g>
<!-- src/App.test.js -->
<g id="node11" class="node">
<title>src/App.test.js</title>
<path fill="none" stroke="#c6c5fe" d="M146.96,-217.5C146.96,-217.5 56.54,-217.5 56.54,-217.5 52.46,-217.5 48.38,-213.42 48.38,-209.33 48.38,-209.33 48.38,-201.17 48.38,-201.17 48.38,-197.08 52.46,-193 56.54,-193 56.54,-193 146.96,-193 146.96,-193 151.04,-193 155.12,-197.08 155.12,-201.17 155.12,-201.17 155.12,-209.33 155.12,-209.33 155.12,-213.42 151.04,-217.5 146.96,-217.5"/>
<text text-anchor="middle" x="101.75" y="-200.2" font-family="Arial" font-size="14.00" fill="#c6c5fe">src/App.test.js</text>
</g>
<!-- src/App.test.js&#45;&gt;src/App.js -->
<g id="edge9" class="edge">
<title>src/App.test.js&#45;&gt;src/App.js</title>
<path fill="none" stroke="#757575" d="M155.38,-205.25C181.18,-205.25 212.12,-205.25 237.63,-205.25"/>
<polygon fill="#757575" stroke="#757575" points="237.42,-208.75 247.42,-205.25 237.42,-201.75 237.42,-208.75"/>
</g>
<!-- src/components/NoteEditor.js -->
<g id="node17" class="node">
<title>src/components/NoteEditor.js</title>
<path fill="none" stroke="#cfffac" d="M195.33,-260.5C195.33,-260.5 8.17,-260.5 8.17,-260.5 4.08,-260.5 0,-256.42 0,-252.33 0,-252.33 0,-244.17 0,-244.17 0,-240.08 4.08,-236 8.17,-236 8.17,-236 195.33,-236 195.33,-236 199.42,-236 203.5,-240.08 203.5,-244.17 203.5,-244.17 203.5,-252.33 203.5,-252.33 203.5,-256.42 199.42,-260.5 195.33,-260.5"/>
<text text-anchor="middle" x="101.75" y="-243.2" font-family="Arial" font-size="14.00" fill="#cfffac">src/components/NoteEditor.js</text>
</g>
<!-- src/index.css -->
<g id="node23" class="node">
<title>src/index.css</title>
<path fill="none" stroke="#cfffac" d="M330.58,-174.5C330.58,-174.5 247.67,-174.5 247.67,-174.5 243.58,-174.5 239.5,-170.42 239.5,-166.33 239.5,-166.33 239.5,-158.17 239.5,-158.17 239.5,-154.08 243.58,-150 247.67,-150 247.67,-150 330.58,-150 330.58,-150 334.67,-150 338.75,-154.08 338.75,-158.17 338.75,-158.17 338.75,-166.33 338.75,-166.33 338.75,-170.42 334.67,-174.5 330.58,-174.5"/>
<text text-anchor="middle" x="289.12" y="-157.2" font-family="Arial" font-size="14.00" fill="#cfffac">src/index.css</text>
</g>
<!-- src/index.js -->
<g id="node24" class="node">
<title>src/index.js</title>
<path fill="none" stroke="#c6c5fe" d="M137.21,-174.5C137.21,-174.5 66.29,-174.5 66.29,-174.5 62.21,-174.5 58.12,-170.42 58.12,-166.33 58.12,-166.33 58.12,-158.17 58.12,-158.17 58.12,-154.08 62.21,-150 66.29,-150 66.29,-150 137.21,-150 137.21,-150 141.29,-150 145.38,-154.08 145.38,-158.17 145.38,-158.17 145.38,-166.33 145.38,-166.33 145.38,-170.42 141.29,-174.5 137.21,-174.5"/>
<text text-anchor="middle" x="101.75" y="-157.2" font-family="Arial" font-size="14.00" fill="#c6c5fe">src/index.js</text>
</g>
<!-- src/index.js&#45;&gt;src/App.js -->
<g id="edge24" class="edge">
<title>src/index.js&#45;&gt;src/App.js</title>
<path fill="none" stroke="#757575" d="M145.46,-171.3C163.41,-175.17 184.5,-179.82 203.5,-184.25 214.67,-186.85 226.63,-189.76 237.95,-192.55"/>
<polygon fill="#757575" stroke="#757575" points="236.98,-195.92 247.53,-194.93 238.67,-189.12 236.98,-195.92"/>
</g>
<!-- src/index.js&#45;&gt;src/index.css -->
<g id="edge25" class="edge">
<title>src/index.js&#45;&gt;src/index.css</title>
<path fill="none" stroke="#757575" d="M145.74,-162.25C170.17,-162.25 201.13,-162.25 227.94,-162.25"/>
<polygon fill="#757575" stroke="#757575" points="227.63,-165.75 237.63,-162.25 227.63,-158.75 227.63,-165.75"/>
</g>
<!-- src/lib/utils.js -->
<g id="node26" class="node">
<title>src/lib/utils.js</title>
<path fill="none" stroke="#cfffac" d="M141.71,-303.5C141.71,-303.5 61.79,-303.5 61.79,-303.5 57.71,-303.5 53.62,-299.42 53.62,-295.33 53.62,-295.33 53.62,-287.17 53.62,-287.17 53.62,-283.08 57.71,-279 61.79,-279 61.79,-279 141.71,-279 141.71,-279 145.79,-279 149.88,-283.08 149.88,-287.17 149.88,-287.17 149.88,-295.33 149.88,-295.33 149.88,-299.42 145.79,-303.5 141.71,-303.5"/>
<text text-anchor="middle" x="101.75" y="-286.2" font-family="Arial" font-size="14.00" fill="#cfffac">src/lib/utils.js</text>
</g>
<!-- src/reportWebVitals.js -->
<g id="node27" class="node">
<title>src/reportWebVitals.js</title>
<path fill="none" stroke="#cfffac" d="M171.71,-346.5C171.71,-346.5 31.79,-346.5 31.79,-346.5 27.71,-346.5 23.62,-342.42 23.62,-338.33 23.62,-338.33 23.62,-330.17 23.62,-330.17 23.62,-326.08 27.71,-322 31.79,-322 31.79,-322 171.71,-322 171.71,-322 175.79,-322 179.88,-326.08 179.88,-330.17 179.88,-330.17 179.88,-338.33 179.88,-338.33 179.88,-342.42 175.79,-346.5 171.71,-346.5"/>
<text text-anchor="middle" x="101.75" y="-329.2" font-family="Arial" font-size="14.00" fill="#cfffac">src/reportWebVitals.js</text>
</g>
<!-- src/services/answerApi.js -->
<g id="node28" class="node">
<title>src/services/answerApi.js</title>
<path fill="none" stroke="#cfffac" d="M181.83,-389.5C181.83,-389.5 21.67,-389.5 21.67,-389.5 17.58,-389.5 13.5,-385.42 13.5,-381.33 13.5,-381.33 13.5,-373.17 13.5,-373.17 13.5,-369.08 17.58,-365 21.67,-365 21.67,-365 181.83,-365 181.83,-365 185.92,-365 190,-369.08 190,-373.17 190,-373.17 190,-381.33 190,-381.33 190,-385.42 185.92,-389.5 181.83,-389.5"/>
<text text-anchor="middle" x="101.75" y="-372.2" font-family="Arial" font-size="14.00" fill="#cfffac">src/services/answerApi.js</text>
</g>
<!-- src/setupTests.js -->
<g id="node29" class="node">
<title>src/setupTests.js</title>
<path fill="none" stroke="#cfffac" d="M155.96,-432.5C155.96,-432.5 47.54,-432.5 47.54,-432.5 43.46,-432.5 39.38,-428.42 39.38,-424.33 39.38,-424.33 39.38,-416.17 39.38,-416.17 39.38,-412.08 43.46,-408 47.54,-408 47.54,-408 155.96,-408 155.96,-408 160.04,-408 164.12,-412.08 164.12,-416.17 164.12,-416.17 164.12,-424.33 164.12,-424.33 164.12,-428.42 160.04,-432.5 155.96,-432.5"/>
<text text-anchor="middle" x="101.75" y="-415.2" font-family="Arial" font-size="14.00" fill="#cfffac">src/setupTests.js</text>
</g>
<!-- tailwind.config.js -->
<g id="node30" class="node">
<title>tailwind.config.js</title>
<path fill="none" stroke="#cfffac" d="M152.96,-475.5C152.96,-475.5 50.54,-475.5 50.54,-475.5 46.46,-475.5 42.38,-471.42 42.38,-467.33 42.38,-467.33 42.38,-459.17 42.38,-459.17 42.38,-455.08 46.46,-451 50.54,-451 50.54,-451 152.96,-451 152.96,-451 157.04,-451 161.12,-455.08 161.12,-459.17 161.12,-459.17 161.12,-467.33 161.12,-467.33 161.12,-471.42 157.04,-475.5 152.96,-475.5"/>
<text text-anchor="middle" x="101.75" y="-458.2" font-family="Arial" font-size="14.00" fill="#cfffac">tailwind.config.js</text>
</g>
</g>
</svg>
