<?xml version="1.0" encoding="UTF-8" standalone="no"?>
<!DOCTYPE svg PUBLIC "-//W3C//DTD SVG 1.1//EN"
 "http://www.w3.org/Graphics/SVG/1.1/DTD/svg11.dtd">
<!-- Generated by graphviz version 11.0.0 (20240428.1522)
 -->
<!-- Title: classes_backend Pages: 1 -->
<svg width="3555pt" height="614pt"
 viewBox="0.00 0.00 3554.62 613.75" xmlns="http://www.w3.org/2000/svg" xmlns:xlink="http://www.w3.org/1999/xlink">
<g id="graph0" class="graph" transform="scale(1 1) rotate(0) translate(4 609.75)">
<title>classes_backend</title>
<polygon fill="white" stroke="none" points="-4,4 -4,-609.75 3550.62,-609.75 3550.62,4 -4,4"/>
<!-- app.schemas.ChangePassword -->
<g id="node1" class="node">
<title>app.schemas.ChangePassword</title>
<polygon fill="none" stroke="black" points="0,-95 0,-182 142,-182 142,-95 0,-95"/>
<text text-anchor="middle" x="71" y="-164.7" font-family="Times New Roman,serif" font-size="14.00">ChangePassword</text>
<polyline fill="none" stroke="black" points="0,-158.25 142,-158.25"/>
<text text-anchor="start" x="8" y="-140.95" font-family="Times New Roman,serif" font-size="14.00">current_password : str</text>
<text text-anchor="start" x="8" y="-125.2" font-family="Times New Roman,serif" font-size="14.00">new_password</text>
<polyline fill="none" stroke="black" points="0,-118.75 142,-118.75"/>
<text text-anchor="middle" x="71" y="-101.45" font-family="Times New Roman,serif" font-size="14.00"> </text>
</g>
<!-- app.config.Config -->
<g id="node2" class="node">
<title>app.config.Config</title>
<polygon fill="none" stroke="black" points="248.75,-313.5 248.75,-605.25 569.25,-605.25 569.25,-313.5 248.75,-313.5"/>
<text text-anchor="middle" x="409" y="-587.95" font-family="Times New Roman,serif" font-size="14.00">Config</text>
<polyline fill="none" stroke="black" points="248.75,-581.5 569.25,-581.5"/>
<text text-anchor="start" x="256.75" y="-564.2" font-family="Times New Roman,serif" font-size="14.00">CORS_ORIGINS</text>
<text text-anchor="start" x="256.75" y="-548.45" font-family="Times New Roman,serif" font-size="14.00">DEBUG : bool</text>
<text text-anchor="start" x="256.75" y="-532.7" font-family="Times New Roman,serif" font-size="14.00">ENV : NoneType</text>
<text text-anchor="start" x="256.75" y="-516.95" font-family="Times New Roman,serif" font-size="14.00">ES_HOST : NoneType</text>
<text text-anchor="start" x="256.75" y="-501.2" font-family="Times New Roman,serif" font-size="14.00">ES_INDEX : NoneType</text>
<text text-anchor="start" x="256.75" y="-485.45" font-family="Times New Roman,serif" font-size="14.00">ES_PASSWORD : NoneType</text>
<text text-anchor="start" x="256.75" y="-469.7" font-family="Times New Roman,serif" font-size="14.00">ES_PORT : int</text>
<text text-anchor="start" x="256.75" y="-453.95" font-family="Times New Roman,serif" font-size="14.00">ES_USERNAME : NoneType</text>
<text text-anchor="start" x="256.75" y="-438.2" font-family="Times New Roman,serif" font-size="14.00">JWT_ACCESS_TOKEN_EXPIRES : timedelta</text>
<text text-anchor="start" x="256.75" y="-422.45" font-family="Times New Roman,serif" font-size="14.00">JWT_SECRET_KEY : NoneType</text>
<text text-anchor="start" x="256.75" y="-406.7" font-family="Times New Roman,serif" font-size="14.00">OPENAI_API_KEY : NoneType</text>
<text text-anchor="start" x="256.75" y="-390.95" font-family="Times New Roman,serif" font-size="14.00">SECRET_KEY : NoneType</text>
<text text-anchor="start" x="256.75" y="-375.2" font-family="Times New Roman,serif" font-size="14.00">SQLALCHEMY_DATABASE_URI : NoneType</text>
<text text-anchor="start" x="256.75" y="-359.45" font-family="Times New Roman,serif" font-size="14.00">SQLALCHEMY_TRACK_MODIFICATIONS : bool</text>
<text text-anchor="start" x="256.75" y="-343.7" font-family="Times New Roman,serif" font-size="14.00">TESTING : bool</text>
<polyline fill="none" stroke="black" points="248.75,-337.25 569.25,-337.25"/>
<text text-anchor="middle" x="409" y="-319.95" font-family="Times New Roman,serif" font-size="14.00"> </text>
</g>
<!-- app.schemas.UserResponse.Config -->
<g id="node3" class="node">
<title>app.schemas.UserResponse.Config</title>
<polygon fill="none" stroke="black" points="770.25,-102.88 770.25,-174.12 907.75,-174.12 907.75,-102.88 770.25,-102.88"/>
<text text-anchor="middle" x="839" y="-156.82" font-family="Times New Roman,serif" font-size="14.00">Config</text>
<polyline fill="none" stroke="black" points="770.25,-150.38 907.75,-150.38"/>
<text text-anchor="start" x="778.25" y="-133.07" font-family="Times New Roman,serif" font-size="14.00">from_attributes : bool</text>
<polyline fill="none" stroke="black" points="770.25,-126.62 907.75,-126.62"/>
<text text-anchor="middle" x="839" y="-109.33" font-family="Times New Roman,serif" font-size="14.00"> </text>
</g>
<!-- app.schemas.ConversationResponse.Config -->
<g id="node4" class="node">
<title>app.schemas.ConversationResponse.Config</title>
<polygon fill="none" stroke="black" points="926.25,-102.88 926.25,-174.12 1063.75,-174.12 1063.75,-102.88 926.25,-102.88"/>
<text text-anchor="middle" x="995" y="-156.82" font-family="Times New Roman,serif" font-size="14.00">Config</text>
<polyline fill="none" stroke="black" points="926.25,-150.38 1063.75,-150.38"/>
<text text-anchor="start" x="934.25" y="-133.07" font-family="Times New Roman,serif" font-size="14.00">from_attributes : bool</text>
<polyline fill="none" stroke="black" points="926.25,-126.62 1063.75,-126.62"/>
<text text-anchor="middle" x="995" y="-109.33" font-family="Times New Roman,serif" font-size="14.00"> </text>
</g>
<!-- app.models.Conversation -->
<g id="node5" class="node">
<title>app.models.Conversation</title>
<polygon fill="none" stroke="black" points="1081.38,-71.38 1081.38,-205.62 1186.62,-205.62 1186.62,-71.38 1081.38,-71.38"/>
<text text-anchor="middle" x="1134" y="-188.32" font-family="Times New Roman,serif" font-size="14.00">Conversation</text>
<polyline fill="none" stroke="black" points="1081.38,-181.88 1186.62,-181.88"/>
<text text-anchor="start" x="1089.38" y="-164.57" font-family="Times New Roman,serif" font-size="14.00">conversation_id</text>
<text text-anchor="start" x="1089.38" y="-148.82" font-family="Times New Roman,serif" font-size="14.00">created_at</text>
<text text-anchor="start" x="1089.38" y="-133.07" font-family="Times New Roman,serif" font-size="14.00">id</text>
<text text-anchor="start" x="1089.38" y="-117.33" font-family="Times New Roman,serif" font-size="14.00">messages</text>
<text text-anchor="start" x="1089.38" y="-101.58" font-family="Times New Roman,serif" font-size="14.00">user_id</text>
<polyline fill="none" stroke="black" points="1081.38,-95.12 1186.62,-95.12"/>
<text text-anchor="middle" x="1134" y="-77.83" font-family="Times New Roman,serif" font-size="14.00"> </text>
</g>
<!-- app.schemas.ConversationResponse -->
<g id="node6" class="node">
<title>app.schemas.ConversationResponse</title>
<polygon fill="none" stroke="black" points="1204.5,-87.12 1204.5,-189.88 1391.5,-189.88 1391.5,-87.12 1204.5,-87.12"/>
<text text-anchor="middle" x="1298" y="-172.57" font-family="Times New Roman,serif" font-size="14.00">ConversationResponse</text>
<polyline fill="none" stroke="black" points="1204.5,-166.12 1391.5,-166.12"/>
<text text-anchor="start" x="1212.5" y="-148.82" font-family="Times New Roman,serif" font-size="14.00">created_at : datetime</text>
<text text-anchor="start" x="1212.5" y="-133.07" font-family="Times New Roman,serif" font-size="14.00">id : str</text>
<text text-anchor="start" x="1212.5" y="-117.33" font-family="Times New Roman,serif" font-size="14.00">messages : List[Dict[str, Any]]</text>
<polyline fill="none" stroke="black" points="1204.5,-110.88 1391.5,-110.88"/>
<text text-anchor="middle" x="1298" y="-93.58" font-family="Times New Roman,serif" font-size="14.00"> </text>
</g>
<!-- app.config.DevelopmentConfig -->
<g id="node7" class="node">
<title>app.config.DevelopmentConfig</title>
<polygon fill="none" stroke="black" points="160,-95 160,-182 314,-182 314,-95 160,-95"/>
<text text-anchor="middle" x="237" y="-164.7" font-family="Times New Roman,serif" font-size="14.00">DevelopmentConfig</text>
<polyline fill="none" stroke="black" points="160,-158.25 314,-158.25"/>
<text text-anchor="start" x="168" y="-140.95" font-family="Times New Roman,serif" font-size="14.00">DEBUG : bool</text>
<text text-anchor="start" x="168" y="-125.2" font-family="Times New Roman,serif" font-size="14.00">DEVELOPMENT : bool</text>
<polyline fill="none" stroke="black" points="160,-118.75 314,-118.75"/>
<text text-anchor="middle" x="237" y="-101.45" font-family="Times New Roman,serif" font-size="14.00"> </text>
</g>
<!-- app.config.DevelopmentConfig&#45;&gt;app.config.Config -->
<g id="edge1" class="edge">
<title>app.config.DevelopmentConfig&#45;&gt;app.config.Config</title>
<path fill="none" stroke="black" d="M260.02,-182.17C277,-213.65 301.22,-258.57 325.22,-303.06"/>
<polygon fill="none" stroke="black" points="322.11,-304.66 329.94,-311.8 328.27,-301.34 322.11,-304.66"/>
</g>
<!-- app.elasticsearch_querier.ElasticsearchQuerier -->
<g id="node8" class="node">
<title>app.elasticsearch_querier.ElasticsearchQuerier</title>
<polygon fill="none" stroke="black" points="1409.5,-39.88 1409.5,-237.12 1992.5,-237.12 1992.5,-39.88 1409.5,-39.88"/>
<text text-anchor="middle" x="1701" y="-219.82" font-family="Times New Roman,serif" font-size="14.00">ElasticsearchQuerier</text>
<polyline fill="none" stroke="black" points="1409.5,-213.38 1992.5,-213.38"/>
<text text-anchor="start" x="1417.5" y="-196.07" font-family="Times New Roman,serif" font-size="14.00">es</text>
<text text-anchor="start" x="1417.5" y="-180.32" font-family="Times New Roman,serif" font-size="14.00">index_name : str</text>
<text text-anchor="start" x="1417.5" y="-164.57" font-family="Times New Roman,serif" font-size="14.00">openai_client</text>
<polyline fill="none" stroke="black" points="1409.5,-158.12 1992.5,-158.12"/>
<text text-anchor="start" x="1417.5" y="-140.82" font-family="Times New Roman,serif" font-size="14.00">get_embedding(text: str): list</text>
<text text-anchor="start" x="1417.5" y="-125.08" font-family="Times New Roman,serif" font-size="14.00">get_first_n_words(text: str, n: int): str</text>
<text text-anchor="start" x="1417.5" y="-109.33" font-family="Times New Roman,serif" font-size="14.00">hybrid_search(query_text: str, top_k: int): List[Dict[str, Any]]</text>
<text text-anchor="start" x="1417.5" y="-93.58" font-family="Times New Roman,serif" font-size="14.00">keyword_search(query_text: str, top_k: int): List[Dict[str, Any]]</text>
<text text-anchor="start" x="1417.5" y="-77.83" font-family="Times New Roman,serif" font-size="14.00">process_search_results(results: list, query: str): Dict[str, Any]</text>
<text text-anchor="start" x="1417.5" y="-62.08" font-family="Times New Roman,serif" font-size="14.00">rerank_results(keyword_results: list, semantic_results: list, alpha: float, top_k: int): List[Dict[str, Any]]</text>
<text text-anchor="start" x="1417.5" y="-46.33" font-family="Times New Roman,serif" font-size="14.00">semantic_search(query_text: str, top_k: int): List[Dict[str, Any]]</text>
</g>
<!-- app.models.Message -->
<g id="node9" class="node">
<title>app.models.Message</title>
<polygon fill="none" stroke="black" points="2010.38,-39.88 2010.38,-237.12 2133.62,-237.12 2133.62,-39.88 2010.38,-39.88"/>
<text text-anchor="middle" x="2072" y="-219.82" font-family="Times New Roman,serif" font-size="14.00">Message</text>
<polyline fill="none" stroke="black" points="2010.38,-213.38 2133.62,-213.38"/>
<text text-anchor="start" x="2018.38" y="-196.07" font-family="Times New Roman,serif" font-size="14.00">content</text>
<text text-anchor="start" x="2018.38" y="-180.32" font-family="Times New Roman,serif" font-size="14.00">conversation_id</text>
<text text-anchor="start" x="2018.38" y="-164.57" font-family="Times New Roman,serif" font-size="14.00">created_at</text>
<text text-anchor="start" x="2018.38" y="-148.82" font-family="Times New Roman,serif" font-size="14.00">id</text>
<text text-anchor="start" x="2018.38" y="-133.07" font-family="Times New Roman,serif" font-size="14.00">message_type</text>
<text text-anchor="start" x="2018.38" y="-117.33" font-family="Times New Roman,serif" font-size="14.00">relationship_data</text>
<text text-anchor="start" x="2018.38" y="-101.58" font-family="Times New Roman,serif" font-size="14.00">response</text>
<text text-anchor="start" x="2018.38" y="-85.83" font-family="Times New Roman,serif" font-size="14.00">response_metadata</text>
<text text-anchor="start" x="2018.38" y="-70.08" font-family="Times New Roman,serif" font-size="14.00">source_data</text>
<polyline fill="none" stroke="black" points="2010.38,-63.62 2133.62,-63.62"/>
<text text-anchor="start" x="2018.38" y="-46.33" font-family="Times New Roman,serif" font-size="14.00">to_dict()</text>
</g>
<!-- app.schemas.MessageBase -->
<g id="node10" class="node">
<title>app.schemas.MessageBase</title>
<polygon fill="none" stroke="black" points="2151.5,-87.12 2151.5,-189.88 2338.5,-189.88 2338.5,-87.12 2151.5,-87.12"/>
<text text-anchor="middle" x="2245" y="-172.57" font-family="Times New Roman,serif" font-size="14.00">MessageBase</text>
<polyline fill="none" stroke="black" points="2151.5,-166.12 2338.5,-166.12"/>
<text text-anchor="start" x="2159.5" y="-148.82" font-family="Times New Roman,serif" font-size="14.00">conversation_id : Optional[str]</text>
<text text-anchor="start" x="2159.5" y="-133.07" font-family="Times New Roman,serif" font-size="14.00">message : str</text>
<text text-anchor="start" x="2159.5" y="-117.33" font-family="Times New Roman,serif" font-size="14.00">response_type : Optional[str]</text>
<polyline fill="none" stroke="black" points="2151.5,-110.88 2338.5,-110.88"/>
<text text-anchor="middle" x="2245" y="-93.58" font-family="Times New Roman,serif" font-size="14.00"> </text>
</g>
<!-- app.schemas.MessageResponse -->
<g id="node11" class="node">
<title>app.schemas.MessageResponse</title>
<polygon fill="none" stroke="black" points="2356.75,-63.5 2356.75,-213.5 2551.25,-213.5 2551.25,-63.5 2356.75,-63.5"/>
<text text-anchor="middle" x="2454" y="-196.2" font-family="Times New Roman,serif" font-size="14.00">MessageResponse</text>
<polyline fill="none" stroke="black" points="2356.75,-189.75 2551.25,-189.75"/>
<text text-anchor="start" x="2364.75" y="-172.45" font-family="Times New Roman,serif" font-size="14.00">conversation_id : str</text>
<text text-anchor="start" x="2364.75" y="-156.7" font-family="Times New Roman,serif" font-size="14.00">detailed_response : str</text>
<text text-anchor="start" x="2364.75" y="-140.95" font-family="Times New Roman,serif" font-size="14.00">metadata : Dict[str, Any]</text>
<text text-anchor="start" x="2364.75" y="-125.2" font-family="Times New Roman,serif" font-size="14.00">relationships : List[Dict[str, str]]</text>
<text text-anchor="start" x="2364.75" y="-109.45" font-family="Times New Roman,serif" font-size="14.00">sources : List[str]</text>
<text text-anchor="start" x="2364.75" y="-93.7" font-family="Times New Roman,serif" font-size="14.00">text_content : List[Dict[str, str]]</text>
<polyline fill="none" stroke="black" points="2356.75,-87.25 2551.25,-87.25"/>
<text text-anchor="middle" x="2454" y="-69.95" font-family="Times New Roman,serif" font-size="14.00"> </text>
</g>
<!-- app.config.ProductionConfig -->
<g id="node12" class="node">
<title>app.config.ProductionConfig</title>
<polygon fill="none" stroke="black" points="332,-95 332,-182 486,-182 486,-95 332,-95"/>
<text text-anchor="middle" x="409" y="-164.7" font-family="Times New Roman,serif" font-size="14.00">ProductionConfig</text>
<polyline fill="none" stroke="black" points="332,-158.25 486,-158.25"/>
<text text-anchor="start" x="340" y="-140.95" font-family="Times New Roman,serif" font-size="14.00">DEBUG : bool</text>
<text text-anchor="start" x="340" y="-125.2" font-family="Times New Roman,serif" font-size="14.00">DEVELOPMENT : bool</text>
<polyline fill="none" stroke="black" points="332,-118.75 486,-118.75"/>
<text text-anchor="middle" x="409" y="-101.45" font-family="Times New Roman,serif" font-size="14.00"> </text>
</g>
<!-- app.config.ProductionConfig&#45;&gt;app.config.Config -->
<g id="edge2" class="edge">
<title>app.config.ProductionConfig&#45;&gt;app.config.Config</title>
<path fill="none" stroke="black" d="M409,-182.17C409,-213.32 409,-257.62 409,-301.65"/>
<polygon fill="none" stroke="black" points="405.5,-301.62 409,-311.62 412.5,-301.62 405.5,-301.62"/>
</g>
<!-- app.config.TestingConfig -->
<g id="node13" class="node">
<title>app.config.TestingConfig</title>
<polygon fill="none" stroke="black" points="504.12,-95 504.12,-182 751.88,-182 751.88,-95 504.12,-95"/>
<text text-anchor="middle" x="628" y="-164.7" font-family="Times New Roman,serif" font-size="14.00">TestingConfig</text>
<polyline fill="none" stroke="black" points="504.12,-158.25 751.88,-158.25"/>
<text text-anchor="start" x="512.12" y="-140.95" font-family="Times New Roman,serif" font-size="14.00">SQLALCHEMY_DATABASE_URI : str</text>
<text text-anchor="start" x="512.12" y="-125.2" font-family="Times New Roman,serif" font-size="14.00">TESTING : bool</text>
<polyline fill="none" stroke="black" points="504.12,-118.75 751.88,-118.75"/>
<text text-anchor="middle" x="628" y="-101.45" font-family="Times New Roman,serif" font-size="14.00"> </text>
</g>
<!-- app.config.TestingConfig&#45;&gt;app.config.Config -->
<g id="edge3" class="edge">
<title>app.config.TestingConfig&#45;&gt;app.config.Config</title>
<path fill="none" stroke="black" d="M598.69,-182.17C576.94,-213.85 545.84,-259.13 515.09,-303.9"/>
<polygon fill="none" stroke="black" points="512.38,-301.66 509.61,-311.89 518.15,-305.63 512.38,-301.66"/>
</g>
<!-- app.schemas.Token -->
<g id="node14" class="node">
<title>app.schemas.Token</title>
<polygon fill="none" stroke="black" points="2569.5,-95 2569.5,-182 2672.5,-182 2672.5,-95 2569.5,-95"/>
<text text-anchor="middle" x="2621" y="-164.7" font-family="Times New Roman,serif" font-size="14.00">Token</text>
<polyline fill="none" stroke="black" points="2569.5,-158.25 2672.5,-158.25"/>
<text text-anchor="start" x="2577.5" y="-140.95" font-family="Times New Roman,serif" font-size="14.00">token : str</text>
<text text-anchor="start" x="2577.5" y="-125.2" font-family="Times New Roman,serif" font-size="14.00">token_type : str</text>
<polyline fill="none" stroke="black" points="2569.5,-118.75 2672.5,-118.75"/>
<text text-anchor="middle" x="2621" y="-101.45" font-family="Times New Roman,serif" font-size="14.00"> </text>
</g>
<!-- app.schemas.TokenData -->
<g id="node15" class="node">
<title>app.schemas.TokenData</title>
<polygon fill="none" stroke="black" points="2690.88,-102.88 2690.88,-174.12 2817.12,-174.12 2817.12,-102.88 2690.88,-102.88"/>
<text text-anchor="middle" x="2754" y="-156.82" font-family="Times New Roman,serif" font-size="14.00">TokenData</text>
<polyline fill="none" stroke="black" points="2690.88,-150.38 2817.12,-150.38"/>
<text text-anchor="start" x="2698.88" y="-133.07" font-family="Times New Roman,serif" font-size="14.00">email : Optional[str]</text>
<polyline fill="none" stroke="black" points="2690.88,-126.62 2817.12,-126.62"/>
<text text-anchor="middle" x="2754" y="-109.33" font-family="Times New Roman,serif" font-size="14.00"> </text>
</g>
<!-- app.models.User -->
<g id="node16" class="node">
<title>app.models.User</title>
<polygon fill="none" stroke="black" points="2835.5,-0.5 2835.5,-276.5 3010.5,-276.5 3010.5,-0.5 2835.5,-0.5"/>
<text text-anchor="middle" x="2923" y="-259.2" font-family="Times New Roman,serif" font-size="14.00">User</text>
<polyline fill="none" stroke="black" points="2835.5,-252.75 3010.5,-252.75"/>
<text text-anchor="start" x="2843.5" y="-235.45" font-family="Times New Roman,serif" font-size="14.00">conversations</text>
<text text-anchor="start" x="2843.5" y="-219.7" font-family="Times New Roman,serif" font-size="14.00">created_at</text>
<text text-anchor="start" x="2843.5" y="-203.95" font-family="Times New Roman,serif" font-size="14.00">email</text>
<text text-anchor="start" x="2843.5" y="-188.2" font-family="Times New Roman,serif" font-size="14.00">id</text>
<text text-anchor="start" x="2843.5" y="-172.45" font-family="Times New Roman,serif" font-size="14.00">is_active</text>
<text text-anchor="start" x="2843.5" y="-156.7" font-family="Times New Roman,serif" font-size="14.00">last_login</text>
<text text-anchor="start" x="2843.5" y="-140.95" font-family="Times New Roman,serif" font-size="14.00">last_login : datetime</text>
<text text-anchor="start" x="2843.5" y="-125.2" font-family="Times New Roman,serif" font-size="14.00">name</text>
<text text-anchor="start" x="2843.5" y="-109.45" font-family="Times New Roman,serif" font-size="14.00">password_hash</text>
<text text-anchor="start" x="2843.5" y="-93.7" font-family="Times New Roman,serif" font-size="14.00">password_hash</text>
<text text-anchor="start" x="2843.5" y="-77.95" font-family="Times New Roman,serif" font-size="14.00">role</text>
<polyline fill="none" stroke="black" points="2835.5,-71.5 3010.5,-71.5"/>
<text text-anchor="start" x="2843.5" y="-54.2" font-family="Times New Roman,serif" font-size="14.00">check_password(password)</text>
<text text-anchor="start" x="2843.5" y="-38.45" font-family="Times New Roman,serif" font-size="14.00">set_password(password)</text>
<text text-anchor="start" x="2843.5" y="-22.7" font-family="Times New Roman,serif" font-size="14.00">to_dict()</text>
<text text-anchor="start" x="2843.5" y="-6.95" font-family="Times New Roman,serif" font-size="14.00">update_last_login()</text>
</g>
<!-- app.schemas.UserBase -->
<g id="node17" class="node">
<title>app.schemas.UserBase</title>
<polygon fill="none" stroke="black" points="3094,-415.88 3094,-502.88 3164,-502.88 3164,-415.88 3094,-415.88"/>
<text text-anchor="middle" x="3129" y="-485.57" font-family="Times New Roman,serif" font-size="14.00">UserBase</text>
<polyline fill="none" stroke="black" points="3094,-479.12 3164,-479.12"/>
<text text-anchor="start" x="3102" y="-461.82" font-family="Times New Roman,serif" font-size="14.00">email</text>
<text text-anchor="start" x="3102" y="-446.07" font-family="Times New Roman,serif" font-size="14.00">name : str</text>
<polyline fill="none" stroke="black" points="3094,-439.62 3164,-439.62"/>
<text text-anchor="middle" x="3129" y="-422.32" font-family="Times New Roman,serif" font-size="14.00"> </text>
</g>
<!-- app.schemas.UserCreate -->
<g id="node18" class="node">
<title>app.schemas.UserCreate</title>
<polygon fill="none" stroke="black" points="3028.88,-102.88 3028.88,-174.12 3107.12,-174.12 3107.12,-102.88 3028.88,-102.88"/>
<text text-anchor="middle" x="3068" y="-156.82" font-family="Times New Roman,serif" font-size="14.00">UserCreate</text>
<polyline fill="none" stroke="black" points="3028.88,-150.38 3107.12,-150.38"/>
<text text-anchor="start" x="3036.88" y="-133.07" font-family="Times New Roman,serif" font-size="14.00">password</text>
<polyline fill="none" stroke="black" points="3028.88,-126.62 3107.12,-126.62"/>
<text text-anchor="middle" x="3068" y="-109.33" font-family="Times New Roman,serif" font-size="14.00"> </text>
</g>
<!-- app.schemas.UserCreate&#45;&gt;app.schemas.UserBase -->
<g id="edge4" class="edge">
<title>app.schemas.UserCreate&#45;&gt;app.schemas.UserBase</title>
<path fill="none" stroke="black" d="M3074.7,-174.54C3085.34,-230.13 3106.15,-338.95 3118.7,-404.51"/>
<polygon fill="none" stroke="black" points="3115.18,-404.78 3120.5,-413.95 3122.06,-403.47 3115.18,-404.78"/>
</g>
<!-- app.schemas.UserLogin -->
<g id="node19" class="node">
<title>app.schemas.UserLogin</title>
<polygon fill="none" stroke="black" points="3274.25,-95 3274.25,-182 3369.75,-182 3369.75,-95 3274.25,-95"/>
<text text-anchor="middle" x="3322" y="-164.7" font-family="Times New Roman,serif" font-size="14.00">UserLogin</text>
<polyline fill="none" stroke="black" points="3274.25,-158.25 3369.75,-158.25"/>
<text text-anchor="start" x="3282.25" y="-140.95" font-family="Times New Roman,serif" font-size="14.00">email</text>
<text text-anchor="start" x="3282.25" y="-125.2" font-family="Times New Roman,serif" font-size="14.00">password : str</text>
<polyline fill="none" stroke="black" points="3274.25,-118.75 3369.75,-118.75"/>
<text text-anchor="middle" x="3322" y="-101.45" font-family="Times New Roman,serif" font-size="14.00"> </text>
</g>
<!-- app.schemas.UserResponse -->
<g id="node20" class="node">
<title>app.schemas.UserResponse</title>
<polygon fill="none" stroke="black" points="3125.62,-87.12 3125.62,-189.88 3256.38,-189.88 3256.38,-87.12 3125.62,-87.12"/>
<text text-anchor="middle" x="3191" y="-172.57" font-family="Times New Roman,serif" font-size="14.00">UserResponse</text>
<polyline fill="none" stroke="black" points="3125.62,-166.12 3256.38,-166.12"/>
<text text-anchor="start" x="3133.62" y="-148.82" font-family="Times New Roman,serif" font-size="14.00">created_at : datetime</text>
<text text-anchor="start" x="3133.62" y="-133.07" font-family="Times New Roman,serif" font-size="14.00">id : int</text>
<text text-anchor="start" x="3133.62" y="-117.33" font-family="Times New Roman,serif" font-size="14.00">is_active : bool</text>
<polyline fill="none" stroke="black" points="3125.62,-110.88 3256.38,-110.88"/>
<text text-anchor="middle" x="3191" y="-93.58" font-family="Times New Roman,serif" font-size="14.00"> </text>
</g>
<!-- app.schemas.UserResponse&#45;&gt;app.schemas.UserBase -->
<g id="edge5" class="edge">
<title>app.schemas.UserResponse&#45;&gt;app.schemas.UserBase</title>
<path fill="none" stroke="black" d="M3181.18,-190.03C3169.79,-248.59 3151.1,-344.72 3139.45,-404.63"/>
<polygon fill="none" stroke="black" points="3136.05,-403.77 3137.58,-414.25 3142.92,-405.1 3136.05,-403.77"/>
</g>
<!-- app.schemas.UserUpdate -->
<g id="node21" class="node">
<title>app.schemas.UserUpdate</title>
<polygon fill="none" stroke="black" points="3387.38,-95 3387.38,-182 3546.62,-182 3546.62,-95 3387.38,-95"/>
<text text-anchor="middle" x="3467" y="-164.7" font-family="Times New Roman,serif" font-size="14.00">UserUpdate</text>
<polyline fill="none" stroke="black" points="3387.38,-158.25 3546.62,-158.25"/>
<text text-anchor="start" x="3395.38" y="-140.95" font-family="Times New Roman,serif" font-size="14.00">email : Optional[EmailStr]</text>
<text text-anchor="start" x="3395.38" y="-125.2" font-family="Times New Roman,serif" font-size="14.00">name : Optional[str]</text>
<polyline fill="none" stroke="black" points="3387.38,-118.75 3546.62,-118.75"/>
<text text-anchor="middle" x="3467" y="-101.45" font-family="Times New Roman,serif" font-size="14.00"> </text>
</g>
</g>
</svg>
