<?xml version="1.0" encoding="UTF-8" standalone="no"?>
<!DOCTYPE svg PUBLIC "-//W3C//DTD SVG 1.1//EN"
 "http://www.w3.org/Graphics/SVG/1.1/DTD/svg11.dtd">
<!-- Generated by graphviz version 11.0.0 (20240428.1522)
 -->
<!-- Title: classes_backend Pages: 1 -->
<svg width="4535pt" height="630pt"
 viewBox="0.00 0.00 4534.50 629.50" xmlns="http://www.w3.org/2000/svg" xmlns:xlink="http://www.w3.org/1999/xlink">
<g id="graph0" class="graph" transform="scale(1 1) rotate(0) translate(4 625.5)">
<title>classes_backend</title>
<polygon fill="white" stroke="none" points="-4,4 -4,-625.5 4530.5,-625.5 4530.5,4 -4,4"/>
<!-- app.schemas.ChangePassword -->
<g id="node1" class="node">
<title>app.schemas.ChangePassword</title>
<polygon fill="none" stroke="black" points="0,-102.88 0,-189.88 142,-189.88 142,-102.88 0,-102.88"/>
<text text-anchor="middle" x="71" y="-172.57" font-family="Times New Roman,serif" font-size="14.00">ChangePassword</text>
<polyline fill="none" stroke="black" points="0,-166.12 142,-166.12"/>
<text text-anchor="start" x="8" y="-148.82" font-family="Times New Roman,serif" font-size="14.00">current_password : str</text>
<text text-anchor="start" x="8" y="-133.07" font-family="Times New Roman,serif" font-size="14.00">new_password</text>
<polyline fill="none" stroke="black" points="0,-126.62 142,-126.62"/>
<text text-anchor="middle" x="71" y="-109.33" font-family="Times New Roman,serif" font-size="14.00"> </text>
</g>
<!-- app.config.Config -->
<g id="node2" class="node">
<title>app.config.Config</title>
<polygon fill="none" stroke="black" points="248.75,-329.25 248.75,-621 569.25,-621 569.25,-329.25 248.75,-329.25"/>
<text text-anchor="middle" x="409" y="-603.7" font-family="Times New Roman,serif" font-size="14.00">Config</text>
<polyline fill="none" stroke="black" points="248.75,-597.25 569.25,-597.25"/>
<text text-anchor="start" x="256.75" y="-579.95" font-family="Times New Roman,serif" font-size="14.00">CORS_ORIGINS</text>
<text text-anchor="start" x="256.75" y="-564.2" font-family="Times New Roman,serif" font-size="14.00">DEBUG : bool</text>
<text text-anchor="start" x="256.75" y="-548.45" font-family="Times New Roman,serif" font-size="14.00">ENV : NoneType</text>
<text text-anchor="start" x="256.75" y="-532.7" font-family="Times New Roman,serif" font-size="14.00">ES_HOST : NoneType</text>
<text text-anchor="start" x="256.75" y="-516.95" font-family="Times New Roman,serif" font-size="14.00">ES_INDEX : NoneType</text>
<text text-anchor="start" x="256.75" y="-501.2" font-family="Times New Roman,serif" font-size="14.00">ES_PASSWORD : NoneType</text>
<text text-anchor="start" x="256.75" y="-485.45" font-family="Times New Roman,serif" font-size="14.00">ES_PORT : int</text>
<text text-anchor="start" x="256.75" y="-469.7" font-family="Times New Roman,serif" font-size="14.00">ES_USERNAME : NoneType</text>
<text text-anchor="start" x="256.75" y="-453.95" font-family="Times New Roman,serif" font-size="14.00">JWT_ACCESS_TOKEN_EXPIRES : timedelta</text>
<text text-anchor="start" x="256.75" y="-438.2" font-family="Times New Roman,serif" font-size="14.00">JWT_SECRET_KEY : NoneType</text>
<text text-anchor="start" x="256.75" y="-422.45" font-family="Times New Roman,serif" font-size="14.00">OPENAI_API_KEY : NoneType</text>
<text text-anchor="start" x="256.75" y="-406.7" font-family="Times New Roman,serif" font-size="14.00">SECRET_KEY : NoneType</text>
<text text-anchor="start" x="256.75" y="-390.95" font-family="Times New Roman,serif" font-size="14.00">SQLALCHEMY_DATABASE_URI : NoneType</text>
<text text-anchor="start" x="256.75" y="-375.2" font-family="Times New Roman,serif" font-size="14.00">SQLALCHEMY_TRACK_MODIFICATIONS : bool</text>
<text text-anchor="start" x="256.75" y="-359.45" font-family="Times New Roman,serif" font-size="14.00">TESTING : bool</text>
<polyline fill="none" stroke="black" points="248.75,-353 569.25,-353"/>
<text text-anchor="middle" x="409" y="-335.7" font-family="Times New Roman,serif" font-size="14.00"> </text>
</g>
<!-- app.schemas.UserResponse.Config -->
<g id="node3" class="node">
<title>app.schemas.UserResponse.Config</title>
<polygon fill="none" stroke="black" points="770.25,-110.75 770.25,-182 907.75,-182 907.75,-110.75 770.25,-110.75"/>
<text text-anchor="middle" x="839" y="-164.7" font-family="Times New Roman,serif" font-size="14.00">Config</text>
<polyline fill="none" stroke="black" points="770.25,-158.25 907.75,-158.25"/>
<text text-anchor="start" x="778.25" y="-140.95" font-family="Times New Roman,serif" font-size="14.00">from_attributes : bool</text>
<polyline fill="none" stroke="black" points="770.25,-134.5 907.75,-134.5"/>
<text text-anchor="middle" x="839" y="-117.2" font-family="Times New Roman,serif" font-size="14.00"> </text>
</g>
<!-- app.schemas.ConversationResponse.Config -->
<g id="node4" class="node">
<title>app.schemas.ConversationResponse.Config</title>
<polygon fill="none" stroke="black" points="926.25,-110.75 926.25,-182 1063.75,-182 1063.75,-110.75 926.25,-110.75"/>
<text text-anchor="middle" x="995" y="-164.7" font-family="Times New Roman,serif" font-size="14.00">Config</text>
<polyline fill="none" stroke="black" points="926.25,-158.25 1063.75,-158.25"/>
<text text-anchor="start" x="934.25" y="-140.95" font-family="Times New Roman,serif" font-size="14.00">from_attributes : bool</text>
<polyline fill="none" stroke="black" points="926.25,-134.5 1063.75,-134.5"/>
<text text-anchor="middle" x="995" y="-117.2" font-family="Times New Roman,serif" font-size="14.00"> </text>
</g>
<!-- app.schemas.QuestionResponse.Config -->
<g id="node5" class="node">
<title>app.schemas.QuestionResponse.Config</title>
<polygon fill="none" stroke="black" points="1082.25,-110.75 1082.25,-182 1219.75,-182 1219.75,-110.75 1082.25,-110.75"/>
<text text-anchor="middle" x="1151" y="-164.7" font-family="Times New Roman,serif" font-size="14.00">Config</text>
<polyline fill="none" stroke="black" points="1082.25,-158.25 1219.75,-158.25"/>
<text text-anchor="start" x="1090.25" y="-140.95" font-family="Times New Roman,serif" font-size="14.00">from_attributes : bool</text>
<polyline fill="none" stroke="black" points="1082.25,-134.5 1219.75,-134.5"/>
<text text-anchor="middle" x="1151" y="-117.2" font-family="Times New Roman,serif" font-size="14.00"> </text>
</g>
<!-- app.schemas.VersionHistoryResponse.Config -->
<g id="node6" class="node">
<title>app.schemas.VersionHistoryResponse.Config</title>
<polygon fill="none" stroke="black" points="1238.25,-110.75 1238.25,-182 1375.75,-182 1375.75,-110.75 1238.25,-110.75"/>
<text text-anchor="middle" x="1307" y="-164.7" font-family="Times New Roman,serif" font-size="14.00">Config</text>
<polyline fill="none" stroke="black" points="1238.25,-158.25 1375.75,-158.25"/>
<text text-anchor="start" x="1246.25" y="-140.95" font-family="Times New Roman,serif" font-size="14.00">from_attributes : bool</text>
<polyline fill="none" stroke="black" points="1238.25,-134.5 1375.75,-134.5"/>
<text text-anchor="middle" x="1307" y="-117.2" font-family="Times New Roman,serif" font-size="14.00"> </text>
</g>
<!-- app.models.Conversation -->
<g id="node7" class="node">
<title>app.models.Conversation</title>
<polygon fill="none" stroke="black" points="1393.38,-63.5 1393.38,-229.25 1498.62,-229.25 1498.62,-63.5 1393.38,-63.5"/>
<text text-anchor="middle" x="1446" y="-211.95" font-family="Times New Roman,serif" font-size="14.00">Conversation</text>
<polyline fill="none" stroke="black" points="1393.38,-205.5 1498.62,-205.5"/>
<text text-anchor="start" x="1401.38" y="-188.2" font-family="Times New Roman,serif" font-size="14.00">conversation_id</text>
<text text-anchor="start" x="1401.38" y="-172.45" font-family="Times New Roman,serif" font-size="14.00">created_at</text>
<text text-anchor="start" x="1401.38" y="-156.7" font-family="Times New Roman,serif" font-size="14.00">id</text>
<text text-anchor="start" x="1401.38" y="-140.95" font-family="Times New Roman,serif" font-size="14.00">is_active</text>
<text text-anchor="start" x="1401.38" y="-125.2" font-family="Times New Roman,serif" font-size="14.00">is_active : bool</text>
<text text-anchor="start" x="1401.38" y="-109.45" font-family="Times New Roman,serif" font-size="14.00">messages</text>
<text text-anchor="start" x="1401.38" y="-93.7" font-family="Times New Roman,serif" font-size="14.00">user_id</text>
<polyline fill="none" stroke="black" points="1393.38,-87.25 1498.62,-87.25"/>
<text text-anchor="middle" x="1446" y="-69.95" font-family="Times New Roman,serif" font-size="14.00"> </text>
</g>
<!-- app.schemas.ConversationResponse -->
<g id="node8" class="node">
<title>app.schemas.ConversationResponse</title>
<polygon fill="none" stroke="black" points="1516.5,-95 1516.5,-197.75 1703.5,-197.75 1703.5,-95 1516.5,-95"/>
<text text-anchor="middle" x="1610" y="-180.45" font-family="Times New Roman,serif" font-size="14.00">ConversationResponse</text>
<polyline fill="none" stroke="black" points="1516.5,-174 1703.5,-174"/>
<text text-anchor="start" x="1524.5" y="-156.7" font-family="Times New Roman,serif" font-size="14.00">created_at : datetime</text>
<text text-anchor="start" x="1524.5" y="-140.95" font-family="Times New Roman,serif" font-size="14.00">id : str</text>
<text text-anchor="start" x="1524.5" y="-125.2" font-family="Times New Roman,serif" font-size="14.00">messages : List[Dict[str, Any]]</text>
<polyline fill="none" stroke="black" points="1516.5,-118.75 1703.5,-118.75"/>
<text text-anchor="middle" x="1610" y="-101.45" font-family="Times New Roman,serif" font-size="14.00"> </text>
</g>
<!-- app.config.DevelopmentConfig -->
<g id="node9" class="node">
<title>app.config.DevelopmentConfig</title>
<polygon fill="none" stroke="black" points="160,-102.88 160,-189.88 314,-189.88 314,-102.88 160,-102.88"/>
<text text-anchor="middle" x="237" y="-172.57" font-family="Times New Roman,serif" font-size="14.00">DevelopmentConfig</text>
<polyline fill="none" stroke="black" points="160,-166.12 314,-166.12"/>
<text text-anchor="start" x="168" y="-148.82" font-family="Times New Roman,serif" font-size="14.00">DEBUG : bool</text>
<text text-anchor="start" x="168" y="-133.07" font-family="Times New Roman,serif" font-size="14.00">DEVELOPMENT : bool</text>
<polyline fill="none" stroke="black" points="160,-126.62 314,-126.62"/>
<text text-anchor="middle" x="237" y="-109.33" font-family="Times New Roman,serif" font-size="14.00"> </text>
</g>
<!-- app.config.DevelopmentConfig&#45;&gt;app.config.Config -->
<g id="edge1" class="edge">
<title>app.config.DevelopmentConfig&#45;&gt;app.config.Config</title>
<path fill="none" stroke="black" d="M259.49,-190.09C276.96,-223.28 302.33,-271.48 327.22,-318.78"/>
<polygon fill="none" stroke="black" points="324.07,-320.29 331.82,-327.51 330.26,-317.03 324.07,-320.29"/>
</g>
<!-- app.elasticsearch_querier.ElasticsearchQuerier -->
<g id="node10" class="node">
<title>app.elasticsearch_querier.ElasticsearchQuerier</title>
<polygon fill="none" stroke="black" points="1721.5,-0.5 1721.5,-292.25 2304.5,-292.25 2304.5,-0.5 1721.5,-0.5"/>
<text text-anchor="middle" x="2013" y="-274.95" font-family="Times New Roman,serif" font-size="14.00">ElasticsearchQuerier</text>
<polyline fill="none" stroke="black" points="1721.5,-268.5 2304.5,-268.5"/>
<text text-anchor="start" x="1729.5" y="-251.2" font-family="Times New Roman,serif" font-size="14.00">conversation_data_loaded : bool</text>
<text text-anchor="start" x="1729.5" y="-235.45" font-family="Times New Roman,serif" font-size="14.00">df : NoneType</text>
<text text-anchor="start" x="1729.5" y="-219.7" font-family="Times New Roman,serif" font-size="14.00">es</text>
<text text-anchor="start" x="1729.5" y="-203.95" font-family="Times New Roman,serif" font-size="14.00">grok_client</text>
<text text-anchor="start" x="1729.5" y="-188.2" font-family="Times New Roman,serif" font-size="14.00">index_name : str</text>
<text text-anchor="start" x="1729.5" y="-172.45" font-family="Times New Roman,serif" font-size="14.00">openai_client</text>
<text text-anchor="start" x="1729.5" y="-156.7" font-family="Times New Roman,serif" font-size="14.00">question_embeddings : NpzFile, NoneType</text>
<text text-anchor="start" x="1729.5" y="-140.95" font-family="Times New Roman,serif" font-size="14.00">style_map : dict</text>
<polyline fill="none" stroke="black" points="1721.5,-134.5 2304.5,-134.5"/>
<text text-anchor="start" x="1729.5" y="-117.2" font-family="Times New Roman,serif" font-size="14.00">get_embedding(text: str): list</text>
<text text-anchor="start" x="1729.5" y="-101.45" font-family="Times New Roman,serif" font-size="14.00">get_first_n_words(text: str, n: int): str</text>
<text text-anchor="start" x="1729.5" y="-85.7" font-family="Times New Roman,serif" font-size="14.00">hybrid_search(query_text: str, top_k: int): List[Dict[str, Any]]</text>
<text text-anchor="start" x="1729.5" y="-69.95" font-family="Times New Roman,serif" font-size="14.00">keyword_search(query_text: str, top_k: int): List[Dict[str, Any]]</text>
<text text-anchor="start" x="1729.5" y="-54.2" font-family="Times New Roman,serif" font-size="14.00">load_conversation_data(data_path: str)</text>
<text text-anchor="start" x="1729.5" y="-38.45" font-family="Times New Roman,serif" font-size="14.00">process_search_results(results: List[Dict], query: str, parameters: dict): Dict[str, Any]</text>
<text text-anchor="start" x="1729.5" y="-22.7" font-family="Times New Roman,serif" font-size="14.00">rerank_results(keyword_results: list, semantic_results: list, alpha: float, top_k: int): List[Dict[str, Any]]</text>
<text text-anchor="start" x="1729.5" y="-6.95" font-family="Times New Roman,serif" font-size="14.00">semantic_search(query_text: str, top_k: int): List[Dict[str, Any]]</text>
</g>
<!-- app.models.Message -->
<g id="node11" class="node">
<title>app.models.Message</title>
<polygon fill="none" stroke="black" points="2322.75,-24.12 2322.75,-268.62 2451.25,-268.62 2451.25,-24.12 2322.75,-24.12"/>
<text text-anchor="middle" x="2387" y="-251.32" font-family="Times New Roman,serif" font-size="14.00">Message</text>
<polyline fill="none" stroke="black" points="2322.75,-244.88 2451.25,-244.88"/>
<text text-anchor="start" x="2330.75" y="-227.57" font-family="Times New Roman,serif" font-size="14.00">content</text>
<text text-anchor="start" x="2330.75" y="-211.82" font-family="Times New Roman,serif" font-size="14.00">conversation_action</text>
<text text-anchor="start" x="2330.75" y="-196.07" font-family="Times New Roman,serif" font-size="14.00">conversation_id</text>
<text text-anchor="start" x="2330.75" y="-180.32" font-family="Times New Roman,serif" font-size="14.00">created_at</text>
<text text-anchor="start" x="2330.75" y="-164.57" font-family="Times New Roman,serif" font-size="14.00">detailed_response</text>
<text text-anchor="start" x="2330.75" y="-148.82" font-family="Times New Roman,serif" font-size="14.00">id</text>
<text text-anchor="start" x="2330.75" y="-133.07" font-family="Times New Roman,serif" font-size="14.00">message_type</text>
<text text-anchor="start" x="2330.75" y="-117.33" font-family="Times New Roman,serif" font-size="14.00">parent_name</text>
<text text-anchor="start" x="2330.75" y="-101.58" font-family="Times New Roman,serif" font-size="14.00">relationship_data</text>
<text text-anchor="start" x="2330.75" y="-85.83" font-family="Times New Roman,serif" font-size="14.00">response</text>
<text text-anchor="start" x="2330.75" y="-70.08" font-family="Times New Roman,serif" font-size="14.00">response_metadata</text>
<text text-anchor="start" x="2330.75" y="-54.33" font-family="Times New Roman,serif" font-size="14.00">source_data</text>
<polyline fill="none" stroke="black" points="2322.75,-47.88 2451.25,-47.88"/>
<text text-anchor="start" x="2330.75" y="-30.57" font-family="Times New Roman,serif" font-size="14.00">to_dict()</text>
</g>
<!-- app.schemas.MessageBase -->
<g id="node12" class="node">
<title>app.schemas.MessageBase</title>
<polygon fill="none" stroke="black" points="2469.5,-87.12 2469.5,-205.62 2656.5,-205.62 2656.5,-87.12 2469.5,-87.12"/>
<text text-anchor="middle" x="2563" y="-188.32" font-family="Times New Roman,serif" font-size="14.00">MessageBase</text>
<polyline fill="none" stroke="black" points="2469.5,-181.88 2656.5,-181.88"/>
<text text-anchor="start" x="2477.5" y="-164.57" font-family="Times New Roman,serif" font-size="14.00">conversation_id : Optional[str]</text>
<text text-anchor="start" x="2477.5" y="-148.82" font-family="Times New Roman,serif" font-size="14.00">message : str</text>
<text text-anchor="start" x="2477.5" y="-133.07" font-family="Times New Roman,serif" font-size="14.00">parent_name : Optional[str]</text>
<text text-anchor="start" x="2477.5" y="-117.33" font-family="Times New Roman,serif" font-size="14.00">response_type : Optional[str]</text>
<polyline fill="none" stroke="black" points="2469.5,-110.88 2656.5,-110.88"/>
<text text-anchor="middle" x="2563" y="-93.58" font-family="Times New Roman,serif" font-size="14.00"> </text>
</g>
<!-- app.schemas.MessageResponse -->
<g id="node13" class="node">
<title>app.schemas.MessageResponse</title>
<polygon fill="none" stroke="black" points="2674.75,-32 2674.75,-260.75 2869.25,-260.75 2869.25,-32 2674.75,-32"/>
<text text-anchor="middle" x="2772" y="-243.45" font-family="Times New Roman,serif" font-size="14.00">MessageResponse</text>
<polyline fill="none" stroke="black" points="2674.75,-237 2869.25,-237"/>
<text text-anchor="start" x="2682.75" y="-219.7" font-family="Times New Roman,serif" font-size="14.00">ai_version_id : Optional[int]</text>
<text text-anchor="start" x="2682.75" y="-203.95" font-family="Times New Roman,serif" font-size="14.00">conversation_id : str</text>
<text text-anchor="start" x="2682.75" y="-188.2" font-family="Times New Roman,serif" font-size="14.00">detailed_response : str</text>
<text text-anchor="start" x="2682.75" y="-172.45" font-family="Times New Roman,serif" font-size="14.00">metadata : Dict[str, Any]</text>
<text text-anchor="start" x="2682.75" y="-156.7" font-family="Times New Roman,serif" font-size="14.00">parent_name : Optional[str]</text>
<text text-anchor="start" x="2682.75" y="-140.95" font-family="Times New Roman,serif" font-size="14.00">question_id : Optional[int]</text>
<text text-anchor="start" x="2682.75" y="-125.2" font-family="Times New Roman,serif" font-size="14.00">relationships : List[Dict[str, str]]</text>
<text text-anchor="start" x="2682.75" y="-109.45" font-family="Times New Roman,serif" font-size="14.00">simple_response : str</text>
<text text-anchor="start" x="2682.75" y="-93.7" font-family="Times New Roman,serif" font-size="14.00">sources : List[str]</text>
<text text-anchor="start" x="2682.75" y="-77.95" font-family="Times New Roman,serif" font-size="14.00">text_content : List[Dict[str, str]]</text>
<text text-anchor="start" x="2682.75" y="-62.2" font-family="Times New Roman,serif" font-size="14.00">user_version_id : Optional[int]</text>
<polyline fill="none" stroke="black" points="2674.75,-55.75 2869.25,-55.75"/>
<text text-anchor="middle" x="2772" y="-38.45" font-family="Times New Roman,serif" font-size="14.00"> </text>
</g>
<!-- app.config.ProductionConfig -->
<g id="node14" class="node">
<title>app.config.ProductionConfig</title>
<polygon fill="none" stroke="black" points="332,-102.88 332,-189.88 486,-189.88 486,-102.88 332,-102.88"/>
<text text-anchor="middle" x="409" y="-172.57" font-family="Times New Roman,serif" font-size="14.00">ProductionConfig</text>
<polyline fill="none" stroke="black" points="332,-166.12 486,-166.12"/>
<text text-anchor="start" x="340" y="-148.82" font-family="Times New Roman,serif" font-size="14.00">DEBUG : bool</text>
<text text-anchor="start" x="340" y="-133.07" font-family="Times New Roman,serif" font-size="14.00">DEVELOPMENT : bool</text>
<polyline fill="none" stroke="black" points="332,-126.62 486,-126.62"/>
<text text-anchor="middle" x="409" y="-109.33" font-family="Times New Roman,serif" font-size="14.00"> </text>
</g>
<!-- app.config.ProductionConfig&#45;&gt;app.config.Config -->
<g id="edge2" class="edge">
<title>app.config.ProductionConfig&#45;&gt;app.config.Config</title>
<path fill="none" stroke="black" d="M409,-190.09C409,-223 409,-270.67 409,-317.59"/>
<polygon fill="none" stroke="black" points="405.5,-317.34 409,-327.34 412.5,-317.34 405.5,-317.34"/>
</g>
<!-- app.models.Question -->
<g id="node15" class="node">
<title>app.models.Question</title>
<polygon fill="none" stroke="black" points="2887.38,-55.62 2887.38,-237.12 2992.62,-237.12 2992.62,-55.62 2887.38,-55.62"/>
<text text-anchor="middle" x="2940" y="-219.82" font-family="Times New Roman,serif" font-size="14.00">Question</text>
<polyline fill="none" stroke="black" points="2887.38,-213.38 2992.62,-213.38"/>
<text text-anchor="start" x="2895.38" y="-196.07" font-family="Times New Roman,serif" font-size="14.00">content</text>
<text text-anchor="start" x="2895.38" y="-180.32" font-family="Times New Roman,serif" font-size="14.00">conversation_id</text>
<text text-anchor="start" x="2895.38" y="-164.57" font-family="Times New Roman,serif" font-size="14.00">created_at</text>
<text text-anchor="start" x="2895.38" y="-148.82" font-family="Times New Roman,serif" font-size="14.00">id</text>
<text text-anchor="start" x="2895.38" y="-133.07" font-family="Times New Roman,serif" font-size="14.00">is_archived</text>
<text text-anchor="start" x="2895.38" y="-117.33" font-family="Times New Roman,serif" font-size="14.00">parent_name</text>
<text text-anchor="start" x="2895.38" y="-101.58" font-family="Times New Roman,serif" font-size="14.00">user_id</text>
<text text-anchor="start" x="2895.38" y="-85.83" font-family="Times New Roman,serif" font-size="14.00">versions</text>
<polyline fill="none" stroke="black" points="2887.38,-79.38 2992.62,-79.38"/>
<text text-anchor="start" x="2895.38" y="-62.08" font-family="Times New Roman,serif" font-size="14.00">to_dict()</text>
</g>
<!-- app.schemas.QuestionResponse -->
<g id="node16" class="node">
<title>app.schemas.QuestionResponse</title>
<polygon fill="none" stroke="black" points="3010.5,-71.38 3010.5,-221.38 3197.5,-221.38 3197.5,-71.38 3010.5,-71.38"/>
<text text-anchor="middle" x="3104" y="-204.07" font-family="Times New Roman,serif" font-size="14.00">QuestionResponse</text>
<polyline fill="none" stroke="black" points="3010.5,-197.62 3197.5,-197.62"/>
<text text-anchor="start" x="3018.5" y="-180.32" font-family="Times New Roman,serif" font-size="14.00">content : str</text>
<text text-anchor="start" x="3018.5" y="-164.57" font-family="Times New Roman,serif" font-size="14.00">conversation_id : Optional[str]</text>
<text text-anchor="start" x="3018.5" y="-148.82" font-family="Times New Roman,serif" font-size="14.00">created_at : datetime</text>
<text text-anchor="start" x="3018.5" y="-133.07" font-family="Times New Roman,serif" font-size="14.00">id : int</text>
<text text-anchor="start" x="3018.5" y="-117.33" font-family="Times New Roman,serif" font-size="14.00">parent_name : Optional[str]</text>
<text text-anchor="start" x="3018.5" y="-101.58" font-family="Times New Roman,serif" font-size="14.00">versions : List[Dict[str, Any]]</text>
<polyline fill="none" stroke="black" points="3010.5,-95.12 3197.5,-95.12"/>
<text text-anchor="middle" x="3104" y="-77.83" font-family="Times New Roman,serif" font-size="14.00"> </text>
</g>
<!-- app.config.TestingConfig -->
<g id="node17" class="node">
<title>app.config.TestingConfig</title>
<polygon fill="none" stroke="black" points="504.12,-102.88 504.12,-189.88 751.88,-189.88 751.88,-102.88 504.12,-102.88"/>
<text text-anchor="middle" x="628" y="-172.57" font-family="Times New Roman,serif" font-size="14.00">TestingConfig</text>
<polyline fill="none" stroke="black" points="504.12,-166.12 751.88,-166.12"/>
<text text-anchor="start" x="512.12" y="-148.82" font-family="Times New Roman,serif" font-size="14.00">SQLALCHEMY_DATABASE_URI : str</text>
<text text-anchor="start" x="512.12" y="-133.07" font-family="Times New Roman,serif" font-size="14.00">TESTING : bool</text>
<polyline fill="none" stroke="black" points="504.12,-126.62 751.88,-126.62"/>
<text text-anchor="middle" x="628" y="-109.33" font-family="Times New Roman,serif" font-size="14.00"> </text>
</g>
<!-- app.config.TestingConfig&#45;&gt;app.config.Config -->
<g id="edge3" class="edge">
<title>app.config.TestingConfig&#45;&gt;app.config.Config</title>
<path fill="none" stroke="black" d="M599.37,-190.09C577.03,-223.42 544.55,-271.88 512.72,-319.37"/>
<polygon fill="none" stroke="black" points="509.87,-317.34 507.21,-327.59 515.69,-321.23 509.87,-317.34"/>
</g>
<!-- app.schemas.Token -->
<g id="node18" class="node">
<title>app.schemas.Token</title>
<polygon fill="none" stroke="black" points="3215.5,-102.88 3215.5,-189.88 3318.5,-189.88 3318.5,-102.88 3215.5,-102.88"/>
<text text-anchor="middle" x="3267" y="-172.57" font-family="Times New Roman,serif" font-size="14.00">Token</text>
<polyline fill="none" stroke="black" points="3215.5,-166.12 3318.5,-166.12"/>
<text text-anchor="start" x="3223.5" y="-148.82" font-family="Times New Roman,serif" font-size="14.00">token : str</text>
<text text-anchor="start" x="3223.5" y="-133.07" font-family="Times New Roman,serif" font-size="14.00">token_type : str</text>
<polyline fill="none" stroke="black" points="3215.5,-126.62 3318.5,-126.62"/>
<text text-anchor="middle" x="3267" y="-109.33" font-family="Times New Roman,serif" font-size="14.00"> </text>
</g>
<!-- app.schemas.TokenData -->
<g id="node19" class="node">
<title>app.schemas.TokenData</title>
<polygon fill="none" stroke="black" points="3336.88,-110.75 3336.88,-182 3463.12,-182 3463.12,-110.75 3336.88,-110.75"/>
<text text-anchor="middle" x="3400" y="-164.7" font-family="Times New Roman,serif" font-size="14.00">TokenData</text>
<polyline fill="none" stroke="black" points="3336.88,-158.25 3463.12,-158.25"/>
<text text-anchor="start" x="3344.88" y="-140.95" font-family="Times New Roman,serif" font-size="14.00">email : Optional[str]</text>
<polyline fill="none" stroke="black" points="3336.88,-134.5 3463.12,-134.5"/>
<text text-anchor="middle" x="3400" y="-117.2" font-family="Times New Roman,serif" font-size="14.00"> </text>
</g>
<!-- app.models.User -->
<g id="node20" class="node">
<title>app.models.User</title>
<polygon fill="none" stroke="black" points="3481.5,-0.5 3481.5,-292.25 3656.5,-292.25 3656.5,-0.5 3481.5,-0.5"/>
<text text-anchor="middle" x="3569" y="-274.95" font-family="Times New Roman,serif" font-size="14.00">User</text>
<polyline fill="none" stroke="black" points="3481.5,-268.5 3656.5,-268.5"/>
<text text-anchor="start" x="3489.5" y="-251.2" font-family="Times New Roman,serif" font-size="14.00">conversations</text>
<text text-anchor="start" x="3489.5" y="-235.45" font-family="Times New Roman,serif" font-size="14.00">created_at</text>
<text text-anchor="start" x="3489.5" y="-219.7" font-family="Times New Roman,serif" font-size="14.00">email</text>
<text text-anchor="start" x="3489.5" y="-203.95" font-family="Times New Roman,serif" font-size="14.00">id</text>
<text text-anchor="start" x="3489.5" y="-188.2" font-family="Times New Roman,serif" font-size="14.00">is_active</text>
<text text-anchor="start" x="3489.5" y="-172.45" font-family="Times New Roman,serif" font-size="14.00">last_login</text>
<text text-anchor="start" x="3489.5" y="-156.7" font-family="Times New Roman,serif" font-size="14.00">last_login : datetime</text>
<text text-anchor="start" x="3489.5" y="-140.95" font-family="Times New Roman,serif" font-size="14.00">name</text>
<text text-anchor="start" x="3489.5" y="-125.2" font-family="Times New Roman,serif" font-size="14.00">password_hash</text>
<text text-anchor="start" x="3489.5" y="-109.45" font-family="Times New Roman,serif" font-size="14.00">password_hash</text>
<text text-anchor="start" x="3489.5" y="-93.7" font-family="Times New Roman,serif" font-size="14.00">questions</text>
<text text-anchor="start" x="3489.5" y="-77.95" font-family="Times New Roman,serif" font-size="14.00">role</text>
<polyline fill="none" stroke="black" points="3481.5,-71.5 3656.5,-71.5"/>
<text text-anchor="start" x="3489.5" y="-54.2" font-family="Times New Roman,serif" font-size="14.00">check_password(password)</text>
<text text-anchor="start" x="3489.5" y="-38.45" font-family="Times New Roman,serif" font-size="14.00">set_password(password)</text>
<text text-anchor="start" x="3489.5" y="-22.7" font-family="Times New Roman,serif" font-size="14.00">to_dict()</text>
<text text-anchor="start" x="3489.5" y="-6.95" font-family="Times New Roman,serif" font-size="14.00">update_last_login()</text>
</g>
<!-- app.schemas.UserBase -->
<g id="node21" class="node">
<title>app.schemas.UserBase</title>
<polygon fill="none" stroke="black" points="3740,-431.62 3740,-518.62 3810,-518.62 3810,-431.62 3740,-431.62"/>
<text text-anchor="middle" x="3775" y="-501.32" font-family="Times New Roman,serif" font-size="14.00">UserBase</text>
<polyline fill="none" stroke="black" points="3740,-494.88 3810,-494.88"/>
<text text-anchor="start" x="3748" y="-477.57" font-family="Times New Roman,serif" font-size="14.00">email</text>
<text text-anchor="start" x="3748" y="-461.82" font-family="Times New Roman,serif" font-size="14.00">name : str</text>
<polyline fill="none" stroke="black" points="3740,-455.38 3810,-455.38"/>
<text text-anchor="middle" x="3775" y="-438.07" font-family="Times New Roman,serif" font-size="14.00"> </text>
</g>
<!-- app.schemas.UserCreate -->
<g id="node22" class="node">
<title>app.schemas.UserCreate</title>
<polygon fill="none" stroke="black" points="3674.88,-110.75 3674.88,-182 3753.12,-182 3753.12,-110.75 3674.88,-110.75"/>
<text text-anchor="middle" x="3714" y="-164.7" font-family="Times New Roman,serif" font-size="14.00">UserCreate</text>
<polyline fill="none" stroke="black" points="3674.88,-158.25 3753.12,-158.25"/>
<text text-anchor="start" x="3682.88" y="-140.95" font-family="Times New Roman,serif" font-size="14.00">password</text>
<polyline fill="none" stroke="black" points="3674.88,-134.5 3753.12,-134.5"/>
<text text-anchor="middle" x="3714" y="-117.2" font-family="Times New Roman,serif" font-size="14.00"> </text>
</g>
<!-- app.schemas.UserCreate&#45;&gt;app.schemas.UserBase -->
<g id="edge4" class="edge">
<title>app.schemas.UserCreate&#45;&gt;app.schemas.UserBase</title>
<path fill="none" stroke="black" d="M3720.53,-182.34C3731.16,-239.3 3752.3,-352.52 3764.89,-419.95"/>
<polygon fill="none" stroke="black" points="3761.43,-420.5 3766.7,-429.69 3768.31,-419.22 3761.43,-420.5"/>
</g>
<!-- app.schemas.UserLogin -->
<g id="node23" class="node">
<title>app.schemas.UserLogin</title>
<polygon fill="none" stroke="black" points="3920.25,-102.88 3920.25,-189.88 4015.75,-189.88 4015.75,-102.88 3920.25,-102.88"/>
<text text-anchor="middle" x="3968" y="-172.57" font-family="Times New Roman,serif" font-size="14.00">UserLogin</text>
<polyline fill="none" stroke="black" points="3920.25,-166.12 4015.75,-166.12"/>
<text text-anchor="start" x="3928.25" y="-148.82" font-family="Times New Roman,serif" font-size="14.00">email</text>
<text text-anchor="start" x="3928.25" y="-133.07" font-family="Times New Roman,serif" font-size="14.00">password : str</text>
<polyline fill="none" stroke="black" points="3920.25,-126.62 4015.75,-126.62"/>
<text text-anchor="middle" x="3968" y="-109.33" font-family="Times New Roman,serif" font-size="14.00"> </text>
</g>
<!-- app.schemas.UserResponse -->
<g id="node24" class="node">
<title>app.schemas.UserResponse</title>
<polygon fill="none" stroke="black" points="3771.62,-95 3771.62,-197.75 3902.38,-197.75 3902.38,-95 3771.62,-95"/>
<text text-anchor="middle" x="3837" y="-180.45" font-family="Times New Roman,serif" font-size="14.00">UserResponse</text>
<polyline fill="none" stroke="black" points="3771.62,-174 3902.38,-174"/>
<text text-anchor="start" x="3779.62" y="-156.7" font-family="Times New Roman,serif" font-size="14.00">created_at : datetime</text>
<text text-anchor="start" x="3779.62" y="-140.95" font-family="Times New Roman,serif" font-size="14.00">id : int</text>
<text text-anchor="start" x="3779.62" y="-125.2" font-family="Times New Roman,serif" font-size="14.00">is_active : bool</text>
<polyline fill="none" stroke="black" points="3771.62,-118.75 3902.38,-118.75"/>
<text text-anchor="middle" x="3837" y="-101.45" font-family="Times New Roman,serif" font-size="14.00"> </text>
</g>
<!-- app.schemas.UserResponse&#45;&gt;app.schemas.UserBase -->
<g id="edge5" class="edge">
<title>app.schemas.UserResponse&#45;&gt;app.schemas.UserBase</title>
<path fill="none" stroke="black" d="M3827.38,-198.07C3815.95,-258.32 3796.96,-358.41 3785.25,-420.09"/>
<polygon fill="none" stroke="black" points="3781.86,-419.17 3783.44,-429.65 3788.74,-420.48 3781.86,-419.17"/>
</g>
<!-- app.schemas.UserUpdate -->
<g id="node25" class="node">
<title>app.schemas.UserUpdate</title>
<polygon fill="none" stroke="black" points="4033.38,-102.88 4033.38,-189.88 4192.62,-189.88 4192.62,-102.88 4033.38,-102.88"/>
<text text-anchor="middle" x="4113" y="-172.57" font-family="Times New Roman,serif" font-size="14.00">UserUpdate</text>
<polyline fill="none" stroke="black" points="4033.38,-166.12 4192.62,-166.12"/>
<text text-anchor="start" x="4041.38" y="-148.82" font-family="Times New Roman,serif" font-size="14.00">email : Optional[EmailStr]</text>
<text text-anchor="start" x="4041.38" y="-133.07" font-family="Times New Roman,serif" font-size="14.00">name : Optional[str]</text>
<polyline fill="none" stroke="black" points="4033.38,-126.62 4192.62,-126.62"/>
<text text-anchor="middle" x="4113" y="-109.33" font-family="Times New Roman,serif" font-size="14.00"> </text>
</g>
<!-- app.models.VersionHistory -->
<g id="node26" class="node">
<title>app.models.VersionHistory</title>
<polygon fill="none" stroke="black" points="4210.75,-47.75 4210.75,-245 4339.25,-245 4339.25,-47.75 4210.75,-47.75"/>
<text text-anchor="middle" x="4275" y="-227.7" font-family="Times New Roman,serif" font-size="14.00">VersionHistory</text>
<polyline fill="none" stroke="black" points="4210.75,-221.25 4339.25,-221.25"/>
<text text-anchor="start" x="4218.75" y="-203.95" font-family="Times New Roman,serif" font-size="14.00">content</text>
<text text-anchor="start" x="4218.75" y="-188.2" font-family="Times New Roman,serif" font-size="14.00">conversation_action</text>
<text text-anchor="start" x="4218.75" y="-172.45" font-family="Times New Roman,serif" font-size="14.00">id</text>
<text text-anchor="start" x="4218.75" y="-156.7" font-family="Times New Roman,serif" font-size="14.00">is_bookmarked</text>
<text text-anchor="start" x="4218.75" y="-140.95" font-family="Times New Roman,serif" font-size="14.00">is_liked</text>
<text text-anchor="start" x="4218.75" y="-125.2" font-family="Times New Roman,serif" font-size="14.00">parent_name</text>
<text text-anchor="start" x="4218.75" y="-109.45" font-family="Times New Roman,serif" font-size="14.00">question_id</text>
<text text-anchor="start" x="4218.75" y="-93.7" font-family="Times New Roman,serif" font-size="14.00">timestamp</text>
<text text-anchor="start" x="4218.75" y="-77.95" font-family="Times New Roman,serif" font-size="14.00">type</text>
<polyline fill="none" stroke="black" points="4210.75,-71.5 4339.25,-71.5"/>
<text text-anchor="start" x="4218.75" y="-54.2" font-family="Times New Roman,serif" font-size="14.00">to_dict()</text>
</g>
<!-- app.schemas.VersionHistoryResponse -->
<g id="node27" class="node">
<title>app.schemas.VersionHistoryResponse</title>
<polygon fill="none" stroke="black" points="4357.5,-55.62 4357.5,-237.12 4526.5,-237.12 4526.5,-55.62 4357.5,-55.62"/>
<text text-anchor="middle" x="4442" y="-219.82" font-family="Times New Roman,serif" font-size="14.00">VersionHistoryResponse</text>
<polyline fill="none" stroke="black" points="4357.5,-213.38 4526.5,-213.38"/>
<text text-anchor="start" x="4365.5" y="-196.07" font-family="Times New Roman,serif" font-size="14.00">content : str</text>
<text text-anchor="start" x="4365.5" y="-180.32" font-family="Times New Roman,serif" font-size="14.00">id : int</text>
<text text-anchor="start" x="4365.5" y="-164.57" font-family="Times New Roman,serif" font-size="14.00">is_bookmarked : bool</text>
<text text-anchor="start" x="4365.5" y="-148.82" font-family="Times New Roman,serif" font-size="14.00">is_liked : bool</text>
<text text-anchor="start" x="4365.5" y="-133.07" font-family="Times New Roman,serif" font-size="14.00">parent_name : Optional[str]</text>
<text text-anchor="start" x="4365.5" y="-117.33" font-family="Times New Roman,serif" font-size="14.00">question_id : int</text>
<text text-anchor="start" x="4365.5" y="-101.58" font-family="Times New Roman,serif" font-size="14.00">timestamp : datetime</text>
<text text-anchor="start" x="4365.5" y="-85.83" font-family="Times New Roman,serif" font-size="14.00">type : str</text>
<polyline fill="none" stroke="black" points="4357.5,-79.38 4526.5,-79.38"/>
<text text-anchor="middle" x="4442" y="-62.08" font-family="Times New Roman,serif" font-size="14.00"> </text>
</g>
</g>
</svg>
