<?xml version="1.0" encoding="UTF-8" standalone="no"?>
<!DOCTYPE svg PUBLIC "-//W3C//DTD SVG 1.1//EN"
 "http://www.w3.org/Graphics/SVG/1.1/DTD/svg11.dtd">
<!-- Generated by graphviz version 11.0.0 (20240428.1522)
 -->
<!-- Title: packages_backend Pages: 1 -->
<svg width="623pt" height="260pt"
 viewBox="0.00 0.00 623.38 260.00" xmlns="http://www.w3.org/2000/svg" xmlns:xlink="http://www.w3.org/1999/xlink">
<g id="graph0" class="graph" transform="scale(1 1) rotate(0) translate(4 256)">
<title>packages_backend</title>
<polygon fill="white" stroke="none" points="-4,4 -4,-256 619.38,-256 619.38,4 -4,4"/>
<!-- app -->
<g id="node1" class="node">
<title>app</title>
<polygon fill="none" stroke="black" points="180,-36 126,-36 126,0 180,0 180,-36"/>
<text text-anchor="middle" x="153" y="-12.57" font-family="Times New Roman,serif" font-size="14.00">app</text>
</g>
<!-- app.auth -->
<g id="node2" class="node">
<title>app.auth</title>
<polygon fill="none" stroke="black" points="64,-108 0,-108 0,-72 64,-72 64,-108"/>
<text text-anchor="middle" x="32" y="-84.58" font-family="Times New Roman,serif" font-size="14.00">app.auth</text>
</g>
<!-- app&#45;&gt;app.auth -->
<g id="edge1" class="edge">
<title>app&#45;&gt;app.auth</title>
<path fill="none" stroke="black" d="M125.54,-34.88C109.54,-44.14 89.09,-55.97 71.39,-66.21"/>
<polygon fill="black" stroke="black" points="62.95,-71.1 69.35,-62.19 66.22,-69.2 71.6,-66.09 71.6,-66.09 71.6,-66.09 66.22,-69.2 73.85,-69.99 62.95,-71.1"/>
</g>
<!-- app.config -->
<g id="node6" class="node">
<title>app.config</title>
<polygon fill="none" stroke="black" points="158,-108 82,-108 82,-72 158,-72 158,-108"/>
<text text-anchor="middle" x="120" y="-84.58" font-family="Times New Roman,serif" font-size="14.00">app.config</text>
</g>
<!-- app&#45;&gt;app.config -->
<g id="edge2" class="edge">
<title>app&#45;&gt;app.config</title>
<path fill="none" stroke="black" d="M144.84,-36.3C141.21,-44.02 136.84,-53.29 132.78,-61.89"/>
<polygon fill="black" stroke="black" points="128.58,-70.79 128.78,-59.83 130.2,-67.37 132.85,-61.75 132.85,-61.75 132.85,-61.75 130.2,-67.37 136.92,-63.67 128.58,-70.79"/>
</g>
<!-- app.database -->
<g id="node7" class="node">
<title>app.database</title>
<polygon fill="none" stroke="black" points="268.75,-252 179.25,-252 179.25,-216 268.75,-216 268.75,-252"/>
<text text-anchor="middle" x="224" y="-228.57" font-family="Times New Roman,serif" font-size="14.00">app.database</text>
</g>
<!-- app&#45;&gt;app.database -->
<g id="edge3" class="edge">
<title>app&#45;&gt;app.database</title>
<path fill="none" stroke="black" d="M158.69,-36.15C170.95,-73.09 199.93,-160.45 214.82,-205.33"/>
<polygon fill="black" stroke="black" points="217.9,-214.61 210.48,-206.54 216.71,-211.02 214.75,-205.12 214.75,-205.12 214.75,-205.12 216.71,-211.02 219.02,-203.7 217.9,-214.61"/>
</g>
<!-- app.routes -->
<g id="node10" class="node">
<title>app.routes</title>
<polygon fill="none" stroke="black" points="368.62,-108 293.38,-108 293.38,-72 368.62,-72 368.62,-108"/>
<text text-anchor="middle" x="331" y="-84.58" font-family="Times New Roman,serif" font-size="14.00">app.routes</text>
</g>
<!-- app&#45;&gt;app.routes -->
<g id="edge4" class="edge">
<title>app&#45;&gt;app.routes</title>
<path fill="none" stroke="black" d="M180.41,-32.23C183.3,-33.54 186.2,-34.82 189,-36 219.85,-49.01 255.11,-62.19 282.78,-72.14"/>
<polygon fill="black" stroke="black" points="291.84,-75.38 280.91,-76.25 288.28,-74.11 282.43,-72.01 282.43,-72.01 282.43,-72.01 288.28,-74.11 283.94,-67.78 291.84,-75.38"/>
</g>
<!-- app.auth.jwt -->
<g id="node3" class="node">
<title>app.auth.jwt</title>
<polygon fill="none" stroke="black" points="282.12,-36 197.88,-36 197.88,0 282.12,0 282.12,-36"/>
<text text-anchor="middle" x="240" y="-12.57" font-family="Times New Roman,serif" font-size="14.00">app.auth.jwt</text>
</g>
<!-- app.auth.routes -->
<g id="node4" class="node">
<title>app.auth.routes</title>
<polygon fill="none" stroke="black" points="402.12,-36 299.88,-36 299.88,0 402.12,0 402.12,-36"/>
<text text-anchor="middle" x="351" y="-12.57" font-family="Times New Roman,serif" font-size="14.00">app.auth.routes</text>
</g>
<!-- app.auth.utils -->
<g id="node5" class="node">
<title>app.auth.utils</title>
<polygon fill="none" stroke="black" points="510.12,-36 419.88,-36 419.88,0 510.12,0 510.12,-36"/>
<text text-anchor="middle" x="465" y="-12.57" font-family="Times New Roman,serif" font-size="14.00">app.auth.utils</text>
</g>
<!-- app.elasticsearch_querier -->
<g id="node8" class="node">
<title>app.elasticsearch_querier</title>
<polygon fill="none" stroke="black" points="409.5,-180 252.5,-180 252.5,-144 409.5,-144 409.5,-180"/>
<text text-anchor="middle" x="331" y="-156.57" font-family="Times New Roman,serif" font-size="14.00">app.elasticsearch_querier</text>
</g>
<!-- app.models -->
<g id="node9" class="node">
<title>app.models</title>
<polygon fill="none" stroke="black" points="508.62,-180 427.38,-180 427.38,-144 508.62,-144 508.62,-180"/>
<text text-anchor="middle" x="468" y="-156.57" font-family="Times New Roman,serif" font-size="14.00">app.models</text>
</g>
<!-- app.models&#45;&gt;app.database -->
<g id="edge5" class="edge">
<title>app.models&#45;&gt;app.database</title>
<path fill="none" stroke="black" d="M426.9,-177.49C424.23,-178.36 421.58,-179.2 419,-180 372.43,-194.39 318.97,-208.77 279.82,-218.91"/>
<polygon fill="black" stroke="black" points="270.35,-221.36 278.91,-214.5 274.02,-220.41 280.04,-218.86 280.04,-218.86 280.04,-218.86 274.02,-220.41 281.16,-223.22 270.35,-221.36"/>
</g>
<!-- app.routes&#45;&gt;app.database -->
<g id="edge6" class="edge">
<title>app.routes&#45;&gt;app.database</title>
<path fill="none" stroke="black" d="M292.95,-105.44C275.2,-114.05 255.32,-126.72 243,-144 230.45,-161.6 225.89,-185.81 224.36,-204.54"/>
<polygon fill="black" stroke="black" points="223.81,-214.44 219.87,-204.2 224.02,-210.66 224.36,-204.45 224.36,-204.45 224.36,-204.45 224.02,-210.66 228.86,-204.7 223.81,-214.44"/>
</g>
<!-- app.routes&#45;&gt;app.elasticsearch_querier -->
<g id="edge7" class="edge">
<title>app.routes&#45;&gt;app.elasticsearch_querier</title>
<path fill="none" stroke="black" d="M331,-108.3C331,-115.68 331,-124.48 331,-132.75"/>
<polygon fill="black" stroke="black" points="331,-142.68 326.5,-132.68 331,-138.9 331,-132.68 331,-132.68 331,-132.68 331,-138.9 335.5,-132.68 331,-142.68"/>
</g>
<!-- app.routes&#45;&gt;app.models -->
<g id="edge8" class="edge">
<title>app.routes&#45;&gt;app.models</title>
<path fill="none" stroke="black" d="M365.22,-108.48C383.09,-117.61 405.15,-128.89 424.25,-138.65"/>
<polygon fill="black" stroke="black" points="433.13,-143.19 422.18,-142.64 429.77,-141.46 424.23,-138.64 424.23,-138.64 424.23,-138.64 429.77,-141.46 426.28,-134.63 433.13,-143.19"/>
</g>
<!-- app.schemas -->
<g id="node11" class="node">
<title>app.schemas</title>
<polygon fill="none" stroke="black" points="615.38,-180 526.62,-180 526.62,-144 615.38,-144 615.38,-180"/>
<text text-anchor="middle" x="571" y="-156.57" font-family="Times New Roman,serif" font-size="14.00">app.schemas</text>
</g>
<!-- app.routes&#45;&gt;app.schemas -->
<g id="edge9" class="edge">
<title>app.routes&#45;&gt;app.schemas</title>
<path fill="none" stroke="black" d="M369.08,-101.38C404.72,-111.19 459.72,-126.55 515.74,-143.36"/>
<polygon fill="black" stroke="black" points="525.05,-146.16 514.17,-147.59 521.43,-145.07 515.47,-143.28 515.47,-143.28 515.47,-143.28 521.43,-145.07 516.77,-138.97 525.05,-146.16"/>
</g>
</g>
</svg>
