<?xml version="1.0" encoding="UTF-8" standalone="no"?>
<!DOCTYPE svg PUBLIC "-//W3C//DTD SVG 1.1//EN"
 "http://www.w3.org/Graphics/SVG/1.1/DTD/svg11.dtd">
<!-- Generated by graphviz version 11.0.0 (20240428.1522)
 -->
<!-- Title: packages_backend Pages: 1 -->
<svg width="761pt" height="332pt"
 viewBox="0.00 0.00 760.88 332.00" xmlns="http://www.w3.org/2000/svg" xmlns:xlink="http://www.w3.org/1999/xlink">
<g id="graph0" class="graph" transform="scale(1 1) rotate(0) translate(4 328)">
<title>packages_backend</title>
<polygon fill="white" stroke="none" points="-4,4 -4,-328 756.88,-328 756.88,4 -4,4"/>
<!-- app -->
<g id="node1" class="node">
<title>app</title>
<polygon fill="none" stroke="black" points="422.75,-36 368.75,-36 368.75,0 422.75,0 422.75,-36"/>
<text text-anchor="middle" x="395.75" y="-12.57" font-family="Times New Roman,serif" font-size="14.00">app</text>
</g>
<!-- app.api -->
<g id="node2" class="node">
<title>app.api</title>
<polygon fill="none" stroke="black" points="266.38,-108 209.12,-108 209.12,-72 266.38,-72 266.38,-108"/>
<text text-anchor="middle" x="237.75" y="-84.58" font-family="Times New Roman,serif" font-size="14.00">app.api</text>
</g>
<!-- app&#45;&gt;app.api -->
<g id="edge1" class="edge">
<title>app&#45;&gt;app.api</title>
<path fill="none" stroke="black" d="M368.59,-31.03C343.29,-42.24 305.28,-59.08 276.74,-71.73"/>
<polygon fill="black" stroke="black" points="267.81,-75.68 275.13,-67.52 271.27,-74.15 276.95,-71.63 276.95,-71.63 276.95,-71.63 271.27,-74.15 278.77,-75.75 267.81,-75.68"/>
</g>
<!-- app.auth -->
<g id="node7" class="node">
<title>app.auth</title>
<polygon fill="none" stroke="black" points="427.75,-108 363.75,-108 363.75,-72 427.75,-72 427.75,-108"/>
<text text-anchor="middle" x="395.75" y="-84.58" font-family="Times New Roman,serif" font-size="14.00">app.auth</text>
</g>
<!-- app&#45;&gt;app.auth -->
<g id="edge2" class="edge">
<title>app&#45;&gt;app.auth</title>
<path fill="none" stroke="black" d="M395.75,-36.3C395.75,-43.68 395.75,-52.48 395.75,-60.75"/>
<polygon fill="black" stroke="black" points="395.75,-70.68 391.25,-60.68 395.75,-66.9 395.75,-60.68 395.75,-60.68 395.75,-60.68 395.75,-66.9 400.25,-60.68 395.75,-70.68"/>
</g>
<!-- app.config -->
<g id="node11" class="node">
<title>app.config</title>
<polygon fill="none" stroke="black" points="521.75,-108 445.75,-108 445.75,-72 521.75,-72 521.75,-108"/>
<text text-anchor="middle" x="483.75" y="-84.58" font-family="Times New Roman,serif" font-size="14.00">app.config</text>
</g>
<!-- app&#45;&gt;app.config -->
<g id="edge3" class="edge">
<title>app&#45;&gt;app.config</title>
<path fill="none" stroke="black" d="M417.5,-36.3C428.29,-44.89 441.5,-55.39 453.28,-64.76"/>
<polygon fill="black" stroke="black" points="460.99,-70.89 450.36,-68.19 458.03,-68.54 453.16,-64.67 453.16,-64.67 453.16,-64.67 458.03,-68.54 455.96,-61.15 460.99,-70.89"/>
</g>
<!-- app.database -->
<g id="node12" class="node">
<title>app.database</title>
<polygon fill="none" stroke="black" points="233.5,-324 144,-324 144,-288 233.5,-288 233.5,-324"/>
<text text-anchor="middle" x="188.75" y="-300.57" font-family="Times New Roman,serif" font-size="14.00">app.database</text>
</g>
<!-- app&#45;&gt;app.database -->
<g id="edge4" class="edge">
<title>app&#45;&gt;app.database</title>
<path fill="none" stroke="black" d="M377.66,-36.23C360.43,-54.8 339.25,-84.8 354.75,-108 378,-142.79 404.14,-125.65 441.75,-144 500.06,-172.46 536.09,-159.94 568.75,-216 576.8,-229.82 579.36,-240.03 568.75,-252 524.5,-301.91 336.58,-277.22 270.75,-288 262.28,-289.39 253.35,-291.04 244.62,-292.76"/>
<polygon fill="black" stroke="black" points="234.93,-294.72 243.84,-288.33 238.64,-293.97 244.73,-292.74 244.73,-292.74 244.73,-292.74 238.64,-293.97 245.62,-297.15 234.93,-294.72"/>
</g>
<!-- app.api.chat -->
<g id="node3" class="node">
<title>app.api.chat</title>
<polygon fill="none" stroke="black" points="279.88,-180 195.62,-180 195.62,-144 279.88,-144 279.88,-180"/>
<text text-anchor="middle" x="237.75" y="-156.57" font-family="Times New Roman,serif" font-size="14.00">app.api.chat</text>
</g>
<!-- app.api&#45;&gt;app.api.chat -->
<g id="edge5" class="edge">
<title>app.api&#45;&gt;app.api.chat</title>
<path fill="none" stroke="black" d="M231.83,-108.3C231.07,-115.68 230.83,-124.48 231.11,-132.75"/>
<polygon fill="black" stroke="black" points="231.77,-142.68 226.62,-133 231.52,-138.91 231.11,-132.7 231.11,-132.7 231.11,-132.7 231.52,-138.91 235.6,-132.4 231.77,-142.68"/>
</g>
<!-- app.api.chat&#45;&gt;app.api -->
<g id="edge6" class="edge">
<title>app.api.chat&#45;&gt;app.api</title>
<path fill="none" stroke="black" d="M243.65,-143.9C244.42,-136.55 244.66,-127.76 244.39,-119.47"/>
<polygon fill="black" stroke="black" points="243.75,-109.52 248.89,-119.2 243.99,-113.29 244.4,-119.5 244.4,-119.5 244.4,-119.5 243.99,-113.29 239.91,-119.79 243.75,-109.52"/>
</g>
<!-- app.api.chat&#45;&gt;app.database -->
<g id="edge7" class="edge">
<title>app.api.chat&#45;&gt;app.database</title>
<path fill="none" stroke="black" d="M233.07,-180.23C228.04,-198.28 219.57,-227.37 210.75,-252 207.76,-260.35 204.19,-269.3 200.8,-277.42"/>
<polygon fill="black" stroke="black" points="197,-286.38 196.77,-275.42 198.48,-282.9 200.91,-277.18 200.91,-277.18 200.91,-277.18 198.48,-282.9 205.05,-278.94 197,-286.38"/>
</g>
<!-- app.elasticsearch_querier -->
<g id="node13" class="node">
<title>app.elasticsearch_querier</title>
<polygon fill="none" stroke="black" points="453.25,-252 296.25,-252 296.25,-216 453.25,-216 453.25,-252"/>
<text text-anchor="middle" x="374.75" y="-228.57" font-family="Times New Roman,serif" font-size="14.00">app.elasticsearch_querier</text>
</g>
<!-- app.api.chat&#45;&gt;app.elasticsearch_querier -->
<g id="edge8" class="edge">
<title>app.api.chat&#45;&gt;app.elasticsearch_querier</title>
<path fill="none" stroke="black" d="M271.97,-180.48C289.84,-189.61 311.9,-200.89 331,-210.65"/>
<polygon fill="black" stroke="black" points="339.88,-215.19 328.93,-214.64 336.52,-213.46 330.98,-210.64 330.98,-210.64 330.98,-210.64 336.52,-213.46 333.03,-206.63 339.88,-215.19"/>
</g>
<!-- app.models -->
<g id="node14" class="node">
<title>app.models</title>
<polygon fill="none" stroke="black" points="201.38,-252 120.12,-252 120.12,-216 201.38,-216 201.38,-252"/>
<text text-anchor="middle" x="160.75" y="-228.57" font-family="Times New Roman,serif" font-size="14.00">app.models</text>
</g>
<!-- app.api.chat&#45;&gt;app.models -->
<g id="edge9" class="edge">
<title>app.api.chat&#45;&gt;app.models</title>
<path fill="none" stroke="black" d="M218.72,-180.3C209.46,-188.72 198.17,-198.98 188.02,-208.21"/>
<polygon fill="black" stroke="black" points="180.73,-214.83 185.11,-204.78 183.53,-212.29 188.13,-208.11 188.13,-208.11 188.13,-208.11 183.53,-212.29 191.16,-211.44 180.73,-214.83"/>
</g>
<!-- app.api.files -->
<g id="node4" class="node">
<title>app.api.files</title>
<polygon fill="none" stroke="black" points="341.5,-36 258,-36 258,0 341.5,0 341.5,-36"/>
<text text-anchor="middle" x="299.75" y="-12.57" font-family="Times New Roman,serif" font-size="14.00">app.api.files</text>
</g>
<!-- app.api.files&#45;&gt;app.api -->
<g id="edge10" class="edge">
<title>app.api.files&#45;&gt;app.api</title>
<path fill="none" stroke="black" d="M284.42,-36.3C277.14,-44.53 268.29,-54.52 260.27,-63.58"/>
<polygon fill="black" stroke="black" points="253.71,-70.98 256.97,-60.51 256.21,-68.15 260.34,-63.5 260.34,-63.5 260.34,-63.5 256.21,-68.15 263.71,-66.48 253.71,-70.98"/>
</g>
<!-- app.api.questions -->
<g id="node5" class="node">
<title>app.api.questions</title>
<polygon fill="none" stroke="black" points="239.88,-36 125.62,-36 125.62,0 239.88,0 239.88,-36"/>
<text text-anchor="middle" x="182.75" y="-12.57" font-family="Times New Roman,serif" font-size="14.00">app.api.questions</text>
</g>
<!-- app.api.questions&#45;&gt;app.api -->
<g id="edge11" class="edge">
<title>app.api.questions&#45;&gt;app.api</title>
<path fill="none" stroke="black" d="M196.35,-36.3C202.74,-44.44 210.49,-54.31 217.56,-63.3"/>
<polygon fill="black" stroke="black" points="223.56,-70.94 213.84,-65.85 221.22,-67.96 217.38,-63.07 217.38,-63.07 217.38,-63.07 221.22,-67.96 220.92,-60.29 223.56,-70.94"/>
</g>
<!-- app.api.questions&#45;&gt;app.database -->
<g id="edge12" class="edge">
<title>app.api.questions&#45;&gt;app.database</title>
<path fill="none" stroke="black" d="M168.69,-36.23C138.02,-76.05 70.93,-176.79 110.75,-252 117.16,-264.1 127.71,-273.95 139,-281.73"/>
<polygon fill="black" stroke="black" points="147.13,-286.88 136.27,-285.33 143.93,-284.86 138.68,-281.53 138.68,-281.53 138.68,-281.53 143.93,-284.86 141.09,-277.73 147.13,-286.88"/>
</g>
<!-- app.api.questions&#45;&gt;app.models -->
<g id="edge13" class="edge">
<title>app.api.questions&#45;&gt;app.models</title>
<path fill="none" stroke="black" d="M180.99,-36.15C177.21,-72.93 168.28,-159.71 163.65,-204.76"/>
<polygon fill="black" stroke="black" points="162.65,-214.56 159.19,-204.15 163.03,-210.79 163.67,-204.61 163.67,-204.61 163.67,-204.61 163.03,-210.79 168.15,-205.07 162.65,-214.56"/>
</g>
<!-- app.api.versions -->
<g id="node6" class="node">
<title>app.api.versions</title>
<polygon fill="none" stroke="black" points="107.5,-36 0,-36 0,0 107.5,0 107.5,-36"/>
<text text-anchor="middle" x="53.75" y="-12.57" font-family="Times New Roman,serif" font-size="14.00">app.api.versions</text>
</g>
<!-- app.api.versions&#45;&gt;app.api -->
<g id="edge14" class="edge">
<title>app.api.versions&#45;&gt;app.api</title>
<path fill="none" stroke="black" d="M99.71,-36.48C130.14,-48.06 169.63,-63.08 198.57,-74.09"/>
<polygon fill="black" stroke="black" points="207.58,-77.52 196.63,-78.17 204.04,-76.18 198.23,-73.97 198.23,-73.97 198.23,-73.97 204.04,-76.18 199.83,-69.76 207.58,-77.52"/>
</g>
<!-- app.api.versions&#45;&gt;app.database -->
<g id="edge15" class="edge">
<title>app.api.versions&#45;&gt;app.database</title>
<path fill="none" stroke="black" d="M52.19,-36.37C49.38,-77.81 47.69,-184.04 95.75,-252 105.25,-265.44 119.31,-275.92 133.64,-283.88"/>
<polygon fill="black" stroke="black" points="142.46,-288.44 131.51,-287.85 139.1,-286.71 133.58,-283.85 133.58,-283.85 133.58,-283.85 139.1,-286.71 135.64,-279.86 142.46,-288.44"/>
</g>
<!-- app.api.versions&#45;&gt;app.models -->
<g id="edge16" class="edge">
<title>app.api.versions&#45;&gt;app.models</title>
<path fill="none" stroke="black" d="M62.33,-36.15C80.87,-73.25 124.84,-161.19 147.2,-205.9"/>
<polygon fill="black" stroke="black" points="151.59,-214.68 143.09,-207.75 149.9,-211.3 147.12,-205.73 147.12,-205.73 147.12,-205.73 149.9,-211.3 151.14,-203.72 151.59,-214.68"/>
</g>
<!-- app.auth.jwt -->
<g id="node8" class="node">
<title>app.auth.jwt</title>
<polygon fill="none" stroke="black" points="524.88,-36 440.62,-36 440.62,0 524.88,0 524.88,-36"/>
<text text-anchor="middle" x="482.75" y="-12.57" font-family="Times New Roman,serif" font-size="14.00">app.auth.jwt</text>
</g>
<!-- app.auth.routes -->
<g id="node9" class="node">
<title>app.auth.routes</title>
<polygon fill="none" stroke="black" points="644.88,-36 542.62,-36 542.62,0 644.88,0 644.88,-36"/>
<text text-anchor="middle" x="593.75" y="-12.57" font-family="Times New Roman,serif" font-size="14.00">app.auth.routes</text>
</g>
<!-- app.auth.utils -->
<g id="node10" class="node">
<title>app.auth.utils</title>
<polygon fill="none" stroke="black" points="752.88,-36 662.62,-36 662.62,0 752.88,0 752.88,-36"/>
<text text-anchor="middle" x="707.75" y="-12.57" font-family="Times New Roman,serif" font-size="14.00">app.auth.utils</text>
</g>
<!-- app.elasticsearch_querier&#45;&gt;app -->
<g id="edge17" class="edge">
<title>app.elasticsearch_querier&#45;&gt;app</title>
<path fill="none" stroke="black" d="M412.26,-215.52C450.15,-195.54 506.46,-158.9 530.75,-108 537.64,-93.56 539.93,-85.11 530.75,-72 505.73,-36.27 478.91,-51.51 433.46,-36.16"/>
<polygon fill="black" stroke="black" points="424.29,-32.69 435.24,-32.02 427.83,-34.03 433.64,-36.23 433.64,-36.23 433.64,-36.23 427.83,-34.03 432.05,-40.44 424.29,-32.69"/>
</g>
<!-- app.real_conversation_analysis -->
<g id="node15" class="node">
<title>app.real_conversation_analysis</title>
<polygon fill="none" stroke="black" points="469.75,-324 279.75,-324 279.75,-288 469.75,-288 469.75,-324"/>
<text text-anchor="middle" x="374.75" y="-300.57" font-family="Times New Roman,serif" font-size="14.00">app.real_conversation_analysis</text>
</g>
<!-- app.elasticsearch_querier&#45;&gt;app.real_conversation_analysis -->
<g id="edge18" class="edge">
<title>app.elasticsearch_querier&#45;&gt;app.real_conversation_analysis</title>
<path fill="none" stroke="black" d="M374.75,-252.3C374.75,-259.68 374.75,-268.48 374.75,-276.75"/>
<polygon fill="black" stroke="black" points="374.75,-286.68 370.25,-276.68 374.75,-282.9 374.75,-276.68 374.75,-276.68 374.75,-276.68 374.75,-282.9 379.25,-276.68 374.75,-286.68"/>
</g>
<!-- app.models&#45;&gt;app.database -->
<g id="edge19" class="edge">
<title>app.models&#45;&gt;app.database</title>
<path fill="none" stroke="black" d="M167.67,-252.3C170.72,-259.93 174.38,-269.08 177.79,-277.6"/>
<polygon fill="black" stroke="black" points="181.46,-286.76 173.56,-279.15 180.05,-283.25 177.74,-277.48 177.74,-277.48 177.74,-277.48 180.05,-283.25 181.92,-275.81 181.46,-286.76"/>
</g>
<!-- app.routes_archieve -->
<g id="node16" class="node">
<title>app.routes_archieve</title>
<polygon fill="none" stroke="black" points="433,-180 304.5,-180 304.5,-144 433,-144 433,-180"/>
<text text-anchor="middle" x="368.75" y="-156.57" font-family="Times New Roman,serif" font-size="14.00">app.routes_archieve</text>
</g>
<!-- app.routes_archieve&#45;&gt;app.database -->
<g id="edge20" class="edge">
<title>app.routes_archieve&#45;&gt;app.database</title>
<path fill="none" stroke="black" d="M339.91,-180.37C324.1,-190.25 304.4,-203.19 287.75,-216 261.58,-236.13 233.79,-261.51 214.34,-280.01"/>
<polygon fill="black" stroke="black" points="207.16,-286.89 211.26,-276.72 209.89,-284.27 214.38,-279.97 214.38,-279.97 214.38,-279.97 209.89,-284.27 217.49,-283.22 207.16,-286.89"/>
</g>
<!-- app.routes_archieve&#45;&gt;app.elasticsearch_querier -->
<g id="edge21" class="edge">
<title>app.routes_archieve&#45;&gt;app.elasticsearch_querier</title>
<path fill="none" stroke="black" d="M370.23,-180.3C370.87,-187.68 371.62,-196.48 372.33,-204.75"/>
<polygon fill="black" stroke="black" points="373.18,-214.68 367.84,-205.1 372.86,-210.91 372.33,-204.72 372.33,-204.72 372.33,-204.72 372.86,-210.91 376.81,-204.33 373.18,-214.68"/>
</g>
<!-- app.routes_archieve&#45;&gt;app.models -->
<g id="edge22" class="edge">
<title>app.routes_archieve&#45;&gt;app.models</title>
<path fill="none" stroke="black" d="M316.8,-180.48C284.8,-191.25 243.94,-205 212.06,-215.73"/>
<polygon fill="black" stroke="black" points="202.77,-218.86 210.82,-211.4 206.36,-217.65 212.25,-215.67 212.25,-215.67 212.25,-215.67 206.36,-217.65 213.69,-219.93 202.77,-218.86"/>
</g>
<!-- app.schemas -->
<g id="node17" class="node">
<title>app.schemas</title>
<polygon fill="none" stroke="black" points="560.12,-252 471.38,-252 471.38,-216 560.12,-216 560.12,-252"/>
<text text-anchor="middle" x="515.75" y="-228.57" font-family="Times New Roman,serif" font-size="14.00">app.schemas</text>
</g>
<!-- app.routes_archieve&#45;&gt;app.schemas -->
<g id="edge23" class="edge">
<title>app.routes_archieve&#45;&gt;app.schemas</title>
<path fill="none" stroke="black" d="M405.47,-180.48C424.74,-189.66 448.57,-201.01 469.14,-210.8"/>
<polygon fill="black" stroke="black" points="478.15,-215.09 467.19,-214.86 474.73,-213.47 469.12,-210.8 469.12,-210.8 469.12,-210.8 474.73,-213.47 471.05,-206.73 478.15,-215.09"/>
</g>
</g>
</svg>
