<?xml version="1.0" encoding="UTF-8" standalone="no"?>
<!DOCTYPE svg PUBLIC "-//W3C//DTD SVG 1.1//EN"
 "http://www.w3.org/Graphics/SVG/1.1/DTD/svg11.dtd">
<!-- Generated by graphviz version 11.0.0 (20240428.1522)
 -->
<!-- Title: packages_backend Pages: 1 -->
<svg width="585pt" height="260pt"
 viewBox="0.00 0.00 585.38 260.00" xmlns="http://www.w3.org/2000/svg" xmlns:xlink="http://www.w3.org/1999/xlink">
<g id="graph0" class="graph" transform="scale(1 1) rotate(0) translate(4 256)">
<title>packages_backend</title>
<polygon fill="white" stroke="none" points="-4,4 -4,-256 581.38,-256 581.38,4 -4,4"/>
<!-- app -->
<g id="node1" class="node">
<title>app</title>
<polygon fill="none" stroke="black" points="180,-36 126,-36 126,0 180,0 180,-36"/>
<text text-anchor="middle" x="153" y="-12.57" font-family="Times New Roman,serif" font-size="14.00">app</text>
</g>
<!-- app.auth -->
<g id="node2" class="node">
<title>app.auth</title>
<polygon fill="none" stroke="black" points="64,-108 0,-108 0,-72 64,-72 64,-108"/>
<text text-anchor="middle" x="32" y="-84.58" font-family="Times New Roman,serif" font-size="14.00">app.auth</text>
</g>
<!-- app&#45;&gt;app.auth -->
<g id="edge1" class="edge">
<title>app&#45;&gt;app.auth</title>
<path fill="none" stroke="black" d="M125.54,-34.88C109.54,-44.14 89.09,-55.97 71.39,-66.21"/>
<polygon fill="black" stroke="black" points="62.95,-71.1 69.35,-62.19 66.22,-69.2 71.6,-66.09 71.6,-66.09 71.6,-66.09 66.22,-69.2 73.85,-69.99 62.95,-71.1"/>
</g>
<!-- app.config -->
<g id="node6" class="node">
<title>app.config</title>
<polygon fill="none" stroke="black" points="158,-108 82,-108 82,-72 158,-72 158,-108"/>
<text text-anchor="middle" x="120" y="-84.58" font-family="Times New Roman,serif" font-size="14.00">app.config</text>
</g>
<!-- app&#45;&gt;app.config -->
<g id="edge2" class="edge">
<title>app&#45;&gt;app.config</title>
<path fill="none" stroke="black" d="M144.84,-36.3C141.21,-44.02 136.84,-53.29 132.78,-61.89"/>
<polygon fill="black" stroke="black" points="128.58,-70.79 128.78,-59.83 130.2,-67.37 132.85,-61.75 132.85,-61.75 132.85,-61.75 130.2,-67.37 136.92,-63.67 128.58,-70.79"/>
</g>
<!-- app.database -->
<g id="node7" class="node">
<title>app.database</title>
<polygon fill="none" stroke="black" points="352.75,-252 263.25,-252 263.25,-216 352.75,-216 352.75,-252"/>
<text text-anchor="middle" x="308" y="-228.57" font-family="Times New Roman,serif" font-size="14.00">app.database</text>
</g>
<!-- app&#45;&gt;app.database -->
<g id="edge3" class="edge">
<title>app&#45;&gt;app.database</title>
<path fill="none" stroke="black" d="M157.76,-36.25C168.71,-75.45 195.42,-168.72 205,-180 217.62,-194.86 235.46,-206.07 252.75,-214.26"/>
<polygon fill="black" stroke="black" points="261.71,-218.24 250.75,-218.29 258.26,-216.71 252.57,-214.18 252.57,-214.18 252.57,-214.18 258.26,-216.71 254.4,-210.07 261.71,-218.24"/>
</g>
<!-- app.routes -->
<g id="node10" class="node">
<title>app.routes</title>
<polygon fill="none" stroke="black" points="467.62,-108 392.38,-108 392.38,-72 467.62,-72 467.62,-108"/>
<text text-anchor="middle" x="430" y="-84.58" font-family="Times New Roman,serif" font-size="14.00">app.routes</text>
</g>
<!-- app&#45;&gt;app.routes -->
<g id="edge4" class="edge">
<title>app&#45;&gt;app.routes</title>
<path fill="none" stroke="black" d="M180.25,-32.65C183.17,-33.87 186.12,-35.02 189,-36 253.89,-58.14 331.83,-73.31 381.15,-81.57"/>
<polygon fill="black" stroke="black" points="390.93,-83.18 380.33,-86 387.2,-82.57 381.06,-81.56 381.06,-81.56 381.06,-81.56 387.2,-82.57 381.79,-77.12 390.93,-83.18"/>
</g>
<!-- app.auth.jwt -->
<g id="node3" class="node">
<title>app.auth.jwt</title>
<polygon fill="none" stroke="black" points="282.12,-36 197.88,-36 197.88,0 282.12,0 282.12,-36"/>
<text text-anchor="middle" x="240" y="-12.57" font-family="Times New Roman,serif" font-size="14.00">app.auth.jwt</text>
</g>
<!-- app.auth.routes -->
<g id="node4" class="node">
<title>app.auth.routes</title>
<polygon fill="none" stroke="black" points="402.12,-36 299.88,-36 299.88,0 402.12,0 402.12,-36"/>
<text text-anchor="middle" x="351" y="-12.57" font-family="Times New Roman,serif" font-size="14.00">app.auth.routes</text>
</g>
<!-- app.auth.utils -->
<g id="node5" class="node">
<title>app.auth.utils</title>
<polygon fill="none" stroke="black" points="510.12,-36 419.88,-36 419.88,0 510.12,0 510.12,-36"/>
<text text-anchor="middle" x="465" y="-12.57" font-family="Times New Roman,serif" font-size="14.00">app.auth.utils</text>
</g>
<!-- app.elasticsearch_querier -->
<g id="node8" class="node">
<title>app.elasticsearch_querier</title>
<polygon fill="none" stroke="black" points="371.5,-180 214.5,-180 214.5,-144 371.5,-144 371.5,-180"/>
<text text-anchor="middle" x="293" y="-156.57" font-family="Times New Roman,serif" font-size="14.00">app.elasticsearch_querier</text>
</g>
<!-- app.models -->
<g id="node9" class="node">
<title>app.models</title>
<polygon fill="none" stroke="black" points="470.62,-180 389.38,-180 389.38,-144 470.62,-144 470.62,-180"/>
<text text-anchor="middle" x="430" y="-156.57" font-family="Times New Roman,serif" font-size="14.00">app.models</text>
</g>
<!-- app.models&#45;&gt;app.database -->
<g id="edge5" class="edge">
<title>app.models&#45;&gt;app.database</title>
<path fill="none" stroke="black" d="M399.53,-180.48C383.84,-189.49 364.51,-200.58 347.67,-210.24"/>
<polygon fill="black" stroke="black" points="339.14,-215.13 345.57,-206.25 342.42,-213.25 347.81,-210.16 347.81,-210.16 347.81,-210.16 342.42,-213.25 350.05,-214.06 339.14,-215.13"/>
</g>
<!-- app.routes&#45;&gt;app.elasticsearch_querier -->
<g id="edge6" class="edge">
<title>app.routes&#45;&gt;app.elasticsearch_querier</title>
<path fill="none" stroke="black" d="M395.78,-108.48C377.91,-117.61 355.85,-128.89 336.75,-138.65"/>
<polygon fill="black" stroke="black" points="327.87,-143.19 334.72,-134.63 331.23,-141.46 336.77,-138.64 336.77,-138.64 336.77,-138.64 331.23,-141.46 338.82,-142.64 327.87,-143.19"/>
</g>
<!-- app.routes&#45;&gt;app.models -->
<g id="edge7" class="edge">
<title>app.routes&#45;&gt;app.models</title>
<path fill="none" stroke="black" d="M424.08,-108.3C423.32,-115.68 423.08,-124.48 423.36,-132.75"/>
<polygon fill="black" stroke="black" points="424.02,-142.68 418.87,-133 423.77,-138.91 423.36,-132.7 423.36,-132.7 423.36,-132.7 423.77,-138.91 427.85,-132.4 424.02,-142.68"/>
</g>
<!-- app.routes&#45;&gt;app.models -->
<g id="edge8" class="edge">
<title>app.routes&#45;&gt;app.models</title>
<path fill="none" stroke="black" d="M435.92,-108.3C436.68,-115.68 436.92,-124.48 436.64,-132.75"/>
<polygon fill="black" stroke="black" points="435.98,-142.68 432.15,-132.4 436.23,-138.91 436.64,-132.7 436.64,-132.7 436.64,-132.7 436.23,-138.91 441.13,-133 435.98,-142.68"/>
</g>
<!-- app.schemas -->
<g id="node11" class="node">
<title>app.schemas</title>
<polygon fill="none" stroke="black" points="577.38,-180 488.62,-180 488.62,-144 577.38,-144 577.38,-180"/>
<text text-anchor="middle" x="533" y="-156.57" font-family="Times New Roman,serif" font-size="14.00">app.schemas</text>
</g>
<!-- app.routes&#45;&gt;app.schemas -->
<g id="edge9" class="edge">
<title>app.routes&#45;&gt;app.schemas</title>
<path fill="none" stroke="black" d="M455.73,-108.48C468.73,-117.32 484.68,-128.16 498.71,-137.7"/>
<polygon fill="black" stroke="black" points="506.59,-143.05 495.79,-141.16 503.47,-140.93 498.32,-137.43 498.32,-137.43 498.32,-137.43 503.47,-140.93 500.85,-133.71 506.59,-143.05"/>
</g>
</g>
</svg>
